<?xml version="1.0" encoding="utf-8"?>
<!-- Generator: Adobe Illustrator 23.0.6, SVG Export Plug-In . SVG Version: 6.00 Build 0)  -->
<svg version="1.1" id="Layer_1" xmlns="http://www.w3.org/2000/svg" xmlns:xlink="http://www.w3.org/1999/xlink" x="0px" y="0px"
	 viewBox="0 0 500.9 144.6" style="enable-background:new 0 0 500.9 144.6;" xml:space="preserve">
<style type="text/css">
	.st0{opacity:0.5;fill:#FFFFFF;}
	.st1{opacity:0.8;}
	.st2{fill:#FFFFFF;}
</style>
<path class="st0" d="M45.8,25.4l0.6,0.7c0,0-0.2,0.1,0.5,0.5s1,0.8,1.4,0.7c0.4-0.1,1.2,0.1,1.5,0c0.3-0.1,0.8-0.2,1.4-0.2
	s1,0.2,1.2,0.5s-0.3-0.4,0.6,0.3c0.9,0.7,0.8,0.7,1.2,0.4c0.4-0.2,0.4-0.3,1.2-1.1c0.8-0.8,0.4-0.9,1.2-1s1-0.5,1.5-0.7
	c0.5-0.2,0.8-0.4,0.8-1.4c-0.1-1-0.5-1.1,0-1.2s0.8,0.1,1.2,0.3c0.5,0.3,1.5,0.4,2.1,0.5c0.6,0.1,1.2,0.5,1.5,0.9
	c0.3,0.4,0.3,0.3,1,0.6c0.7,0.3,1.8,0.6,2.2,0.4c0.4-0.1,1.1-0.5,1.4,0c0.3,0.5,0,0.7,0.3,0.7c0.3,0,0.4-0.2,1.2-0.4
	c0.7-0.2,1.1,0.6,1.6-0.3c0.5-0.9,0-0.8,0.5-0.9c0.5-0.1,0.3,0,1.1,0.4c0.8,0.4,0.5,1,0.5,1.2c0,0.2,0,0.3,0.7,0.7
	c0.7,0.4,1.2,1,1.7,1c0.5,0,1.2-0.4,1.4-0.4s1-0.5,1.3-0.7c0.4-0.2,0.7-1.5,1-1.7s0.3-0.1,0.9-0.7c0.6-0.5-0.3-0.4,0.4-1
	c0.7-0.6,1-0.6,1.1-0.4c0.1,0.2,0.3,0,0.8,0.2s0,0.1,0.9,0.7c0.8,0.6,1,0.3,1,0.1c0-0.1,0.3-0.3,0.3-0.3l0.7,0c0,0,0.5,0.4,0.7,0.4
	c0.2,0,0.9,0.3,1.2,0.3s1.3-0.1,1.5-0.1s0.7-0.4,1-0.4c0.3,0,0.3,0.3,0.7,0.4c0.4,0.1,0.2,0.1,0.9,0.1c0.7,0.1,1.2,0.1,1.5-0.1
	c0.3-0.2,0.5-0.4,1.1-0.4c0.5,0,0.5,0,1,0.1s1.1,0.3,1.2,0.3s-0.1-0.7,0.5-0.2c0.7,0.5,1,1.1,1.4,1.2c0.4,0,0.4-0.3,1.6-0.5
	c1.2-0.1,1.5,0.3,2.2-0.3s1.2-0.8,1.9-0.8c0.7,0,1.1-0.4,1.5-0.7c0.5-0.3,1.1-0.7,1.4-1.2c0.3-0.5,0.3-0.6,0.8-0.9
	c0.5-0.3,0.8-1,0.8-1.1c0-0.1,0.6-0.1,1.2-0.2c0.6-0.1,0.1-0.3,1,0c1,0.3,1.4,0.1,1.7-0.2c0.3-0.3,0.7-0.5,1.4-0.5s1.1-0.1,1.6-0.4
	c0.5-0.3,0.6-0.4,1.1-0.5s0.8-0.7,1-1c0.2-0.3,0-0.4,0.8-0.5c0.8,0,1.1-0.3,1.6-0.3c0.5,0,1.5-0.7,1.8-0.7c0.3-0.1,0.4-0.2,1.2-0.2
	c0.8,0,1.6,0.1,1.9,0c0.3-0.1,0.6-0.1,0.8-0.5l0.5-0.8l0.5-1.4c0,0,0.4,0.3,1.1,0c0.6-0.3,0.5-0.3,1.1-0.3c0.6,0,0.8-0.3,0.9-0.8
	s0.3-0.7,0.9-0.5c0.5,0.2,0.7,0.5,1.2,0.4c0.5-0.1,0.2-0.2,1-0.5c0.8-0.3,0.9-0.3,1.5-0.6c0.5-0.3,0.9-0.5,1.1-0.7
	c0.2-0.3,0.1-1.1,0.6-1.4c0.5-0.3,1.2-0.8,1.3-0.8s0.4,0.2,0.8-0.3c0.4-0.5,0.7-0.8,1-1c0.3-0.2,0.4-0.5,0.5-0.9
	c0.2-0.4,1.2-1,1.5-1c0.3,0,0.9,0,1.2,0.2s1.3,1,1.7,1.3s0.2,1.3,0.2,1.6c0,0.3,0.7,0.6,1.1,0.6c0.4,0-0.2,0.4,0.3,0.9
	c0.5,0.5,1.6,0.1,1.8,1s1,1,1.5,1.4c0.4,0.4,1,0.6,0.9,1.2c-0.1,0.6-0.3,0.1,0,0.8s1.2,0.3,0.6,1.5c-0.5,1.2-1.5,1-0.7,2
	c0.7,1,1.3,1.1,1.9,1.2c0.6,0.1,1.3,0.3,1.5,0.7c0.2,0.4,0.3,0.9,0,1.4c-0.3,0.5,0,1.8,0,1.8s0.4,0.2,0.5,0.4
	c0.1,0.3,0.5,0.8,0.7,1.1s0.8,1.2,1.1,1.2s0.1-0.3,1.2,0c1.1,0.3,1.3,0.5,1.8,0.2s1-0.5,1.4-0.2l0.8,1.2v0.5c0,0-0.1,0-0.1,0.4
	s0,0.7,0.1,1.3c0.2,0.6,0.4,1.1,1.2,1.1s1.4,0.2,1.8,0c0.4-0.2,0.7-0.2,0.7,0.1c0.1,0.3-0.3,0.8,0.7,1.1c0.9,0.3,1.2,0.4,1.4,0.6
	s0.5,0.7,0.9,0.8c0.4,0.1,1,0.4,1.4,0.5c0.3,0.1,1.3,0.4,2,0.3c0.7-0.1,0.3-0.1,1.2,0c1,0.1,0.9-0.8,1.3-0.6
	c0.4,0.2,1.4,0.2,1.6,0.4c0.2,0.2,1-0.2,1.2,0.4c0.2,0.6,0.7,0.8,1,1.3c0.3,0.4-0.3,0.5,0.3,0.7c0.6,0.2,0.9,0.1,1.3,0.5
	c0.4,0.4,1.1,0.6,1.3,0.8c0.2,0.2,0.5,0.5,1.5,0.3c1-0.3,2-0.9,2-0.9s0.4-0.7,1-0.5c0.6,0.2,1.2,0.5,1.4,0.7
	c0.1,0.1,0.3,0.9,0.6,0.8c0.3-0.1,0.4-0.6,0.6-0.3c0.3,0.3,0.9,1.4,0.9,1.4s-0.1,0.4-0.5,0.8c-0.5,0.4-1.2,0.8-1.6,1.2
	s-0.4,0.9-0.4,1.4c0,0.5-0.2,0.9-0.1,1.2c0,0.3,0.2,0.4-0.1,0.9c-0.3,0.5-1.1,0.7-1.5,0.7s-1.2-0.5-1.6,0c-0.4,0.5-0.5,0.5-1.1,0.8
	c-0.5,0.3-1-0.4-1.3,0.4c-0.3,0.8,0,0.7,0,1.3s0.6,0.7,0.7,1s-0.2,0.3-0.9,0.3c-0.7,0-1.7,0-2-0.2c-0.3-0.1-0.9-0.7-1.3-0.8
	c-0.4-0.1-1-0.8-1-0.8s0.4-0.2-0.7-0.3c-1.1-0.1-1.6,0-2.1-0.3c-0.4-0.3-2.1-0.5-2.1-0.5s-0.9-0.1-1.2,0c-0.3,0.1-1.2,0.5-1.3,0.9
	c-0.1,0.4-0.4,1.3-0.4,1.5c0,0.2-0.1,1.6-0.1,1.6s0.1,0.6-0.1,1.2c-0.2,0.6-0.8,0.9-0.8,1.4c0,0.4,0.7,0.8,0.5,1.3
	c-0.1,0.5,0,0.8,0.3,1.6c0.3,0.8,0.3,1,0,1.3s-0.6,0.8-0.6,1.3s0.3,0.9-0.1,1.2c-0.4,0.3-0.8,0-1.1,0.4c-0.2,0.4-0.3,0.5-0.2,1
	c0.1,0.4,0.3,0.9,0.1,1.3s-0.1,0.2-0.2,0.7c-0.1,0.5-0.2,0.4-0.4,1s-0.3,0.8-0.4,1.2c-0.1,0.4,0.3,0.7,0.3,1.2
	c0,0.5-0.3,0.5-0.5,0.9c-0.2,0.4-0.7,0.8-0.8,0.8s-0.3,0.5-0.1,0.9c0.2,0.4,0.4,1,0.3,1.3c-0.1,0.3-0.1,0.9-0.8,1.1s-1.4,0.8-1.5,1
	c-0.1,0.2-0.5,1.1-0.5,1.3s0.5,1.4,0.7,1.6c0.2,0.2,1.1,0.4,1.1,0.6s0.6,0.7,0.8,0.8s1.1,0.2,1.4,0.6c0.3,0.4,0,0.3,0.9-0.4
	c0.9-0.8,1.8-1,2.3-1c0.4,0,0.6-0.3,0.9,0c0.3,0.3,1-0.2,1.2-0.4c0.3-0.1,0.4-0.5,1.4-0.5s1.1-0.6,1.6-0.6c0.5,0,0.9,0,1.2,0.4
	s0.7,0,1.3,0.3c0.6,0.3,0.4,1,1.7,0.7s1.4-0.4,2.1-0.7s1-0.8,1.6-0.5c0.6,0.2,0.5,0.1,0.8,1c0.2,0.9,0.4,0.9,1,1.3
	c0.6,0.4,1.6,0.7,1.6,1.1s0.5,0.7,0.5,1.2c0,0.4,0.3,0.5,0.4,1.4c0,0.9-0.3,1.2-0.3,1.4s0.1,0.3,0.3,1s0.6,1.3,1,1.7
	c0.3,0.4,1.1,0.5,1.7,1.5c0.5,1,1.2,1.6,1.2,2c0,0.4,0.3,1.2-0.1,2c-0.4,0.8-0.3,1-0.8,1.8c-0.5,0.9-1,1.2-1.2,1.4
	c-0.2,0.2,0,0.5,0.5,0.7c0.6,0.3,1.2,0.5,1.4,0.9c0.2,0.4,0.1,0.6,0.4,0.9s0.7-0.8,0.9,0c0.1,0.8-0.3,1.2-0.3,1.6
	c0,0.4-0.4,0.5-0.1,1c0.3,0.5,0.7,1,0.8,1.3c0.2,0.3,0.3,0.5,0.4,1c0.1,0.5,0.7,0.9,1,1.2s0.4,0.4,0.4,1.1s0.1,0.9,0.5,1.5
	c0.4,0.5,0.5,1,0.7,1.5s0.3,1.8,0,1.9c-0.3,0.1-1.3,0.5-1.5,0.7s-0.4,0.6-0.4,0.9c0,0.3,1,0.5,0.2,1.2c-0.8,0.7-1.1,0.4-1.2,0.9
	c0,0.4,0.3,1.2,0,1.6c-0.3,0.5-0.8,0.4-0.9,1.3s0.3,1.7,0.2,2.4c-0.1,0.7,1.1,0.5,1.4,0.9s0.3,0.8,0.8,1.7s0.5,1.4,0.8,1.9
	c0.3,0.4,0.1,0.5-0.1,1.1c-0.1,0.5-0.4,0.4-0.2,1.1c0.3,0.7,1,0.8,1.1,1.1c0.1,0.3-0.1,0.4,0,1s0.1,0.9,0.4,1.4
	c0.4,0.4,1.1,0.9,1,1.5c-0.1,0.7-0.7,1.5-1.1,1.8s-0.7,1.1-1.3,0.8c-0.6-0.3-2.6,0-2.9,0.3s-1.1,0.3-1.8,0.5
	c-0.6,0.3-1.1,0.4-2.4,0.6s-3.2,0-3.6,0.2c-0.4,0.2-2.1,0.4-2.9,0.5s-2.3,1.4-2.5,1.6c-0.2,0.1-2.5,1-3,1.4
	c-0.5,0.4-1.5,1.8-1.9,2.1c-0.4,0.3-0.7,1-1.1,1.4c-0.4,0.5-0.2,1.2-1.2,1.1c-1-0.1-2.1-0.4-2.3-0.7c-0.3-0.3-1.2-0.7-1.7-0.9
	c-0.5-0.3-1.3-0.6-2-1c-0.7-0.4-1.4-0.7-1.5-0.8s-1-0.5-1.5-0.5c-0.5-0.1-0.5-0.1-1-0.4c-0.5-0.3-1.2-0.3-1.7,0.1
	c-0.5,0.4-0.4,1.1-1.2,1.1s-1.3,0.1-1.6,0c-0.3-0.1-1.2-0.1-1.8-0.1c-0.5,0-1.1,0.3-1.2,0.4c0,0-0.3-0.7-0.5-0.8
	c-0.2-0.1-0.8-0.8-1-0.9c-0.1-0.1-0.8-0.6-1.2-0.7c-0.4-0.1-1-0.3-1.5-0.3s-1.4-0.1-2,0.2c-0.5,0.3,0.1-0.3-1.2,0.5
	c-1.4,0.8-1.2,0.6-1.2,0.6l-1.5,0.2c0,0-0.7-0.5-1.1-0.2c-0.4,0.3-1.1,0.9-1.6,1.1s-1.6,0.3-2,0.3c-0.4,0-1-0.5-0.9-0.8
	c0.1-0.3-0.7-2.6-0.7-2.6s-0.8-1.2-0.7-2c0.1-0.8-0.1-0.9-0.5-1.6c-0.4-0.7,0.2-0.7-0.9-1.2c-1.1-0.5-1-0.5-2-0.9
	c-1-0.3-1.5-0.5-1.9-0.8c-0.4-0.3-1.6-0.9-1.6-1c0-0.1-0.4-0.6-0.8-0.7c-0.4-0.1-0.9-0.5-1.1-0.6c-0.2-0.1-0.7-0.4-0.9-0.4
	s-0.1,0.1-0.8,0.2s-1.1,0.1-1.7,0c-0.5-0.1-1-0.2-1.3,0c-0.4,0.1-1.3-0.1-1.7,0.1c-0.4,0.3-0.6,0.9-1.1,1.2
	c-0.5,0.3-1.3,0.8-2.1,0.7s-1.2-0.1-1.6,0.1c-0.4,0.3-1,0.4-1.6,0.7c-0.7,0.3-1.2,0.8-1.5,0.7l-1,0.4h-0.7c0,0-0.4,0.2-0.8,0.3
	c-0.4,0.1-1.4,0.6-1.3,0.2c0.1-0.4,0.7-0.8,0.7-1.1c0-0.4,0.8-0.3,0.1-1.2c-0.6-1-0.7-1.5-1.1-2c-0.4-0.5-0.9-1.5-1.2-2.1
	c-0.3-0.7-0.9-0.8-1-1.5c-0.1-0.7-0.5-1.6-0.5-2.1s0.4-0.7,0.1-1.2c-0.3-0.4-0.8-1.4-0.8-1.4s-0.7-0.3-1.2-0.1s-1,0.2-1.3,0.3
	s-0.9,0.2-1.6,0.7s-0.8,0.5-1.4,0.2s-1.2-0.9-1.5-1.2c-0.3-0.3-1.1-0.3-0.5-0.5c0.6-0.2,1.2-0.3,1.6-0.5s1-1.2,1.4-1.4
	c0.4-0.2,1.2-0.3,1.6-0.5c0.4-0.1,1.1,0,1.3-0.1s0.2-0.7,0.4-0.8c0.2-0.1,0.4-0.3,0.7-0.4s0.7-0.5,1.2-0.6s0.5-0.1,1-0.2
	s0.5-0.2,0.7-0.4c0.1-0.3,0-0.8,0.1-1.1s0.9-0.4,0.1-0.9c-0.8-0.4-1.2-0.2-1.5-0.5c-0.2-0.3-0.3-0.9-0.8-0.2s-0.9,0.7-1.3,0.6
	c-0.4-0.1-1.9-0.6-2.2-0.9c-0.3-0.3-0.3-1-0.8-1c-0.5,0-1.1-0.3-1.3-0.3c-0.3,0-1.1-0.1-1.5-0.5c-0.4-0.4-0.6-0.7-0.9-1.1
	c-0.3-0.4-0.3-1.1-0.9-1.5c-0.6-0.3-0.8-0.9-0.8-0.9s0-0.8-0.2-1s-0.3-0.3-1-0.8s-1.1-1-1.4-0.9c-0.3,0-1-0.2-1.2-0.5
	c-0.3-0.3,0-0.5-0.8-0.5c-0.7,0-1.5-0.4-1.6-0.5c-0.2-0.1,0.4-1-0.7-1.1c-1-0.1-1.6-0.4-2-0.1s-0.7,0.7-1.1,0.5
	c-0.4-0.2-0.9-0.7-1.1-0.7c-0.1-0.1-0.1,0.1,0-0.4c0.1-0.5-0.2-1-0.3-1.3c-0.1-0.3-0.6-0.7-0.6-1c0-0.3,0-0.6,0-0.6l-1.2-0.6l0-0.9
	l-0.8-0.7l-0.4-0.2c0,0-0.2-0.4-0.1-0.5s0.3-0.7,0-1c-0.4-0.3-1.4-0.9-1.6-1c-0.2-0.1-0.8-0.1-0.8-0.6c0-0.5-0.2-0.1,0.1-1
	s0.2-1.9-0.2-2.2c-0.4-0.2-0.5-0.2-1.1-0.4c-0.7-0.2-1-0.4-1.3-0.7c-0.3-0.3-0.7-0.3-0.9-0.5c-0.1-0.2-0.3-0.1-0.7-0.3
	c-0.4-0.1-0.7-0.7-0.7-1c-0.1-0.2-0.4-0.7-1-0.8c-0.5-0.1-1.1-0.4-1.2-0.4s-0.6,0-0.8-0.3s-0.3-1-0.1-1.1s0.3-0.7,0.3-0.7
	s-0.3-0.7-0.2-0.9c0.1-0.2,0.6-0.4,0.5-0.6c-0.1-0.2-0.8,0-1.1-0.3c-0.3-0.3-0.5-0.3-1-0.3c-0.4,0-1,0-1.4,0.3
	c-0.3,0.3-0.5,0.6-0.8,1.1c-0.3,0.5-0.5,1.1-0.6,1.6S65,80.7,65,81c-0.1,0.3-0.4,0.8-0.7,0.5c-0.3-0.3-0.6-0.3-1.3-0.7
	c-0.7-0.4-1.1-0.6-1.2-0.6S61,79,61,79s0-0.1-0.7-0.5s-0.8-0.5-1.3-0.5s-0.7-0.2-0.6-0.8c0.1-0.6,0.4-0.7,0.5-1.2
	c0.1-0.4,0.7-0.2,0.1-0.8s-0.9-0.6-0.9-1.1s0.1-0.9,0.7-1.4c0.5-0.5,0.5-0.6,0.9-1.1c0.3-0.5,0.5-0.5,0.8-0.9s0.2-1.3,0.2-1.7
	s0-0.6,0.3-0.8c0.3-0.1,0.2,0.3,0.7-0.4c0.5-0.6,0.5-0.8,0.6-1.4c0.1-0.5,0.2-1.2,0.2-1.5c0-0.4,0.3-1.1,0.3-1.2s0.7,0.2-0.6-0.3
	c-1.3-0.5-1.5-0.3-2.2-0.3c-0.8,0-1,0-1.4,0c-0.4-0.1-0.6-0.4-0.8,0s-0.5,0.5-1,0.7c-0.4,0.3-0.6,0.9-0.7,1
	c-0.1,0.1-0.6-0.7-0.6-0.7s-0.4-0.3-0.4-0.5s0-0.3-0.5-0.3c-0.4,0-1.9-0.2-2-0.3c-0.1-0.1-0.7-1.2-0.7-1.2s-0.6-0.3-0.8-0.3
	s-0.3,0.1-1.6,0.3c-1.4,0.1-1.5-0.1-1.8-0.5c-0.4-0.4-1.9-0.6-2.1-0.5c-0.2,0.1-1.3,0.3-1.9,0.6s-1.5,0.7-2.2,0.7s-1.9,0.2-1.9,0.2
	s-1.6,0.3-2.2,0.3c-0.6,0.1-1.4,0-1.9,0.3s-0.4,0.4-0.8,0.9c-0.4,0.5-0.7,1.1-1,1.4s-0.9,0.7-1.1,0.7s-1.1-0.4-1.1-0.4
	s-0.5-0.8-0.6-0.8c-0.1,0-0.6-0.3-0.8,0c-0.3,0.3-1,0.1-1.2,0c-0.2-0.1-0.4-0.9-0.5-0.9c-0.1,0-0.2,0.2-0.4-0.5s0.1-1.2-0.2-1.7
	c-0.3-0.5-0.8-0.4-1.1-0.5c-0.3-0.1-0.3-0.7-0.3-1c0-0.4-0.1-0.5-0.3-0.9c-0.2-0.3-0.1-0.7-0.3-1s-0.4-0.4-0.7-0.8
	c-0.3-0.4-0.3-0.5-0.3-1.1s-0.4-1.5,0-1.9c0.4-0.3,0.9-0.5,1-0.8c0.1-0.3,0.4-0.9,0.3-1.3c-0.1-0.4,0.2-0.8,0-1.1
	c-0.2-0.3-0.1-0.8-0.4-1.2s-0.1-1-0.1-1.2s0.1-1.4,0-1.8c-0.2-0.4-0.1-0.9-0.5-1.5c-0.3-0.6-0.2-0.5-0.7-0.9
	c-0.5-0.3-0.3-0.5-0.7-1.2c-0.4-0.7-0.1-1.2-0.8-1.2c-0.7,0-0.7-0.1-1.2,0c-0.5,0.1-1,0.1-1.4,0.3c-0.4,0.2-0.7,0.2-1.1,0.2
	c-0.4,0-1.1-0.4-1.1-0.4s-0.1,0-0.7-0.3s-1.2-0.8-1.2-1.2s-0.8-1-0.8-1s0.1-0.6,0.2-1.1c0-0.5,0-0.7-0.4-0.9
	c-0.4-0.2-0.4-0.5-1.1-0.4c-0.7,0.1-0.9,0.5-1.5,0.4c-0.6-0.1-1.3-0.4-1.4-0.5s-0.1-0.4-0.9-0.5c-0.7-0.1-1.1-0.4-1.7-0.4
	s-0.8,0.3-1.2,0.5c-0.4,0.2-0.8,0.4-1,0.1s-0.4-0.3-0.9-0.3s-0.6,0-1.4,0s-1-0.5-1-0.7c0-0.2,0.5-0.4,0.5-0.9s0.1-0.3-0.3-0.8
	c-0.5-0.5-0.7-0.5-0.5-0.8s0.4-0.7,0.4-0.8c0.1-0.1,0-1.1,0-1.1s0-0.7,0.2-0.9c0.3-0.2,0.4-0.9,0.4-0.9v-0.4h0.9
	c0,0,0.5,0.3,0.7,0.6s0.1,0.6,0.3,0.8S5.6,31,5.6,31s0.6,0.3,0.7,0s0-0.4,0.8-0.4c0.8,0,1.3,0,1.5,0c0.2,0,0.2,0.4,0.7,0
	c0.5-0.4,0.9-0.5,1-1.2s-0.2-1.2,0.2-1.6c0.4-0.3,1.1-0.6,1.4-0.5c0.3,0.1,0.8,0.3,1.1,0.4c0.3,0.2,1.2,0.2,1.4,0.2s0.4-0.1,0.5-0.5
	c0.2-0.4,0-1,0.4-0.9c0.3,0,0.7,0.1,1.1,0.3c0.4,0.2,0.8,0,1.1,0.4s0.8,0.3,1.1,0.5c0.3,0.2,0.5,0.3,1,0.3c0.4,0,1.2,0.1,1.5,0.1
	c0.2,0,0.5-0.3,1.2-0.4s0.7,0,1,0.5c0.3,0.5,0.5,0.4,0.9,0.3c0.4-0.1-0.4-0.4,0.6-0.3c1,0,0.9,0.3,1.1,0.3c0.1,0.1,0.6,0.1,1,0
	c0.4-0.1,0.7-0.5,1.2-0.4s0.1,0.3,0.4,0.4s0.5-0.2,0.9-0.4c0.4-0.2,1.3-0.1,2.1,0.7c0.8,0.8,0.2,0.7,1.3,1c1.1,0.3,0.8,0,1.1,0.3
	s0.5-0.3,0.8-0.4c0.3-0.1,0.5-0.3,1.2-0.5c0.8-0.2,1-0.2,1-0.8c0-0.7,0.1-0.9,0.3-1.7c0.2-0.8,0.6-1.4,1-1.6c0.4-0.3,0-0.6,0.9-1
	c0.9-0.3,0.8-0.7,1.4-0.5s1,0.8,1.1,0.8c0.1,0,0.3,0,1.1,0s1.1,0,1.4,0.3c0.3,0.3,1.1,0.4,1.4,0.5L45.8,25.4z"/>
<g class="st1">
	<path class="st2" d="M148.5,64.1v11.3c0,4.8-0.9,9-2.8,12.7c-1.9,3.7-4.5,6.5-7.9,8.5s-7.4,3-11.9,3c-4.6,0-8.6-0.9-12-2.8
		c-3.5-1.9-6.1-4.5-8-8c-1.9-3.4-2.8-7.4-2.8-12V57.7c0-4.8,0.9-9,2.8-12.7c1.9-3.6,4.5-6.5,7.9-8.5c3.4-2,7.4-3,11.9-3
		c3.7,0,7.1,0.8,10.3,2.4c3.1,1.6,5.7,3.8,7.9,6.7c2.1,2.9,3.5,6.3,4.3,10.1h-9.8c-0.5-2.2-1.4-4-2.7-5.6c-1.3-1.6-2.8-2.7-4.5-3.6
		c-1.7-0.8-3.5-1.2-5.3-1.2c-2.7,0-5,0.6-7,1.9c-2,1.3-3.6,3.1-4.7,5.4c-1.1,2.3-1.6,5-1.6,8v19.1c0,2.8,0.6,5.2,1.7,7.3
		c1.1,2.1,2.7,3.7,4.8,4.9c2.1,1.2,4.4,1.7,7.1,1.7c2.7,0,5-0.6,7-1.8c2-1.2,3.6-2.9,4.7-5.2c1.1-2.3,1.6-5,1.6-8.1v-2.8h-13.1v-8.7
		H148.5z"/>
	<path class="st2" d="M162.3,34.2h9.1v64.7h-9.1V34.2z M168.5,90.3h14.6c4.8,0,8.5-1.2,11.1-3.7c2.6-2.5,3.9-6,3.9-10.5v-19
		c0-4.5-1.3-8-3.9-10.5c-2.6-2.5-6.3-3.7-11.1-3.7h-14.6v-8.6h14.4c5.2,0,9.6,0.9,13.3,2.7c3.7,1.8,6.5,4.4,8.4,7.9
		c1.9,3.5,2.9,7.7,2.9,12.5v18.3c0,4.9-1,9.1-2.9,12.5c-1.9,3.5-4.7,6.1-8.4,7.9s-8.1,2.7-13.3,2.7h-14.3V90.3z"/>
	<path class="st2" d="M221.2,34.2h9.1v64.7h-9.1V34.2z M227.4,90.3H242c4.8,0,8.5-1.2,11.1-3.7c2.6-2.5,3.9-6,3.9-10.5v-19
		c0-4.5-1.3-8-3.9-10.5c-2.6-2.5-6.3-3.7-11.1-3.7h-14.6v-8.6h14.4c5.2,0,9.6,0.9,13.3,2.7c3.7,1.8,6.5,4.4,8.4,7.9
		c1.9,3.5,2.9,7.7,2.9,12.5v18.3c0,4.9-1,9.1-2.9,12.5c-1.9,3.5-4.7,6.1-8.4,7.9c-3.7,1.8-8.1,2.7-13.3,2.7h-14.3V90.3z"/>
</g>
</svg>
