<?xml version="1.0" encoding="utf-8"?>
<!-- Generator: Adobe Illustrator 23.0.6, SVG Export Plug-In . SVG Version: 6.00 Build 0)  -->
<svg version="1.1" id="Layer_1" xmlns="http://www.w3.org/2000/svg" xmlns:xlink="http://www.w3.org/1999/xlink" x="0px" y="0px"
	 viewBox="0 0 500.9 130.3" style="enable-background:new 0 0 500.9 130.3;" xml:space="preserve">
<style type="text/css">
	.st0{fill:#F6F6F6;}
</style>
<path class="st0" d="M42.7,21.6l0.5,0.7c0,0-0.2,0.1,0.5,0.5c0.7,0.4,0.9,0.7,1.3,0.7c0.4-0.1,1.1,0.1,1.4,0
	c0.3-0.1,0.7-0.2,1.3-0.2s0.9,0.2,1.1,0.4c0.2,0.3-0.2-0.3,0.6,0.3c0.8,0.6,0.7,0.6,1.1,0.4c0.4-0.2,0.4-0.2,1.1-1
	c0.7-0.7,0.3-0.8,1.2-1c0.8-0.1,1-0.5,1.4-0.6c0.5-0.2,0.8-0.3,0.7-1.3s-0.4-1,0-1.2c0.4-0.1,0.7,0.1,1.1,0.3
	c0.4,0.2,1.4,0.4,1.9,0.4c0.6,0.1,1.2,0.5,1.4,0.9s0.2,0.2,0.9,0.5c0.6,0.3,1.7,0.5,2.1,0.4c0.4-0.1,1-0.4,1.3,0
	c0.3,0.4,0,0.7,0.3,0.7c0.3,0,0.4-0.2,1.1-0.4s1.1,0.5,1.5-0.3s0-0.7,0.5-0.8c0.4-0.1,0.3,0,1.1,0.3c0.7,0.4,0.5,1,0.5,1.2
	c0,0.2,0,0.3,0.6,0.6c0.6,0.4,1.1,1,1.6,1c0.5,0,1.2-0.4,1.3-0.4s0.9-0.4,1.2-0.6c0.3-0.2,0.7-1.4,0.9-1.6s0.3-0.1,0.9-0.6
	c0.6-0.5-0.3-0.4,0.4-0.9c0.6-0.5,0.9-0.5,1-0.3s0.3,0,0.7,0.2s0,0,0.8,0.6c0.8,0.6,0.9,0.2,0.9,0.1s0.3-0.2,0.3-0.2l0.6,0
	c0,0,0.5,0.4,0.7,0.4c0.2,0,0.9,0.3,1.1,0.3c0.3,0,1.2-0.1,1.4-0.1c0.2,0,0.6-0.4,0.9-0.4c0.3,0,0.3,0.2,0.7,0.3
	c0.4,0.1,0.2,0.1,0.9,0.1c0.6,0.1,1.1,0.1,1.4-0.1c0.3-0.2,0.5-0.3,1-0.4c0.5,0,0.4,0,0.9,0.1c0.4,0.1,1,0.3,1.2,0.3
	c0.2,0-0.1-0.7,0.5-0.2s1,1,1.3,1.1s0.3-0.3,1.5-0.4s1.4,0.3,2-0.3c0.6-0.6,1.1-0.7,1.8-0.7c0.6,0,1-0.3,1.4-0.6
	c0.4-0.3,1.1-0.6,1.3-1.1c0.3-0.4,0.3-0.6,0.8-0.8c0.5-0.2,0.7-0.9,0.7-1.1c0-0.1,0.5-0.1,1.1-0.2c0.5-0.1,0.1-0.3,1,0
	c0.9,0.3,1.3,0.1,1.6-0.2c0.3-0.3,0.7-0.4,1.3-0.4s1.1-0.1,1.5-0.4c0.5-0.2,0.6-0.3,1-0.5c0.4-0.1,0.7-0.6,0.9-0.9
	c0.2-0.3,0-0.4,0.7-0.4c0.7,0,1-0.2,1.5-0.3s1.4-0.6,1.6-0.7c0.2-0.1,0.4-0.2,1.1-0.2s1.5,0.1,1.7,0c0.3-0.1,0.5-0.1,0.8-0.5
	l0.5-0.8l0.5-1.3c0,0,0.4,0.2,1,0c0.6-0.2,0.5-0.2,1.1-0.3s0.8-0.3,0.8-0.7c0-0.4,0.3-0.7,0.8-0.5c0.5,0.2,0.6,0.5,1.1,0.4
	c0.5-0.1,0.2-0.2,0.9-0.5s0.9-0.3,1.4-0.5c0.5-0.3,0.8-0.4,1-0.7c0.2-0.2,0.1-1,0.6-1.3c0.5-0.3,1.1-0.8,1.2-0.8
	c0.1,0,0.4,0.2,0.8-0.2c0.4-0.4,0.7-0.7,1-0.9c0.3-0.2,0.3-0.5,0.5-0.9c0.2-0.3,1.2-0.9,1.4-1c0.2,0,0.8,0,1.1,0.2
	c0.3,0.2,1.2,0.9,1.6,1.2s0.2,1.2,0.2,1.5c0,0.3,0.6,0.5,1.1,0.6c0.4,0-0.2,0.3,0.3,0.8s1.5,0.1,1.6,1s1,0.9,1.4,1.3
	c0.4,0.3,1,0.6,0.9,1.1s-0.2,0.1,0,0.7c0.3,0.6,1.1,0.2,0.6,1.4s-1.4,1-0.7,1.9c0.7,0.9,1.2,1,1.8,1.1c0.5,0.1,1.2,0.3,1.4,0.7
	c0.2,0.4,0.3,0.8,0,1.3s0,1.7,0,1.7s0.4,0.2,0.5,0.4c0.1,0.2,0.4,0.8,0.6,1.1s0.7,1.1,1.1,1.1c0.3,0,0.1-0.3,1.1,0s1.2,0.4,1.7,0.2
	c0.4-0.2,0.9-0.4,1.3-0.2l0.7,1.1v0.5c0,0-0.1,0-0.1,0.4c-0.1,0.4,0,0.7,0.1,1.2c0.2,0.5,0.4,1,1.2,1s1.3,0.2,1.7,0s0.6-0.2,0.7,0.1
	c0.1,0.2-0.2,0.7,0.6,1s1.1,0.4,1.3,0.5c0.2,0.2,0.5,0.6,0.9,0.7s1,0.4,1.3,0.5c0.3,0.1,1.2,0.4,1.8,0.3c0.6-0.1,0.2-0.1,1.2,0
	c0.9,0.1,0.9-0.7,1.2-0.6s1.3,0.2,1.5,0.4c0.2,0.2,1-0.2,1.1,0.3c0.2,0.5,0.6,0.8,1,1.2c0.3,0.4-0.3,0.5,0.3,0.7
	c0.5,0.2,0.8,0.1,1.2,0.5c0.4,0.4,1.1,0.5,1.2,0.7c0.2,0.2,0.5,0.5,1.4,0.3c0.9-0.2,1.8-0.9,1.8-0.9s0.3-0.6,0.9-0.4
	c0.5,0.2,1.2,0.5,1.3,0.6s0.3,0.8,0.5,0.8s0.3-0.6,0.6-0.3c0.2,0.3,0.8,1.3,0.8,1.3s-0.1,0.4-0.5,0.7s-1.1,0.7-1.5,1.1
	c-0.4,0.4-0.4,0.8-0.4,1.3c0,0.4-0.2,0.9-0.1,1.1c0,0.3,0.2,0.4-0.1,0.9c-0.2,0.5-1,0.7-1.4,0.7c-0.4,0-1.1-0.5-1.5,0
	c-0.3,0.5-0.5,0.4-1,0.7c-0.5,0.3-0.9-0.4-1.2,0.3c-0.3,0.7,0,0.7,0,1.2c0,0.5,0.6,0.6,0.6,1s-0.2,0.3-0.9,0.3c-0.7,0-1.6,0-1.8-0.2
	c-0.2-0.1-0.9-0.6-1.2-0.8c-0.4-0.1-1-0.8-1-0.8s0.3-0.2-0.7-0.2s-1.5,0-1.9-0.3c-0.4-0.2-1.9-0.4-1.9-0.4s-0.9-0.1-1.1,0
	c-0.3,0.1-1.1,0.4-1.2,0.9c-0.1,0.4-0.4,1.2-0.4,1.4c0,0.2-0.1,1.5-0.1,1.5s0.1,0.6-0.1,1.1c-0.2,0.5-0.7,0.9-0.7,1.3
	c0,0.4,0.6,0.8,0.5,1.2c-0.1,0.4,0,0.7,0.2,1.5c0.3,0.8,0.3,0.9,0,1.2c-0.3,0.3-0.5,0.7-0.5,1.2c0,0.5,0.3,0.9-0.1,1.1s-0.8,0-1,0.4
	s-0.3,0.5-0.2,0.9c0.1,0.4,0.3,0.9,0.1,1.2c-0.2,0.3-0.1,0.2-0.2,0.7c-0.1,0.5-0.2,0.4-0.3,1c-0.2,0.5-0.3,0.7-0.4,1.1
	s0.3,0.6,0.3,1.2c0,0.5-0.3,0.5-0.5,0.8c-0.2,0.3-0.6,0.7-0.7,0.7c-0.1,0-0.3,0.5-0.1,0.9c0.2,0.3,0.4,1,0.3,1.2s-0.1,0.8-0.7,1.1
	s-1.3,0.7-1.4,0.9c-0.1,0.2-0.5,1.1-0.5,1.2s0.4,1.3,0.6,1.5c0.2,0.2,1,0.3,1,0.6s0.6,0.7,0.7,0.8c0.2,0.1,1.1,0.2,1.3,0.5
	c0.2,0.3,0,0.3,0.8-0.4c0.8-0.7,1.7-0.9,2.1-0.9c0.4,0,0.5-0.2,0.9,0c0.3,0.3,0.9-0.2,1.2-0.3c0.3-0.1,0.3-0.5,1.3-0.5
	s1.1-0.5,1.5-0.6c0.4,0,0.8,0,1.1,0.3c0.3,0.4,0.6,0,1.2,0.2c0.6,0.3,0.4,0.9,1.6,0.7c1.2-0.2,1.3-0.4,1.9-0.6
	c0.6-0.2,0.9-0.7,1.5-0.5c0.5,0.2,0.5,0.1,0.7,1c0.2,0.9,0.3,0.9,0.9,1.2c0.6,0.3,1.5,0.7,1.5,1s0.4,0.7,0.4,1.1
	c0,0.4,0.3,0.5,0.3,1.3c0,0.8-0.3,1.1-0.3,1.3c0,0.1,0.1,0.2,0.2,1s0.6,1.2,0.9,1.6c0.3,0.3,1.1,0.5,1.6,1.4
	c0.5,0.9,1.1,1.5,1.1,1.9c0,0.4,0.2,1.1-0.1,1.8c-0.4,0.7-0.3,0.9-0.7,1.7c-0.4,0.8-1,1.2-1.1,1.3c-0.2,0.2,0,0.4,0.5,0.7
	c0.5,0.2,1.1,0.4,1.3,0.8c0.2,0.4,0.1,0.6,0.4,0.8c0.3,0.2,0.7-0.7,0.8,0c0.1,0.7-0.2,1.1-0.2,1.5c0,0.3-0.3,0.5-0.1,1
	s0.6,1,0.8,1.2c0.2,0.3,0.3,0.5,0.4,1c0.1,0.4,0.6,0.9,0.9,1.2s0.4,0.4,0.4,1s0.1,0.9,0.5,1.4s0.5,0.9,0.6,1.4
	c0.1,0.4,0.2,1.7,0,1.8c-0.2,0.1-1.2,0.5-1.4,0.6c-0.1,0.1-0.4,0.6-0.4,0.9c0,0.3,0.9,0.5,0.2,1.2c-0.7,0.7-1.1,0.4-1.1,0.8
	c0,0.4,0.3,1.1,0,1.5c-0.3,0.4-0.7,0.4-0.9,1.2s0.2,1.6,0.2,2.2c-0.1,0.6,1,0.5,1.3,0.8c0.3,0.3,0.3,0.7,0.7,1.6
	c0.4,0.9,0.4,1.3,0.7,1.7c0.3,0.4,0.1,0.5-0.1,1c-0.1,0.5-0.4,0.4-0.2,1c0.2,0.6,0.9,0.8,1,1.1c0.1,0.3-0.1,0.4,0,0.9
	c0.1,0.5,0.1,0.9,0.4,1.3s1,0.8,0.9,1.4c-0.1,0.6-0.6,1.4-1,1.6c-0.3,0.3-0.6,1-1.2,0.7c-0.5-0.3-2.4,0-2.7,0.2
	c-0.3,0.3-1.1,0.2-1.6,0.5c-0.6,0.3-1,0.4-2.2,0.6c-1.2,0.2-3,0-3.4,0.2s-1.9,0.3-2.7,0.4c-0.8,0.1-2.2,1.3-2.3,1.5
	c-0.2,0.1-2.3,0.9-2.8,1.3c-0.4,0.3-1.4,1.7-1.8,1.9c-0.4,0.2-0.6,0.9-1,1.3c-0.4,0.4-0.2,1.1-1.1,1c-0.9-0.1-1.9-0.4-2.2-0.6
	s-1.2-0.6-1.6-0.9c-0.4-0.2-1.2-0.5-1.9-1c-0.7-0.4-1.3-0.6-1.4-0.7s-0.9-0.4-1.4-0.5c-0.5-0.1-0.5-0.1-1-0.3
	c-0.4-0.2-1.2-0.2-1.6,0.1s-0.4,1-1.2,1s-1.2,0.1-1.5,0c-0.3-0.1-1.2-0.1-1.7-0.1c-0.5,0-1,0.3-1.1,0.3c0,0-0.3-0.7-0.5-0.7
	s-0.7-0.7-0.9-0.9s-0.7-0.6-1.1-0.6c-0.4-0.1-0.9-0.2-1.4-0.2s-1.3-0.1-1.8,0.2s0.1-0.2-1.1,0.5c-1.3,0.7-1.1,0.6-1.1,0.6l-1.4,0.2
	c0,0-0.7-0.4-1-0.2c-0.3,0.3-1.1,0.9-1.5,1s-1.5,0.3-1.9,0.3s-0.9-0.5-0.8-0.7c0.1-0.2-0.7-2.4-0.7-2.4s-0.7-1.1-0.6-1.8
	c0.1-0.7-0.1-0.9-0.5-1.5s0.2-0.6-0.9-1.1c-1-0.4-1-0.5-1.9-0.8s-1.4-0.4-1.8-0.7c-0.4-0.3-1.5-0.8-1.5-1c0-0.1-0.4-0.5-0.7-0.6
	c-0.3-0.1-0.9-0.4-1.1-0.5c-0.2-0.1-0.7-0.3-0.9-0.3s-0.1,0.1-0.7,0.2c-0.6,0-1.1,0.1-1.6,0c-0.5-0.1-0.9-0.2-1.2,0
	c-0.3,0.1-1.2-0.1-1.6,0.1c-0.3,0.3-0.5,0.9-1,1.1c-0.4,0.2-1.2,0.7-2,0.6c-0.8-0.1-1.1-0.1-1.5,0.1c-0.4,0.3-0.9,0.4-1.5,0.7
	c-0.6,0.3-1.2,0.8-1.4,0.6l-0.9,0.3H102c0,0-0.4,0.2-0.8,0.2c-0.4,0.1-1.3,0.5-1.2,0.2c0.1-0.4,0.7-0.7,0.7-1.1
	c0-0.3,0.7-0.3,0.1-1.2c-0.6-0.9-0.6-1.4-1-1.9c-0.4-0.5-0.8-1.4-1.1-2c-0.3-0.6-0.8-0.8-0.9-1.4c-0.1-0.6-0.4-1.5-0.4-2
	c0-0.4,0.4-0.7,0.1-1.1c-0.3-0.4-0.8-1.3-0.8-1.3s-0.6-0.2-1.1-0.1c-0.5,0.1-0.9,0.2-1.2,0.3s-0.8,0.2-1.5,0.6
	c-0.6,0.4-0.7,0.5-1.3,0.2s-1.1-0.8-1.4-1.1c-0.3-0.3-1.1-0.3-0.5-0.5c0.6-0.2,1.1-0.3,1.5-0.5c0.4-0.2,1-1.1,1.3-1.3
	c0.3-0.2,1.2-0.3,1.5-0.4s1,0,1.2-0.1c0.2-0.1,0.2-0.6,0.4-0.7s0.3-0.2,0.7-0.4c0.3-0.2,0.6-0.4,1.1-0.6c0.4-0.1,0.5-0.1,0.9-0.2
	c0.4-0.1,0.5-0.2,0.6-0.4s0-0.8,0.1-1s0.9-0.4,0.1-0.8c-0.7-0.4-1.2-0.2-1.4-0.5c-0.2-0.3-0.3-0.8-0.7-0.2c-0.4,0.6-0.8,0.7-1.2,0.6
	c-0.4-0.1-1.8-0.5-2-0.8c-0.3-0.3-0.3-0.9-0.8-0.9c-0.4,0-1-0.2-1.2-0.3c-0.2,0-1-0.1-1.4-0.5c-0.4-0.4-0.6-0.6-0.9-1.1
	c-0.3-0.4-0.3-1.1-0.9-1.4S88,93.1,88,93.1s0-0.7-0.2-0.9c-0.2-0.2-0.2-0.3-0.9-0.8s-1-0.9-1.3-0.9c-0.3,0-0.9-0.2-1.2-0.5
	c-0.3-0.3,0-0.5-0.7-0.5s-1.4-0.4-1.5-0.4s0.3-0.9-0.6-1c-1-0.1-1.5-0.3-1.8-0.1c-0.3,0.2-0.6,0.6-1,0.4c-0.3-0.2-0.9-0.6-1-0.7
	s-0.1,0.1,0-0.4s-0.2-1-0.2-1.2S77,85.6,77,85.4c0-0.3,0-0.6,0-0.6L76,84.2l0-0.9l-0.8-0.6l-0.4-0.2c0,0-0.2-0.3-0.1-0.5
	c0.1-0.2,0.3-0.6,0-0.9c-0.3-0.2-1.3-0.9-1.5-1c-0.2-0.1-0.7-0.1-0.8-0.6c0-0.5-0.2-0.1,0.1-0.9c0.3-0.8,0.2-1.8-0.2-2
	c-0.4-0.2-0.4-0.2-1.1-0.3c-0.6-0.2-0.9-0.3-1.2-0.6c-0.3-0.3-0.7-0.3-0.8-0.5c-0.1-0.2-0.3-0.1-0.6-0.2c-0.3-0.1-0.6-0.7-0.7-0.9
	c-0.1-0.2-0.4-0.6-0.9-0.8C66.6,73.2,66,73,65.9,73c-0.1,0-0.6,0-0.8-0.3s-0.3-0.9-0.1-1.1c0.1-0.2,0.3-0.6,0.3-0.6
	s-0.3-0.7-0.2-0.9c0.1-0.2,0.6-0.4,0.4-0.5s-0.8,0-1.1-0.3c-0.3-0.2-0.5-0.3-0.9-0.2c-0.4,0-1,0-1.3,0.2c-0.3,0.3-0.5,0.5-0.8,1.1
	c-0.3,0.5-0.5,1-0.5,1.5s-0.4,1.1-0.4,1.3c-0.1,0.2-0.4,0.8-0.7,0.5c-0.3-0.3-0.6-0.3-1.2-0.6c-0.6-0.3-1-0.5-1.1-0.5
	s-0.7-1.2-0.7-1.2s0-0.1-0.6-0.5s-0.7-0.5-1.2-0.5s-0.7-0.2-0.6-0.7s0.4-0.7,0.5-1.1c0.1-0.4,0.6-0.2,0.1-0.8s-0.9-0.6-0.9-1
	c0-0.4,0.1-0.9,0.6-1.3c0.5-0.4,0.5-0.5,0.8-1.1c0.3-0.5,0.5-0.4,0.8-0.8c0.3-0.4,0.2-1.2,0.2-1.6c0-0.4,0-0.6,0.3-0.7
	c0.3-0.1,0.2,0.2,0.6-0.3c0.5-0.6,0.5-0.8,0.6-1.3s0.2-1.1,0.2-1.4c0-0.3,0.3-1,0.3-1.1s0.6,0.2-0.6-0.3c-1.2-0.5-1.4-0.3-2.1-0.3
	s-1,0-1.3,0s-0.5-0.3-0.8,0c-0.2,0.3-0.5,0.4-0.9,0.7c-0.4,0.2-0.5,0.8-0.6,0.9c-0.1,0.1-0.5-0.6-0.5-0.6s-0.4-0.3-0.4-0.5
	c0-0.2,0-0.3-0.4-0.3c-0.4,0-1.7-0.2-1.9-0.3c-0.1-0.1-0.6-1.1-0.6-1.1S47.9,55,47.7,55s-0.2,0.1-1.5,0.2s-1.4-0.1-1.7-0.5
	s-1.7-0.5-1.9-0.5c-0.2,0.1-1.2,0.3-1.8,0.6s-1.4,0.6-2.1,0.6s-1.8,0.2-1.8,0.2s-1.5,0.2-2,0.3c-0.5,0.1-1.3,0-1.7,0.3
	c-0.5,0.3-0.3,0.4-0.7,0.9c-0.4,0.5-0.6,1-1,1.3s-0.8,0.7-1.1,0.7s-1-0.4-1-0.4s-0.5-0.7-0.6-0.8c-0.1,0-0.5-0.2-0.8,0
	c-0.2,0.2-1,0.1-1.1,0c-0.2-0.1-0.3-0.8-0.4-0.8s-0.2,0.2-0.3-0.4s0.1-1.2-0.2-1.6c-0.3-0.4-0.7-0.3-1.1-0.4s-0.3-0.6-0.3-1
	s-0.1-0.5-0.3-0.8s-0.1-0.6-0.3-0.9s-0.4-0.4-0.6-0.8C23.1,50.7,23,50.6,23,50c0-0.5-0.4-1.4,0-1.7c0.4-0.3,0.9-0.5,0.9-0.7
	c0.1-0.2,0.3-0.9,0.3-1.2c-0.1-0.3,0.2-0.7,0-1s-0.1-0.8-0.4-1.1s-0.1-0.9-0.1-1.1s0.1-1.3,0-1.6c-0.2-0.4-0.1-0.8-0.4-1.4
	c-0.3-0.6-0.2-0.5-0.7-0.8s-0.3-0.5-0.6-1.2s-0.1-1.1-0.8-1.2s-0.6-0.1-1.2,0c-0.5,0.1-1,0.1-1.3,0.2c-0.3,0.2-0.7,0.2-1.1,0.2
	s-1-0.4-1-0.4s-0.1,0-0.7-0.3s-1.1-0.8-1.1-1.1s-0.7-0.9-0.7-0.9s0.1-0.5,0.2-1c0-0.4,0-0.7-0.4-0.9c-0.4-0.2-0.4-0.5-1.1-0.4
	c-0.7,0.1-0.8,0.4-1.4,0.3c-0.6-0.1-1.2-0.3-1.3-0.4C9.9,32.3,9.9,32,9.3,32c-0.7-0.1-1.1-0.4-1.6-0.4c-0.5,0-0.7,0.3-1.2,0.5
	c-0.4,0.2-0.8,0.3-1,0.1c-0.2-0.2-0.3-0.3-0.8-0.3s-0.5,0-1.3,0c-0.7,0-1-0.5-1-0.7s0.4-0.3,0.4-0.8s0.1-0.3-0.3-0.7
	S2,29.2,2.1,28.9c0.1-0.3,0.3-0.6,0.4-0.7c0.1-0.1,0-1.1,0-1.1s0-0.6,0.2-0.8s0.3-0.8,0.3-0.8v-0.4h0.8c0,0,0.5,0.3,0.6,0.5
	c0.1,0.3,0.1,0.5,0.3,0.7c0.1,0.2,0.5,0.4,0.5,0.4S6,27,6,26.8c0-0.2,0-0.3,0.7-0.4c0.8,0,1.2,0,1.4,0c0.2,0,0.2,0.3,0.6,0
	c0.5-0.3,0.9-0.5,0.9-1.1c0.1-0.6-0.2-1.2,0.2-1.5s1.1-0.6,1.3-0.4c0.3,0.1,0.8,0.2,1.1,0.4c0.3,0.2,1.1,0.2,1.3,0.2
	s0.3-0.1,0.5-0.5s0-0.9,0.3-0.9c0.3,0,0.6,0.1,1,0.3c0.4,0.2,0.7,0,1,0.3c0.3,0.3,0.8,0.2,1,0.4c0.2,0.2,0.5,0.2,0.9,0.2
	c0.4,0,1.2,0.1,1.4,0.1c0.2,0,0.5-0.3,1.2-0.4c0.6-0.1,0.6,0,0.9,0.5c0.3,0.5,0.4,0.4,0.8,0.3c0.4-0.1-0.4-0.3,0.5-0.3
	c1,0,0.9,0.2,1,0.3c0.1,0.1,0.5,0.1,0.9,0c0.4-0.1,0.6-0.5,1.2-0.4c0.5,0.1,0.1,0.2,0.4,0.4c0.3,0.2,0.4-0.2,0.8-0.4
	c0.4-0.2,1.2-0.1,1.9,0.6c0.7,0.7,0.2,0.6,1.2,0.9c1,0.3,0.7,0,1,0.3c0.3,0.3,0.5-0.3,0.8-0.3c0.3-0.1,0.4-0.2,1.2-0.4
	c0.7-0.2,0.9-0.2,1-0.8c0-0.6,0.1-0.8,0.3-1.6c0.2-0.7,0.5-1.3,0.9-1.5s0-0.6,0.9-0.9c0.9-0.3,0.7-0.6,1.3-0.4
	c0.5,0.2,0.9,0.7,1.1,0.7c0.1,0,0.3,0,1,0s1,0,1.3,0.2c0.3,0.2,1.1,0.3,1.3,0.5L42.7,21.6z"/>
<g>
	<path d="M116.3,85.4c0,1.5,0.6,2.7,2.9,2.7c1.5,0,2.5-0.4,3.7-1c0.2-0.2,0.4-0.2,0.4-0.4c0-1-0.6-2.3-1.7-3.3c-1-1-2.3-2.1-3.5-2.7
		c-0.4-0.2-0.6-0.4-0.6-0.6c0-0.4,0.4-1.2,0.8-2.1h0.2c1.5,0.8,2.9,2.1,4.1,3.5c1,1.2,1.7,2.7,1.7,4.1c0,1-0.2,2.1-0.8,3.1
		c-1.5,0.8-3.1,1.7-4.8,1.7c-2.1,0-3.3-1-3.3-3.7c0-0.2,0-0.6,0-1.2H116.3z"/>
	<path d="M144.3,85.8c-2.1,0-3.5-0.6-4.1-1.9c-0.2-0.4-0.2-0.8-0.2-1.2c0-1.2,0.4-2.5,1.2-3.5c0.6-0.6,1.5-1.2,2.3-1.2
		c1.5,0,2.5,1.2,3.3,3.5c0.4,1.2,0.8,2.5,0.8,4.1c0,1-0.2,1.9-0.8,2.5c-1.2,0.8-2.5,1.2-3.7,1.5c-2.1,0.6-4.6,1-6.8,1
		c-2.5,0-4.4-0.4-6-1.2c-1.5-1-2.5-2.7-2.5-4.8c0-1.5,0.2-2.9,1-4.1l0.6,0.2c-0.4,1-0.4,1.9-0.4,2.7c0,1.7,0.8,3.1,2.3,3.9
		c1.5,0.8,3.3,1,5.6,1c2.1,0,3.9-0.2,6-0.8c0.8-0.2,1.7-0.4,2.3-0.8c0.4-0.2,1.2-0.4,1.2-0.8c0-0.2,0-0.2,0-0.4
		C145.5,85.8,144.9,85.8,144.3,85.8z M142,72.6c0.6,0.6,1.5,1.2,2.1,1.9c-0.4,0.6-0.8,1.2-1.5,1.7c-0.6-0.6-1.5-1.2-2.1-1.9
		C141,73.6,141.4,73.2,142,72.6z M143,80.4c-1.2,0-2.1,0.8-2.1,1.5c0,1.5,2.3,1.9,5,1.9C145.5,82.1,144.5,80.4,143,80.4z"/>
	<path d="M159.2,90.8c-4.8,0-8.5-1.9-8.5-6c0-1.5,0.2-2.9,1-4.1l0.6,0.2c-0.4,1-0.4,1.9-0.4,2.7c0,3.5,3.5,5,7.9,5
		c2.1,0,3.9-0.2,6-0.8c0.8-0.2,1.7-0.4,2.3-0.6c0.2,0,0.2-0.2,0.2-0.2c0-0.8-0.8-2.5-1.7-4.4c0.4-0.8,0.8-1.5,1.2-2.1l0,0
		c0.8,1.5,1.7,3.5,1.7,5.4c0,1.2-0.4,2.1-0.8,2.9C167.1,89.8,162.7,90.8,159.2,90.8z M158.6,79.2c-0.6-0.6-1.2-1.2-2.1-1.9
		c0.4-0.6,1-1.2,1.5-1.7c0.6,0.6,1.2,1,2.1,1.9C159.4,78.4,159,78.8,158.6,79.2z M161.9,79c-0.6-0.6-1.2-1.2-2.1-1.9
		c0.4-0.6,1-1.2,1.5-1.7c0.6,0.6,1.2,1,2.1,1.9C162.7,78.2,162.3,78.6,161.9,79z"/>
	<path d="M178.5,81.3l1.2,2.3c0.4,0.8,0.8,1.9,0.8,3.3v1.9c0,1.5-0.8,3.1-2.3,4.8c-1,1-2.1,1.7-2.9,1.7c-1.2,0-2.7-0.4-4.6-1.2
		l0.2-0.6c0.6,0.2,1.2,0.4,1.9,0.4c2.5,0,5-2.1,6.2-4.8c0.2-0.2,0.2-0.6,0.2-0.8c0-0.2-0.2-0.6-0.2-0.8c-0.6-1.5-1.2-2.7-2.1-3.7
		C177.4,82.5,177.8,81.9,178.5,81.3L178.5,81.3z"/>
	<path d="M195.2,87.1c-1.9,0-2.9,0.8-2.9,1.2c0,1.9,1.2,5.2,2.3,8.9c0.2,0.4,0.2,1,0.2,1.5c0,0.8-0.2,1.7-0.4,2.5H194
		c0-2.1-1.5-5.6-2.5-9.1c-0.2-0.6-0.4-1.5-0.4-2.1c0-0.8,0.2-1.5,0.4-2.3c0.4-1,0.8-1.9,1.7-2.3c-0.2-0.8-0.2-1.7-0.2-2.3
		c0-0.6,0.4-1.7,1-2.1c0.4-0.4,1-0.6,1.7-0.6c0.8,0,1.5,0.2,2.3,0.8c1,0.8,2.1,2.1,2.7,3.3c0.2,0.2,0.2,0.8,0.2,1
		c0,0.6-0.4,1.2-0.6,1.9C198.4,87.3,196.7,87.1,195.2,87.1z M198.6,85.2c-1-1.2-2.1-2.7-3.7-2.7c-0.4,0-0.6,0-1,0.2v0.8
		c-0.2,0.6-0.2,1.2-0.4,1.7c0.6-0.2,1.5-0.4,2.3-0.4C196.5,85,197.5,85.2,198.6,85.2L198.6,85.2z"/>
	<path d="M220.1,85.8c-2.1,0-3.5-0.6-4.1-1.9c-0.2-0.4-0.2-0.8-0.2-1.2c0-1.2,0.4-2.5,1.2-3.5c0.6-0.6,1.5-1.2,2.3-1.2
		c1.5,0,2.5,1.2,3.3,3.5c0.4,1.2,0.8,2.5,0.8,4.1c0,1-0.2,1.9-0.8,2.5c-1.2,0.8-2.5,1.2-3.7,1.5c-2.1,0.6-4.6,1-6.8,1
		c-2.5,0-4.4-0.4-6-1.2c-1.5-1-2.5-2.7-2.5-4.8c0-1.5,0.2-2.9,1-4.1l0.6,0.2c-0.4,1-0.4,1.9-0.4,2.7c0,1.7,0.8,3.1,2.3,3.9
		c1.5,0.8,3.3,1,5.6,1c2.1,0,3.9-0.2,6-0.8c0.8-0.2,1.7-0.4,2.3-0.8c0.4-0.2,1.2-0.4,1.2-0.8c0-0.2,0-0.2,0-0.4
		C221.4,85.8,220.7,85.8,220.1,85.8z M217.8,72.6c0.6,0.6,1.5,1.2,2.1,1.9c-0.4,0.6-0.8,1.2-1.5,1.7c-0.6-0.6-1.5-1.2-2.1-1.9
		C217,73.6,217.4,73.2,217.8,72.6z M218.9,80.4c-1.2,0-2.1,0.8-2.1,1.5c0,1.5,2.3,1.9,5,1.9C221.4,82.1,220.3,80.4,218.9,80.4z"/>
	<path d="M237.3,92.5c-0.8,2.1-3.3,3.5-5.8,3.5c-3.3,0-5-2.5-5-5.6c0-1.9,0.6-3.7,1.2-5l0.6,0.4c-0.4,1-0.8,2.3-0.8,3.3
		c0,2.9,2.1,4.4,4.4,4.4c2.1,0,4.1-1.7,5-3.3c-0.2-2.1-0.8-3.9-1.9-5.6c0.4-0.6,0.8-1.2,1.2-1.9h0.2c0.8,1.2,1.2,2.5,1.5,4.4l0,0
		c1-1.5,2.1-3.1,3.5-4.4c1-1,2.7-1.9,4.1-1.9c1.7,0,2.7,0.8,3.3,1.9c0.4,0.6,0.4,1.5,0.4,2.1c0,0.6-0.2,1-0.4,1.7
		c-0.4,1.5-1.7,2.5-3.5,3.1c-1,0.4-2.5,0.6-4.4,0.6c-0.6,0-1.7-0.2-2.9-0.4C237.7,90.8,237.5,91.8,237.3,92.5z M241.9,87.9
		c1.7,0,3.3-0.4,4.6-1c0.8-0.4,1.5-0.8,1.5-1.2c-0.2-1.5-1.5-2.7-2.9-2.7c-2.1,0-4.4,1.9-6.2,4.6C239.2,87.7,240.4,87.9,241.9,87.9z
		"/>
	<path d="M263,72.4c0,1.2,0.6,2.7,1.5,3.9c-0.4,0.4-0.6,0.6-1.2,1c0,2.3,0.2,5,0.2,7.3c0,1.2,0,2.7-0.8,5.2
		c-0.6,0.8-1.2,1.5-2.1,1.9c-1,0.8-2.5,1-3.7,1c-1.5,0-2.7-0.6-3.5-1.5c-0.8-0.8-1.2-2.3-1.2-3.9c0-1.5,0.4-2.9,1.2-4.4l0.6,0.2
		c-0.4,1-0.8,2.1-0.8,3.1s0.2,1.9,0.8,2.7c0.6,1,1.9,1.5,3.1,1.5c1.2,0,2.1-0.4,3.1-0.8c0.8-0.4,1.5-1,1.9-1.7c0-0.4,0-0.8,0-1
		c0-2.7-0.2-5.8-0.4-9.7c0-0.6-0.2-1.5-0.2-2.3c0-0.4,0-1,0.4-1.5C262.2,73,262.6,72.6,263,72.4L263,72.4z"/>
	<path d="M280.4,88.3c-2.1,0-3.7-1-3.7-3.3c0-1.2,0.4-2.1,1-2.9c0.8-0.8,1.7-1.5,2.5-1.5c1,0,1.9,0.6,2.7,2.1c0.6,1.2,1,2.9,1,4.8
		c0,1.7-0.4,3.1-1.2,4.6c-1.5,2.3-3.1,3.3-4.6,3.3c-1.7,0-3.3-0.6-5-1.7l0.2-0.6c0.8,0.4,1.7,0.6,2.5,0.6c1.7,0,3.5-0.8,5.2-2.7
		c0.8-0.8,1.5-1.9,1.7-2.9C282,88.3,281.2,88.3,280.4,88.3z M279.8,82.7c-0.8,0-1.9,0.8-1.9,1.5c0,1,1.5,1.9,2.9,1.9
		c0.6,0,1.2,0,1.9-0.2C282.3,84.2,281.2,82.7,279.8,82.7z"/>
	<path d="M297.8,72.4c0,1.2,0.6,2.7,1.5,3.9c-0.4,0.4-0.6,0.6-1.2,1c0,2.3,0.2,5,0.2,7.3c0,1.2,0,2.7-0.8,5.2
		c-0.6,0.8-1.2,1.5-2.1,1.9c-1,0.8-2.5,1-3.7,1c-1.5,0-2.7-0.6-3.5-1.5c-0.8-0.8-1.2-2.3-1.2-3.9c0-1.5,0.4-2.9,1.2-4.4l0.6,0.2
		c-0.4,1-0.8,2.1-0.8,3.1s0.2,1.9,0.8,2.7c0.6,1,1.9,1.5,3.1,1.5s2.1-0.4,3.1-0.8c0.8-0.4,1.5-1,1.9-1.7c0-0.4,0-0.8,0-1
		c0-2.7-0.2-5.8-0.4-9.7c0-0.6-0.2-1.5-0.2-2.3c0-0.4,0-1,0.4-1.5C297,73,297.4,72.6,297.8,72.4L297.8,72.4z"/>
	<path d="M302.3,90.4c0.2-1,0.2-2.3,0.2-3.5v-1.7c0-3.1-0.4-7.9-0.6-10.8c0.4-0.6,1.2-1.5,1.7-1.9h0.2c0.4,3.7,0.4,8.3,0.4,12.2
		c0,1,0,2.1-0.2,2.9c0,1-0.6,1.7-1.5,2.9L302.3,90.4z"/>
	<path d="M321,83.5c-0.4-1.5-0.8-2.3-1.2-2.3c-0.8,0-1.9,0.4-2.7,1.2c-1,0.8-1.7,1.7-1.7,2.3c0,1.5,4.6,1.5,5.8,2.3
		c0.4,0.4,0.8,1,0.8,1.9c0,0.8-0.6,2.5-1.5,3.3c-1.7,1.7-4.4,2.9-6.6,2.9c-4.1,0-6-2.7-6-6.4c0-1.7,0.4-3.1,0.8-4.4l0.6,0.2
		c-0.4,1.2-0.6,2.1-0.6,3.1c0,3.3,2.3,5,5.2,5c1,0,2.9-0.4,4.8-1.5c1-0.6,2.1-1.5,2.1-1.7c0-0.6-1.2-0.8-2.7-1
		c-1.5-0.2-2.7-0.6-3.1-1c-0.4-0.4-0.6-0.8-0.6-1.7c0-1.7,0.8-3.3,1.9-4.6c1.2-1.2,3.1-2.5,4.4-2.5c0.6,0,1,0.2,1.2,0.8
		c0.2,0.6,0.4,1.2,0.4,1.7c0,0.4-0.4,1.2-0.6,1.9L321,83.5z M312.7,100.5c-0.6-0.6-1.2-1.2-2.1-1.9c0.4-0.6,1-1.2,1.5-1.7
		c0.6,0.6,1.2,1,2.1,1.9C313.5,99.7,313.3,100.1,312.7,100.5z M316,100.3c-0.6-0.6-1.2-1.2-2.1-1.9c0.4-0.6,1-1.2,1.5-1.7
		c0.6,0.6,1.2,1,2.1,1.9C317.1,99.3,316.6,99.9,316,100.3z"/>
	<path d="M333.6,90.8c-4.8,0-8.5-1.9-8.5-6c0-1.5,0.2-2.9,1-4.1l0.6,0.2c-0.4,1-0.4,1.9-0.4,2.7c0,3.5,3.5,5,7.9,5
		c2.1,0,3.9-0.2,6-0.8c0.8-0.2,1.7-0.4,2.3-0.6c0.2,0,0.2-0.2,0.2-0.2c0-0.8-0.8-2.5-1.7-4.4c0.4-0.8,0.8-1.5,1.2-2.1l0,0
		c0.8,1.5,1.7,3.5,1.7,5.4c0,1.2-0.4,2.1-0.8,2.9C341.5,89.8,337.1,90.8,333.6,90.8z M333,79.2c-0.6-0.6-1.2-1.2-2.1-1.9
		c0.4-0.6,1-1.2,1.5-1.7c0.6,0.6,1.2,1,2.1,1.9C333.8,78.4,333.4,78.8,333,79.2z M336.3,79c-0.6-0.6-1.2-1.2-2.1-1.9
		c0.4-0.6,1-1.2,1.5-1.7c0.6,0.6,1.2,1,2.1,1.9C337.1,78.2,336.9,78.6,336.3,79z"/>
	<path d="M368,72.4c-0.2,0.8,0.4,2.3,1.5,3.9c-0.4,0.4-0.8,0.6-1.2,1c0.2,2.5,0.2,5,0.2,7.3c0,1-0.6,2.9-1.5,3.9
		c-2.1,1.2-4.8,1.9-6.6,1.9c-2.3,0-3.7-0.6-4.6-1.7s-1-2.1-1-3.1c0-1.5,0.4-2.7,0.8-3.9l0.6,0.2c-0.2,0.6-0.4,1.5-0.4,2.3
		c0,1.7,0.4,2.7,1.7,3.3c1,0.6,2.1,0.8,3.1,0.8c1.9,0,3.7-0.4,5.8-1.5c0.4-0.2,0.6-0.6,0.6-2.5c0-1.9-0.2-4.6-0.4-7.3
		c0-1-0.2-1.9-0.2-2.5c0-0.8,0.2-1.2,0.4-1.7C367.2,72.8,367.6,72.6,368,72.4L368,72.4z M362.8,78L362.8,78
		c-1.2,0.4-1.9,0.8-2.1,1.7h1.5c1.2,0,1.7,0.4,1.7,1.2c0,1.7-1.7,2.5-3.1,2.5c-0.4,0-0.8,0-1,0l-1.2-0.6v-0.2c2.3,0,4.6-0.6,4.6-1.2
		c0-0.2-0.4-0.2-1.7-0.2c-1,0-1.5,0-1.5-0.2v-0.6c0-0.8,0.4-1.5,1-2.5c0.6-0.8,1.5-1.5,1.9-1.5c0.2,0,0.4,0.2,0.4,0.4
		C363.2,76.9,363,77.5,362.8,78L362.8,78z"/>
	<path d="M378,88.3c-2.1,0-3.7-1-3.7-3.3c0-1.2,0.4-2.1,1-2.9c0.8-0.8,1.7-1.5,2.5-1.5c1,0,1.9,0.6,2.7,2.1c0.6,1.2,1,2.9,1,4.8
		c0,1.7-0.4,3.1-1.2,4.6c-1.5,2.3-3.1,3.3-4.6,3.3c-1.7,0-3.3-0.6-5-1.7l0.2-0.6c0.8,0.4,1.7,0.6,2.5,0.6c1.7,0,3.5-0.8,5.2-2.7
		c0.8-0.8,1.5-1.9,1.7-2.9C379.4,88.3,378.6,88.3,378,88.3z M377.1,82.7c-0.8,0-1.9,0.8-1.9,1.5c0,1,1.5,1.9,2.9,1.9
		c0.6,0,1.2,0,1.9-0.2C379.6,84.2,378.6,82.7,377.1,82.7z"/>
	<path d="M390.2,81.3l1.2,2.3c0.4,0.8,0.8,1.9,0.8,3.3v1.9c0,1.5-0.8,3.1-2.3,4.8c-1,1-2.1,1.7-2.9,1.7c-1.2,0-2.7-0.4-4.6-1.2
		l0.2-0.6c0.6,0.2,1.2,0.4,1.9,0.4c2.5,0,5-2.1,6.2-4.8c0.2-0.2,0.2-0.6,0.2-0.8c0-0.2-0.2-0.6-0.2-0.8c-0.6-1.5-1.2-2.7-2.1-3.7
		C389.4,82.5,389.8,81.9,390.2,81.3L390.2,81.3z"/>
	<path d="M403.4,84.4c-2.1-0.8-3.3-1-4.8-1c-1,0-1.7,0.4-2.3,0.8l0.4,1.5l-0.4,1.5h-0.2l-1-2.7c0.2-1.9,1.7-3.1,3.7-3.1
		c1.2,0,3.1,0.4,5.8,1.5c0.8,0.4,1.7,0.6,2.9,0.6h1.5l0,0l-1,1.7c-1.2,0.2-3.9,0.8-4.6,1.2c-3.7,1.5-6.4,3.5-6.4,5.8
		c0,3.5,3.7,5.8,8.7,5.8c1.7,0,3.1-0.2,4.6-0.4v0.2c-0.8,0.8-1.9,1.5-2.9,2.1c-0.8,0.2-2.1,0.4-3.3,0.4c-4.6,0-8.5-2.3-8.5-7
		C395.8,88.9,399.3,85.6,403.4,84.4L403.4,84.4z M403.2,90.2c0.6,0.6,1.5,1.2,2.1,1.9c-0.4,0.6-0.8,1.2-1.5,1.7
		c-0.6-0.6-1.5-1.2-2.1-1.9C402.4,91.2,402.8,90.6,403.2,90.2z"/>
	<path d="M421.9,83.3c0.4,0.8,0.8,1.7,1,2.7c0.2,0.6,0.4,1.5,1.5,1.5c0.4,0,0.8-0.2,1.2-0.4c0.4-0.2,0.8-0.6,1-1.2l0.4-1.7l1-0.6
		l0,0c-0.2,0.6-0.2,1.2-0.2,1.7c0,1.5,1,2.1,1.9,2.1c0.4,0,0.8-0.2,0.8-0.8s-0.2-1.9-0.6-2.9c0.4-0.6,1-1.2,1.5-1.7l0,0
		c0.2,1.2,0.4,2.5,0.4,3.3c0,0.8-0.2,1.7-0.6,2.3c-0.4,1-1.5,2.1-2.5,2.1c-0.8,0-1.7-0.4-2.3-1.5l0,0c-0.6,0.8-1.5,1.7-2.9,1.7h-0.4
		c0,1-0.2,1.9-0.6,2.7c-0.8,2.1-3.5,3.3-5.8,3.3c-3.3,0-5-2.3-5-5.4c0-1.9,0.6-3.7,1.2-5l0.6,0.4c-0.4,1-0.8,2.3-0.8,3.3
		c0,2.9,2.1,4.1,4.4,4.1c2.1,0,4.8-1.7,5.2-3.3c-0.2-2.1-0.8-2.9-1.9-4.8C421,84.6,421.5,84,421.9,83.3L421.9,83.3z"/>
	<path d="M444,90.8c-4.8,0-8.5-1.9-8.5-6c0-1.5,0.2-2.9,1-4.1l0.6,0.2c-0.4,1-0.4,1.9-0.4,2.7c0,3.5,3.5,5,7.9,5
		c2.1,0,3.9-0.2,6-0.8c0.8-0.2,1.7-0.4,2.3-0.6c0.2,0,0.2-0.2,0.2-0.2c0-0.8-0.8-2.5-1.7-4.4c0.4-0.8,0.8-1.5,1.2-2.1l0,0
		c0.8,1.5,1.7,3.5,1.7,5.4c0,1.2-0.4,2.1-0.8,2.9C451.9,89.8,447.4,90.8,444,90.8z M443.2,79.2c-0.6-0.6-1.2-1.2-2.1-1.9
		c0.4-0.6,1-1.2,1.5-1.7c0.6,0.6,1.2,1,2.1,1.9C444,78.4,443.8,78.8,443.2,79.2z M446.7,79c-0.6-0.6-1.2-1.2-2.1-1.9
		c0.4-0.6,1-1.2,1.5-1.7c0.6,0.6,1.2,1,2.1,1.9C447.6,78.2,447.1,78.6,446.7,79z"/>
	<path d="M457.7,90.4c0.2-1,0.2-2.3,0.2-3.5v-1.7c0-3.1-0.4-7.9-0.6-10.8c0.4-0.6,1.2-1.5,1.7-1.9h0.2c0.4,3.7,0.4,8.3,0.4,12.2
		c0,1,0,2.1-0.2,2.9c0,1-0.6,1.7-1.5,2.9L457.7,90.4z"/>
	<path d="M473.5,80c1.2,2.3,1.9,4.6,1.9,7c0,1.7-0.6,3.7-1.2,4.4c-1.5,1.7-3.7,2.7-5.8,2.7c-3.3,0-5.4-2.3-5.4-5.2
		c0-2.3,0.6-3.7,1.5-5l0.6,0.4c-0.6,1-1,2.5-1,3.3c0,1.5,0.4,2.5,1.2,3.1s2.1,1.2,3.3,1.2c1.5,0,3.1-0.6,4.1-1.5
		c0.8-0.6,1.2-1,1.2-1.5c0-1.2-0.2-2.3-0.6-3.1c-0.4-1.5-0.8-2.5-1.5-3.5C472.4,81.5,472.8,80.9,473.5,80L473.5,80z M468.7,74.4
		c0.6,0.6,1.5,1.2,2.1,1.9c-0.4,0.6-0.8,1.2-1.5,1.7c-0.6-0.6-1.5-1.2-2.1-1.9C467.7,75.7,468.3,75.1,468.7,74.4z"/>
</g>
<g>
	<path d="M100.4,62.9L98.3,65c-0.6,0.6-1.2,0.8-1.9,1c-0.4,0-0.4,0-0.6,0c-0.6,0-1.2-0.2-1.7-0.8c-0.6-0.6-0.8-1.5-0.8-2.5
		c0-0.8,0.2-1.7,0.6-2.5c0.2-0.6,0.4-1,0.8-1.5c0.2-0.4,0.6-0.8,1-1.5c0.2-0.2,0.6-0.6,0.8-0.8c0.4-0.4,0.4-0.6,0.6-0.6
		c0.4-0.6,0.8-1,1-1.2c0.2-0.4,0.4-0.8,0.4-1.2c0.2-0.6,0.2-1.2,0.2-1.7c0-0.6-0.2-1.7-0.4-2.7c0-0.4-0.2-0.8-0.6-1.2
		c-0.4-0.4-0.6-0.6-1.2-0.6c-0.4,0-0.6,0-0.8,0.2C95.2,47.6,95,48,95,48.6c0,0.2,0,0.6,0.2,0.8c0.4,1,0.6,1.9,0.8,2.5
		c0.2,0.4,0.4,0.8,0.8,0.8V53l-1,1h-0.4c-0.4-0.2-0.8-0.4-1.2-1c-0.4-0.6-0.6-1-0.8-1.7v-0.2c0-0.2,0-0.2,0-0.4s0-0.4,0-0.4
		c0-0.4,0-0.8,0.2-1l3.1-3.1l0.2-0.2c0.2,0,0.2,0,0.4,0s0.2,0,0.4,0c0.4,0,0.8-0.2,1.2-0.2c0.8,0,1.2,0.2,1.7,0.6
		c0.4,0.6,0.6,1.2,0.6,1.9l-1,4.4l-0.6,2.3c0.6,0.2,1.2,0.4,1.5,0.6c0.4,0.2,0.8,0.6,1,1c0.2,0.4,0.4,1,0.4,1.5
		c0,0.6-0.2,1.5-0.6,2.5C101.6,61.3,101,62.1,100.4,62.9z M98.7,64l0.8-0.8c0.4-0.4,0.8-1,1-1.7c0.2-0.6,0.4-1.5,0.4-2.1
		c0-1-0.2-1.7-0.8-2.3c-0.4-0.4-0.8-0.6-1.2-0.8c-0.4,0.4-0.8,0.6-1.2,0.8c-0.8,0.6-1.2,1.2-1.7,1.9c-0.6,1-0.8,2.1-0.8,2.9
		c0,0.8,0.2,1.5,0.6,2.1c0.2,0.2,0.2,0.2,0.6,0.4c0.2,0.2,0.6,0.2,0.8,0.2C97.7,64.6,98.3,64.4,98.7,64z"/>
	<path d="M107.4,47.2l1.2-1.2c0.4-0.4,0.8-0.6,1.5-0.6c0.4,0,0.6,0.2,1,0.4c0.2,0.2,0.4,0.6,0.6,0.8l0.4,1.9l1.7-2.1
		c0.4-0.4,0.6-0.6,1-0.8h0.2h0.2c0.2,0,0.2,0,0.4,0c0.2,0,0.2,0,0.4,0c0.8,0.4,1.5,1.7,1.5,3.7c0,0.8,0,1.7-0.2,2.5
		c-0.4,1-0.6,1.9-0.6,2.7c-0.2,0.8-0.4,1.7-0.6,2.5c-0.2,0.6-0.4,1.2-0.8,2.1c-0.4,0.8-0.8,1.5-1.2,2.3c-0.4,0.8-1,1.5-1.5,2.1
		c-1,1.2-2.3,1.9-3.7,2.3c-0.6,0.2-1.2,0.2-1.9,0.2c-0.8,0-1.5-0.2-2.1-0.6c-0.4-0.2-0.8-0.6-1.2-1l0.6-2.7c0.6,0.6,1,1,1.5,1.5
		c0.8,0.6,1.7,0.8,2.7,0.8c0.4,0,0.8,0,1.2-0.2c0.6-0.2,1.2-0.6,2.1-1.5c0.8-0.8,1.5-1.7,2.1-2.5c0.4-0.8,0.8-1.7,1-2.9
		s0.6-2.7,0.6-4.1c0,0,0-0.2,0-0.4s0-0.4,0-0.8c0-0.4,0-0.6,0-0.8s0-0.6,0-1c0-1,0-1.7-0.2-1.9c-0.2-0.4-0.6-0.8-1-0.8
		c-0.2,0-0.4,0-0.6,0.2l-3.1,4.6l-1-2.9c-0.2-0.4-0.4-0.8-0.4-1c-0.2,0-0.6-0.2-0.8-0.2c0,0-0.2,0-0.2,0.2c0,0.2-0.2,0.2-0.2,0.2
		l-0.2,0.2l-1.7,2.5c0-0.6-0.2-1-0.4-1.7c-0.2-0.4-0.6-0.8-1-1.2c-0.4-0.4-0.8-0.2-1-0.2h-0.4l1.2-1.5l0,0l0,0l0,0
		c0.4-0.2,0.6-0.2,0.8-0.2c0.4,0,0.6,0.2,1,0.4c0.2,0.2,0.4,0.4,0.6,0.6C107.2,47,107.4,47.2,107.4,47.2z"/>
	<path d="M126.1,46.6c0.4-0.4,0.6-0.6,1-0.8c0.4,0,0.8-0.2,1.2-0.2c0.8,0,1.2,0.2,1.7,0.6c0.4,0.4,0.6,1,0.6,1.9l0.4,5.8l-2.3,1
		l-0.8-6c0-0.4-0.2-0.8-0.4-1.2c-0.2-0.4-0.4-0.6-0.8-0.6c-0.2,0-0.2,0-0.4,0.2l-3.3,4.4l-1-2.9c-0.2-0.4-0.4-0.8-0.4-1
		c-0.4,0-0.6-0.2-0.8-0.2s-0.4,0.2-0.6,0.4c-0.2,0.2-0.2,0.4-0.2,0.8c0,0.2,0,0.6,0.2,0.8c0.4,1,0.6,1.9,0.8,2.5
		c0.2,0.4,0.4,0.8,0.8,0.8V53l-1,1h-0.4c-0.4-0.2-0.8-0.4-1.2-1c-0.4-0.6-0.6-1-0.8-1.7v-0.2c0-0.2,0-0.2,0-0.4s0-0.4,0-0.4
		c0-0.4,0-0.8,0.2-1l3.1-3.1c0.4-0.4,0.8-0.4,1.5-0.4c0.6,0,1,0.4,1.2,1l0.4,1.9L126.1,46.6z M146.4,31.4c-1,0.6-2.1,1-2.5,1.2
		c-0.8,0.2-1.9,0.4-3.1,0.4c-1.2,0-2.7-0.2-4.4-0.8c-1.7-0.4-3.3-1-5.2-1.5c-1.7-0.4-3.1-0.8-4.1-0.8c-0.6,0-1,0-1.7,0.2
		c-0.6,0.2-1,0.4-1.5,0.6c-0.4,0.2-0.8,0.6-1,0.8c-0.6,0.8-1,1.9-1.2,3.1c-0.2,1.2-0.4,2.7-0.4,4.1c0,0.8,0,1.5,0,2.1
		c0,0.6,0.2,1.2,0.2,1.7c0.2,0.4,0.2,0.8,0.4,1.2l-3.1,3.1c0.2-1.7,0.2-2.7,0.2-3.3c0.2-1,0.2-2.1,0.4-2.9c0.2-0.8,0.2-1.7,0.2-2.1
		c0-0.4,0.2-1.2,0.4-1.9c0.4-1.7,0.8-2.9,1.2-3.7c0.6-1,1.2-1.9,2.1-2.5c0.8-0.6,2.1-1.2,3.1-1.9c1-0.6,2.3-0.8,3.5-0.8
		c0.8,0,2.1,0.2,3.7,0.8c1.7,0.6,3.1,1.2,4.8,1.9c1.7,0.6,3.1,0.8,4.1,0.8c0.6,0,1.2,0,1.9-0.2c0.4,0,0.8-0.2,1.5-0.4
		c0.4-0.2,0.8-0.4,1-0.8c0,0,0.2,0,0.2,0.2v0.2L146.4,31.4z"/>
	<path d="M133.9,56.7c-0.2,0.6-0.4,0.8-0.4,1c0,0.4,0.2,0.6,0.4,0.8c0.4,0.2,0.6,0.2,1,0.2s0.8-0.2,1.2-0.6c0.4-0.2,0.4-0.6,0.4-1
		c0,0,0,0,0-0.2s-0.2-0.6-0.2-0.8c-0.2-0.2-0.4-0.4-0.6-0.6l-0.4,0.2c-0.2,0-0.4-0.2-0.6-0.6c-0.2-0.4-0.4-0.6-0.4-0.8l2.5-3.1
		l-2.5-3.3c0,0-0.2-0.2-0.4-0.2s-0.4,0-0.6,0c0.4-0.4,0.8-0.8,1-1c0.8-0.6,1.2-0.8,1.5-0.8l0.4,0.2l2.3,3.1c0.6-1,1.2-1.7,1.5-1.9
		c0.8-0.8,1.5-1.2,2.1-1.2c0.4,0,0.8,0.2,1.5,0.4c0.2,0,0.4,0.2,0.8,0.4l-1.9,2.5c-0.2-0.2-0.4-0.4-0.6-0.6
		c-0.4-0.4-0.8-0.6-1.2-0.6c-0.2,0-0.4,0.2-0.8,0.4c0,0,0,0-0.2,0.2s-0.2,0.2-0.4,0.4s-0.2,0.2-0.2,0.2l4.4,6.2c0,0,0,0.2,0.2,0.2
		l0.2,0.2c0,0.2,0,0.4,0,0.4c0,0.2,0,0.4-0.2,0.4l-1.9,1.5l-4.4-6.6l-1,1.7c0,0.2,0.2,0.4,0.2,0.6c0,0.2,0.2,0.2,0.4,0.2l0.8,0.2
		c0.4,0.2,0.6,0.2,0.8,0.6c0.2,0.2,0.2,0.6,0.4,0.8c0,0.4-0.2,0.8-0.4,1.2c-0.2,0.4-0.6,1-1.2,1.7c-1,1.2-2.3,1.9-3.7,2.1
		c-0.2,0-0.2,0-0.2,0c-0.4,0-0.8,0-1-0.2s-0.4-0.6-0.4-0.8c0-1,0.2-1.9,0.8-2.7L133.9,56.7z"/>
	<path d="M144.7,49.3l3.1-3.1L148,46c0.2,0,0.2,0,0.4,0s0.2,0,0.4,0c0.4,0,0.8-0.2,1.2-0.2c0.8,0,1.2,0.2,1.7,0.6
		c0.4,0.4,0.6,1,0.6,1.9l0.4,5.8l-2.3,1l-0.8-6c0-0.4-0.2-0.8-0.6-1.2c-0.4-0.4-0.6-0.6-1.2-0.6c-0.4,0-0.6,0-0.8,0.2
		c-0.6,0.2-0.8,0.6-0.8,1.2c0,0.2,0,0.6,0.2,0.8c0.4,1,0.6,1.9,0.8,2.5c0.2,0.4,0.4,0.8,0.8,0.8V53l-1,1h-0.4
		c-0.4-0.2-0.8-0.4-1.2-1c-0.4-0.6-0.6-1-0.8-1.7v-0.2c0-0.2,0-0.2,0-0.4s0-0.4,0-0.4C144.3,49.9,144.5,49.5,144.7,49.3z"/>
	<path d="M158.4,53c0.6-0.2,1-0.4,1-0.8c0-0.2,0.2-0.6,0.2-0.8c0-0.6-0.2-1-0.6-1.2l-0.2-0.6c-0.4-0.4-0.6-0.8-0.6-1.5
		c0-0.6,0.2-1,0.2-1l2.5-1.5h0.2c0,0.2-0.2,0.2-0.2,0.4c0,0.2-0.2,0.4-0.2,0.4c0,0.2,0,0.4-0.2,0.4c0,0.2,0,0.4,0,0.6
		c0,0.2,0,0.2,0,0.4s0,0.2,0.2,0.2l0.8,0.6c0.4,0.4,0.6,0.8,0.6,1.7c0,0.2,0,0.4,0,0.6c-0.2,0.4-0.4,0.8-1,1.2
		c-0.6,0.4-1.2,0.8-2.1,1.5c-0.6,0.4-1.2,0.4-2.1,0.4l-2.5-2.1c-0.2-0.2-0.4-0.4-0.4-0.8c0,0,0,0,0-0.2V36c0-0.2,0-0.4,0-0.4
		l-0.2-0.2c0.2,0,0.4-0.2,0.6-0.2c0.2,0,0.4-0.2,0.6-0.2c1-0.4,1.5-0.6,1.7-0.8c0,0.2,0,0.2,0,0.4c0,0.2,0,0.2-0.2,0.4
		c0,0.2-0.2,0.2-0.2,0.4v15.5c0,0.4,0.2,1,0.6,1.5C157.3,52.6,158,52.8,158.4,53z"/>
	<path d="M176.2,54.7c0.4,1,0.4,2.1,0.4,3.1c0,1-0.2,2.1-0.4,3.3c-0.4,1.7-1,2.7-2.1,3.7c-0.8,0.6-1.7,1-2.5,1c-0.2,0-0.6,0-0.8-0.2
		c-2.3-0.6-3.9-2.5-5.2-5.8c-0.4-0.8-0.6-1.9-0.8-2.7s-0.4-1.7-0.6-2.7c-0.2-0.8-0.2-1.7-0.2-2.7c0-0.6,0-1.2,0.2-2.1l0.6-4.4
		l1.7,2.5l-0.6,7.7c0,1.7,0.2,3.3,0.8,4.6c0.6,1.5,1.5,2.3,2.7,2.7c0.2,0,0.6,0.2,0.8,0.2c0.8,0,1.5-0.2,2.1-0.8
		c0.8-0.6,1.5-1.9,1.9-3.7c0.2-0.6,0.2-1,0.2-1.7s0-1.5-0.2-2.1c-0.2-0.6-0.4-1.2-1-1.7c-0.4-0.6-1-1-1.9-1.5s-1.5-0.8-1.9-1
		s-0.8-0.8-1.2-1.7c0-0.2,0-0.2,0-0.4s0.2-0.6,0.4-0.8l2.5-2.3c0,0,0.2,0,0.6,0c0.6,0,1,0,1.5,0.2c0.4,0.2,0.6,0.2,0.6,0.6
		c0,0.4,0,0.6-0.2,0.6c-0.6,0.6-1,1-1.5,1.5c-1,1-1.7,1.5-1.7,1.5v-0.4l1.2-1.2c0.2-0.2,0.2-0.4,0.2-0.6c0-0.4-0.2-0.6-0.6-0.6
		s-0.8-0.2-1-0.2c-0.2,0-0.2,0-0.2,0l0,0c0,0.2-0.2,0.4-0.2,0.4c-0.2,0.4-0.2,0.6-0.2,0.8c0,0.4,0,0.8,0.2,1.2
		c0.2,0.4,0.2,0.6,0.4,0.8s0.6,0.4,1.2,0.6c0.6,0.2,1.2,0.4,1.9,0.6s1,0.6,1.7,1C175.6,52.6,175.8,53.8,176.2,54.7z"/>
	<path d="M178.9,49.1h2.7c-0.4,0.2-0.6,0.4-0.8,0.6c-0.6,0.6-0.8,1-1,1.2c0,0.2,0,0.2,0,0.4c0,0.2,0,0.4,0.2,0.6
		c0.4,0.4,0.6,0.6,1,0.8c0.2,0,0.6,0.2,0.8,0.2s0.6,0,0.8-0.2c0.6-0.2,1-0.4,1-0.8c0-0.2,0.2-0.6,0.2-0.8c0-0.6-0.2-1-0.6-1.2
		l-0.2-0.6c-0.4-0.4-0.6-0.8-0.6-1.5c0-0.6,0.2-1,0.2-1l2.5-1.5h0.2c0,0.2-0.2,0.2-0.2,0.4s-0.2,0.4-0.2,0.4c0,0.2,0,0.4-0.2,0.4
		c0,0.2,0,0.4,0,0.6c0,0.2,0,0.2,0,0.4c0,0,0,0.2,0.2,0.2l0.8,0.6c0.4,0.4,0.6,0.8,0.6,1.7c0,0.2,0,0.4,0,0.6
		c-0.2,0.4-0.4,0.8-1,1.2c-0.6,0.4-1.2,0.8-2.3,1.5c-1,0.6-2.1,0.8-3.1,0.8c-0.6,0-1.5-0.2-2.1-0.4c-0.6-0.2-1-0.6-1.2-0.8
		c0-0.2,0-0.4,0-0.6c0,0,0,0,0-0.2s0-0.4,0-0.6c0.2-0.4,0.4-0.8,1-1.5C178.1,49.7,178.5,49.3,178.9,49.1z"/>
	<path d="M195.5,37.9c-0.2-0.2-0.6-0.6-1-0.8c-0.4-0.2-1-0.4-1.5-0.6c-0.4-0.2-1-0.2-1.5-0.4s-0.8-0.2-1.2-0.2v10.6l1.9-0.8l2.7,2.7
		c0.4,0.4,0.6,0.6,0.8,0.8c0.2,0.4,0.4,0.8,0.4,1c0,0.6-0.2,1-0.6,1.5l-3.5,2.1c-0.4,0.2-0.8,0.2-1.2,0.2l-2.5-2.1
		c-0.2-0.2-0.4-0.4-0.4-0.8c0,0,0,0,0-0.2V35.8c0-0.4,0.2-0.8,0.8-1s1-0.4,1.7-0.6c0.6-0.2,1-0.2,1.5-0.2c1,0,1.9,0,2.3,0.2
		c0.6,0.2,1.2,0.4,1.9,0.6c0.2,0,0.2,0,0.2,0.2l0.2,0.2v0.2L195.5,37.9z M190.3,47.4v3.5c0,0.4,0.2,1,0.6,1.5
		c0.4,0.4,0.8,0.6,1.2,0.8c0.6,0,1-0.2,1.5-0.4c0.4-0.2,0.4-0.6,0.4-0.8s0-0.6-0.2-0.8c0-0.2-0.2-0.4-0.4-0.6L190.3,47.4z"/>
	<path d="M197.5,49.3l3.1-3.1l0.2-0.2c0.2,0,0.2,0,0.4,0s0.2,0,0.4,0c0.4,0,0.8-0.2,1.2-0.2c0.8,0,1.2,0.2,1.7,0.6
		c0.4,0.4,0.6,1,0.6,1.9l0.4,5.8l-2.3,1l-0.8-6c0-0.4-0.2-0.8-0.6-1.2c-0.4-0.4-0.6-0.6-1.2-0.6c-0.4,0-0.6,0-0.8,0.2
		c-0.6,0.2-0.8,0.6-0.8,1.2c0,0.2,0,0.6,0.2,0.8c0.4,1,0.6,1.9,0.8,2.5c0.2,0.4,0.4,0.8,0.8,0.8V53l-1,1h-0.4
		c-0.4-0.2-0.8-0.4-1.2-1c-0.4-0.6-0.6-1-0.8-1.7v-0.2c0-0.2,0-0.2,0-0.4s0-0.4,0-0.4C197.1,49.9,197.3,49.5,197.5,49.3z"/>
	<path d="M211.2,53c0.6-0.2,1-0.4,1-0.8c0-0.2,0.2-0.6,0.2-0.8c0-0.6-0.2-1-0.6-1.2l-0.2-0.6c-0.4-0.4-0.6-0.8-0.6-1.5
		c0-0.6,0.2-1,0.2-1l2.5-1.5h0.2c0,0.2-0.2,0.2-0.2,0.4c0,0.2-0.2,0.4-0.2,0.4c0,0.2,0,0.4-0.2,0.4c0,0.2,0,0.4,0,0.6
		c0,0.2,0,0.2,0,0.4s0,0.2,0.2,0.2l0.8,0.6c0.4,0.4,0.6,0.8,0.6,1.7c0,0.2,0,0.4,0,0.6c-0.2,0.4-0.4,0.8-1,1.2s-1.2,0.8-2.1,1.5
		c-0.6,0.4-1.2,0.4-2.1,0.4l-2.5-2.1c-0.2-0.2-0.4-0.4-0.4-0.8c0,0,0,0,0-0.2V36c0-0.2,0-0.4,0-0.4l-0.2-0.2c0.2,0,0.4-0.2,0.6-0.2
		c0.2,0,0.6-0.2,0.8-0.2c1-0.4,1.5-0.6,1.7-0.8c0,0.2,0,0.2,0,0.4s0,0.2-0.2,0.4c0,0.2-0.2,0.2-0.2,0.4v15.5c0,0.4,0.2,1,0.6,1.5
		C210.2,52.6,210.6,52.8,211.2,53z"/>
	<path d="M234.2,53.4c0.2-0.4,0.4-1,0.4-1.7c0-0.6-0.2-1.5-0.4-2.9c0-0.4-0.2-0.8-0.6-1.2c-0.4-0.4-0.6-0.6-1.2-0.6
		c-0.4,0-0.6,0-0.8,0.2c-0.6,0.2-0.8,0.6-0.8,1.2c0,0.2,0,0.6,0.2,0.8c0.4,1,0.6,1.9,0.8,2.5c0.2,0.4,0.4,0.8,0.8,0.8v0.2l-1,1h-0.4
		c-0.4-0.2-0.8-0.4-1.2-1c-0.4-0.6-0.6-1-0.8-1.7v-0.2c0-0.2,0-0.2,0-0.4s0-0.4,0-0.4c0-0.4,0-0.8,0.2-1l3.1-3.1l0.2-0.2
		c0.2,0,0.2,0,0.4,0c0.2,0,0.2,0,0.4,0c0.4,0,0.8-0.2,1.2-0.2c0.8,0,1.2,0.2,1.7,0.6c0.4,0.6,0.6,1.2,0.6,1.9l-1,4.4
		c0.2-0.2,0.6-0.2,0.6-0.2c0.2,0,0.4,0,0.4,0.2s0.2,0.2,0.2,0.4v1.5l-8.3,12.2l-0.4-0.4l0.2-0.4l6-8.9c0-0.2,0.2-0.4,0.2-0.6
		s0.2-0.4,0.2-0.6c0-0.2,0-0.4,0-0.6C235.2,54.2,234.8,53.8,234.2,53.4z"/>
	<path d="M238.3,49.3l3.1-3.1l0.2-0.2c0.2,0,0.2,0,0.4,0c0.2,0,0.2,0,0.4,0c0.4,0,0.8-0.2,1.2-0.2c0.8,0,1.2,0.2,1.7,0.6
		c0.4,0.4,0.6,1,0.6,1.9l0.4,5.8l-2.3,1l-0.8-6c0-0.4-0.2-0.8-0.6-1.2c-0.4-0.4-0.6-0.6-1.2-0.6c-0.4,0-0.6,0-0.8,0.2
		c-0.6,0.2-0.8,0.6-0.8,1.2c0,0.2,0,0.6,0.2,0.8c0.4,1,0.6,1.9,0.8,2.5c0.2,0.4,0.4,0.8,0.8,0.8V53l-1,1h-0.4
		c-0.4-0.2-0.8-0.4-1.2-1c-0.4-0.6-0.6-1-0.8-1.7v-0.2c0-0.2,0-0.2,0-0.4s0-0.4,0-0.4C238.1,49.9,238.3,49.5,238.3,49.3z"/>
	<path d="M257.2,58.6c-0.2,0-0.8-0.2-1.5-0.4c-0.6-0.2-1.2-0.4-1.7-0.4c-0.4-0.2-0.8-0.2-1-0.4c-1-0.6-1.9-1.2-2.5-1.9
		c-0.4-0.4-0.6-0.6-0.6-0.8c-0.2-0.2-0.4-0.4-0.6-0.8c-0.2-0.4-0.4-0.8-0.6-1c-0.4-1-0.6-1.9-0.6-2.5c0-0.8,0.2-1.5,0.6-1.9l2.3-2.3
		c0.2-0.2,0.6-0.4,1.2-0.4c0.6,0,1,0.4,1.2,1.2l0.8,1.7l2.5-2.5c0.4-0.4,0.8-0.4,1.5-0.4s1,0.4,1.2,1l0.8,2.1l2.7-2.7
		c0.4-0.4,0.8-0.4,1.5-0.4c0.8,0,1.2,0.2,1.7,0.6c0.4,0.4,0.6,1,0.6,1.9l0.4,5.8l-2.3,1l-0.8-6c0-0.4-0.2-0.8-0.4-1.2
		c-0.2-0.4-0.4-0.6-0.6-0.6s-0.4,0-0.6,0.2l-3.5,3.5l-1-2.3c-0.2-0.6-0.4-0.8-0.6-1c-0.2-0.4-0.4-0.6-0.6-0.6s-0.4,0-0.6,0.2
		l-3.5,3.5l-1-2.5c-0.2-0.2-0.4-0.4-0.8-0.4c-0.2,0-0.4,0-0.6,0.2c-0.4,0.2-0.6,0.4-0.8,0.8c-0.2,0.2-0.2,0.6-0.2,1.2
		c0,0.4,0,0.6,0.2,1c0.2,0.6,0.4,1.2,1,1.9c0.6,0.6,1.2,1.2,2.1,1.7c0.2,0.2,0.6,0.2,1,0.4s0.8,0.2,1.5,0.4c0.6,0.2,1.2,0.2,1.9,0.4
		c0.4,0.2,1,0.2,1.9,0.6c0.8,0.2,1.7,0.4,2.1,0.6c0.4,0.2,0.8,0.2,1.2,0.4c0.6,0.4,1.2,0.6,1.9,1c0.4,0.4,0.8,0.6,1.2,1
		c0.4,0.4,0.6,0.8,1,1.5c0.4,0.6,0.6,1.2,1,1.7c0.4,0.8,0.6,1.9,0.6,2.5l-0.8,0.8c0-0.6,0-1,0-1s0-0.2,0-0.4c0-0.2,0-0.4-0.2-0.6
		c-0.4-1.2-1.2-2.3-2.9-3.1c-0.4-0.2-1.2-0.6-2.5-1C259.7,59.4,258.4,59,257.2,58.6z"/>
	<path d="M270.7,49.1h2.7c-0.4,0.2-0.6,0.4-0.8,0.6c-0.6,0.6-0.8,1-1,1.2c0,0.2,0,0.2,0,0.4c0,0.2,0,0.4,0.2,0.6
		c0.4,0.4,0.6,0.6,1,0.8c0.2,0,0.6,0.2,0.8,0.2s0.6,0,0.8-0.2c0.6-0.2,1-0.4,1-0.8c0-0.2,0.2-0.6,0.2-0.8c0-0.6-0.2-1-0.6-1.2
		l-0.4-0.4c-0.4-0.4-0.6-0.8-0.6-1.5c0-0.6,0.2-1,0.2-1l2.5-1.5h0.2c0,0.2-0.2,0.2-0.2,0.4s-0.2,0.4-0.2,0.4c0,0.2,0,0.4-0.2,0.4
		c0,0.2,0,0.4,0,0.6c0,0.2,0,0.2,0,0.4c0,0,0,0.2,0.2,0.2l0.8,0.6c0.4,0.4,0.6,0.8,0.6,1.7c0,0.2,0,0.4,0,0.6
		c-0.2,0.4-0.4,0.8-1,1.2c-0.6,0.4-1.2,0.8-2.3,1.5c-1,0.6-2.1,0.8-3.1,0.8c-0.6,0-1.5-0.2-2.1-0.4s-1-0.6-1.2-0.8
		c0-0.2,0-0.4,0-0.6c0,0,0,0,0-0.2s0-0.4,0-0.6c0.2-0.4,0.4-0.8,1-1.5C269.8,49.7,270.2,49.3,270.7,49.1z"/>
	<path d="M279.8,49.3l3.1-3.1l0.2-0.2c0.2,0,0.2,0,0.4,0c0.2,0,0.2,0,0.4,0c0.4,0,0.8-0.2,1.2-0.2c0.8,0,1.2,0.2,1.7,0.6
		c0.4,0.4,0.6,1,0.6,1.9l0.4,5.8l-2.3,1l-0.8-6c0-0.4-0.2-0.8-0.6-1.2c-0.4-0.4-0.6-0.6-1.2-0.6c-0.4,0-0.6,0-0.8,0.2
		c-0.6,0.2-0.8,0.6-0.8,1.2c0,0.2,0,0.6,0.2,0.8c0.4,1,0.6,1.9,0.8,2.5c0.2,0.4,0.4,0.8,0.8,0.8V53l-1,1h-0.4
		c-0.4-0.2-0.8-0.4-1.2-1c-0.4-0.6-0.6-1-0.8-1.7v-0.2c0-0.2,0-0.2,0-0.4s0-0.4,0-0.4C279.4,49.9,279.6,49.5,279.8,49.3z"/>
	<path d="M298.2,61.5c0,0.6-0.2,1.2-0.6,2.3c-0.4,0.8-0.8,1.7-1.2,2.5c-0.4,0.8-0.8,1.2-1,1.5c-1,1-2.1,1.9-2.9,2.3
		c-1.7,1-3.5,1.5-5.6,1.5c-0.8,0-1.7,0-2.3-0.2c-0.6-0.2-1.2-0.4-1.9-0.6c-0.2,0-0.2,0-0.2-0.2c0,0-0.2-0.2-0.2-0.4v-0.2l1-2.9
		l0.4,0.4c0.4,0.4,1,0.8,1.2,1c1,0.6,2.3,1,3.3,1c1.5,0,2.3,0,3.1-0.2c1-0.2,1.9-0.6,2.9-1.2c1-0.6,1.5-1.2,1.5-2.1V51.3v-0.4
		c0-0.8-0.4-1.5-0.8-1.9c-0.6-0.8-1.2-1.5-1.9-1.5c-0.4,0-0.8,0.2-1,0.4c-0.4,0.4-0.6,0.6-0.6,1c0,0.8,0.4,1.7,1.2,1.9
		c0.2,0.2,0.8,0.2,1.2,0.4c-0.2,0.2-0.4,0.4-0.6,0.6c-0.6,0.4-1,0.6-1.7,0.6c-0.8,0-1.5-0.2-1.9-0.4c-0.6-0.4-1-1-1-1.9
		c0-0.2,0-0.4,0.2-0.6c0-0.2,0.2-0.2,0.4-0.4l5.2-3.9h0.4l3.1,2.3l0.2,0.2L298.2,61.5L298.2,61.5z"/>
	<path d="M305.5,50.7L305.5,50.7c0,0,0-0.2,0-0.6c0-0.6,0-1,0-1.5l2.1-2.1c0.4-0.4,0.8-0.8,1-0.8c0.4,0,0.8-0.2,1.2-0.2
		c0.8,0,1.2,0.2,1.7,0.6c0.4,0.4,0.6,1,0.6,1.9l0.4,5.8l-2.3,1l-0.8-6c0-0.4-0.2-0.8-0.4-1.2c-0.2-0.4-0.4-0.6-0.8-0.6
		c-0.2,0-0.2,0-0.4,0.2l-1,1.2c0,0,0.2,0.4,0.4,1.2c0.2,0.8,0.4,1.2,0.4,1.2c0,0.4-0.2,0.8-0.4,1l-2.5,2.1c-0.4,0-0.8,0-1.2-0.2
		l-3.5-2.1c-0.4-0.2-0.6-0.6-0.6-1.5c0-0.4,0.2-0.6,0.4-1c0-0.2,0.4-0.4,0.8-0.8l2.7-2.7l1.9,0.8v0.8l-2.9,2.9
		c-0.2,0.2-0.4,0.4-0.4,0.6c-0.2,0.2-0.2,0.6-0.2,0.8c0,0.4,0.2,0.6,0.4,0.8c0.2,0.2,0.8,0.4,1.5,0.4s1-0.4,1.2-0.8
		C305.2,51.8,305.5,51.3,305.5,50.7z"/>
	<path d="M313.9,49.3l3.1-3.1l0.2-0.2c0.2,0,0.2,0,0.4,0s0.2,0,0.4,0c0.4,0,0.8-0.2,1.2-0.2c0.8,0,1.2,0.2,1.7,0.6
		c0.4,0.4,0.6,1,0.6,1.9L322,54l-2.3,1l-0.8-6c0-0.4-0.2-0.8-0.6-1.2c-0.4-0.4-0.6-0.6-1.2-0.6c-0.4,0-0.6,0-0.8,0.2
		c-0.6,0.2-0.8,0.6-0.8,1.2c0,0.2,0,0.6,0.2,0.8c0.4,1,0.6,1.9,0.8,2.5c0.2,0.4,0.4,0.8,0.8,0.8V53l-1,1h-0.4
		c-0.4-0.2-0.8-0.4-1.2-1c-0.4-0.6-0.6-1-0.8-1.7v-0.2c0-0.2,0-0.2,0-0.4s0-0.4,0-0.4C313.7,49.9,313.7,49.5,313.9,49.3z"/>
	<path d="M327.8,53c0.6-0.2,1-0.4,1-0.8c0-0.2,0.2-0.6,0.2-0.8c0-0.6-0.2-1-0.6-1.2l-0.4-0.6c-0.4-0.4-0.6-0.8-0.6-1.5
		c0-0.6,0.2-1,0.2-1l2.5-1.5h0.2c0,0.2-0.2,0.2-0.2,0.4c0,0.2-0.2,0.4-0.2,0.4c0,0.2,0,0.4-0.2,0.4c0,0.2,0,0.4,0,0.6
		c0,0.2,0,0.2,0,0.4s0,0.2,0.2,0.2l0.8,0.6c0.4,0.4,0.6,0.8,0.6,1.7c0,0.2,0,0.4,0,0.6c-0.2,0.4-0.4,0.8-1,1.2s-1.2,0.8-2.1,1.5
		c-0.6,0.4-1.2,0.4-2.1,0.4l-2.5-2.1c-0.2-0.2-0.4-0.4-0.4-0.8c0,0,0,0,0-0.2V36c0-0.2,0-0.4,0-0.4l-0.2-0.2c0.2,0,0.4-0.2,0.6-0.2
		c0.2,0,0.4-0.2,0.6-0.2c1-0.4,1.5-0.6,1.7-0.8c0,0.2,0,0.2,0,0.4c0,0.2,0,0.2-0.2,0.4c0,0.2-0.2,0.2-0.2,0.4v15.5
		c0,0.4,0.2,1,0.6,1.5C326.8,52.6,327.2,52.8,327.8,53z"/>
	<path d="M357.9,46.6c0.6,0.2,1,0.4,1.2,0.6c0.2,0.4,0.4,0.6,0.4,0.8s0,0.4,0,0.6v0.2c0,0.2-0.2,0.4-0.4,0.6l-3.5,2.9
		c-0.2,0-0.2,0.2-0.4,0.2s-0.4,0.2-0.6,0.2c-0.4,0-0.8,0.2-1,0.2c-0.4,0-0.8,0-1-0.2c-0.2-0.2-0.6-0.4-1-0.8c-0.4-0.4-0.6-0.6-0.8-1
		l-1.2-2.7c-0.2-0.2-0.4-0.4-0.8-0.4c-0.2,0-0.4,0-0.6,0.2c-0.4,0.2-0.6,0.4-0.8,0.8c-0.2,0.2-0.2,0.6-0.2,1.2c0,0.4,0,0.6,0.2,1
		c0.2,0.6,0.4,1.2,1,1.9c0.6,0.6,1.2,1.2,2.1,1.7c0.8,0.4,1.5,0.6,1.9,1c0.6,0.4,1,0.6,1.7,1c0.4,0.4,1,0.8,1.5,1.2
		c0.6,0.4,1,1,1.5,1.5c0.8,1,1.5,2.1,2.1,3.3c0.4,1,0.6,1.9,0.6,2.5l-0.6,0.8c0-0.2,0-0.4,0-0.8c0-0.2,0-0.4,0-0.6
		c0-0.2,0-0.4-0.2-0.8c-0.2-0.4-0.4-1-1-1.7c-0.6-0.6-1.2-1.2-1.9-1.9c-0.6-0.6-1.5-1-2.1-1.5c-2.3-1.2-3.5-1.9-3.7-1.9
		c-0.8-0.6-1.5-1.2-1.9-1.9c-0.4-0.8-0.8-1.5-1-2.3c-0.4-1-0.6-1.9-0.6-2.5c0-0.8,0.2-1.5,0.6-1.9l2.3-2.3c0.2-0.2,0.6-0.4,1.2-0.4
		c0.2,0,0.6,0.2,0.8,0.4c0.2,0.2,0.4,0.4,0.6,0.8l0.8,1.7l1.2-1.2l-0.8-0.2l2.3-1.5L357.9,46.6z M352.5,50.1
		c0.2,0.4,0.6,0.8,1.2,1.2c0.4,0.2,1,0.4,1.5,0.4c0.2,0,0.4,0,0.6,0c0.4,0,0.6-0.2,1-0.6c0.4-0.4,0.6-1,0.6-1.2
		c0-0.2-0.2-0.6-0.4-0.8c-0.2-0.2-0.4-0.4-0.6-0.4l-2.7-0.8l-1,1C352.5,48.9,352.5,49.3,352.5,50.1z"/>
	<path d="M360.8,49.3l3.1-3.1l0.2-0.2c0.2,0,0.2,0,0.4,0s0.2,0,0.4,0c0.4,0,0.8-0.2,1.2-0.2c0.8,0,1.2,0.2,1.7,0.6
		c0.4,0.4,0.6,1,0.6,1.9l0.4,5.8l-2.3,1l-0.8-6c0-0.4-0.2-0.8-0.6-1.2c-0.4-0.4-0.6-0.6-1.2-0.6c-0.4,0-0.6,0-0.8,0.2
		c-0.6,0.2-0.8,0.6-0.8,1.2c0,0.2,0,0.6,0.2,0.8c0.4,1,0.6,1.9,0.8,2.5c0.2,0.4,0.4,0.8,0.8,0.8V53l-1,1h-0.4
		c-0.4-0.2-0.8-0.4-1.2-1c-0.4-0.6-0.6-1-0.8-1.7v-0.2c0-0.2,0-0.2,0-0.4s0-0.4,0-0.4C360.6,49.9,360.6,49.5,360.8,49.3z"/>
	<path d="M382.5,46.6c0.6,0.2,1,0.4,1.2,0.6c0.2,0.4,0.4,0.6,0.4,0.8s0,0.4,0,0.6v0.2c0,0.2-0.2,0.4-0.4,0.6l-3.5,2.9
		c-0.2,0-0.2,0.2-0.4,0.2s-0.4,0.2-0.6,0.2c-0.4,0-0.8,0.2-1,0.2c-0.4,0-0.8,0-1-0.2c-0.2-0.2-0.6-0.4-1-0.8c-0.4-0.4-0.6-0.6-0.8-1
		l-1.2-2.7c-0.2-0.2-0.4-0.4-0.8-0.4c-0.2,0-0.4,0-0.6,0.2c-0.4,0.2-0.6,0.4-0.8,0.8c-0.2,0.2-0.2,0.6-0.2,1.2c0,0.4,0,0.6,0.2,1
		c0.2,0.6,0.4,1.2,1,1.9c0.6,0.6,1.2,1.2,2.1,1.7c0.8,0.4,1.5,0.6,1.9,1c0.6,0.4,1,0.6,1.7,1c0.4,0.4,1,0.8,1.5,1.2
		c0.6,0.4,1,1,1.5,1.5c0.8,1,1.5,2.1,2.1,3.3c0.4,1,0.6,1.9,0.6,2.5l-0.6,0.8c0-0.2,0-0.4,0-0.8c0-0.2,0-0.4,0-0.6
		c0-0.2,0-0.4-0.2-0.8c-0.2-0.4-0.4-1-1-1.7c-0.6-0.6-1.2-1.2-1.9-1.9c-0.6-0.6-1.5-1-2.1-1.5c-2.3-1.2-3.5-1.9-3.7-1.9
		c-0.8-0.6-1.5-1.2-1.9-1.9c-0.4-0.8-0.8-1.5-1-2.3c-0.4-1-0.6-1.9-0.6-2.5c0-0.8,0.2-1.5,0.6-1.9l2.3-2.3c0.2-0.2,0.6-0.4,1.2-0.4
		c0.2,0,0.6,0.2,0.8,0.4c0.2,0.2,0.4,0.4,0.6,0.8l0.8,1.7l1.2-1.2l-0.8-0.2l2.3-1.5L382.5,46.6z M377.1,50.1
		c0.2,0.4,0.6,0.8,1.2,1.2c0.4,0.2,1,0.4,1.5,0.4c0.2,0,0.4,0,0.6,0c0.4,0,0.6-0.2,1-0.6c0.4-0.4,0.6-1,0.6-1.2
		c0-0.2-0.2-0.6-0.4-0.8s-0.4-0.4-0.6-0.4l-2.7-0.8l-1,1C377.1,48.9,377.1,49.3,377.1,50.1z"/>
	<path d="M385.4,49.3l3.1-3.1l0.2-0.2c0.2,0,0.2,0,0.4,0c0.2,0,0.2,0,0.4,0c0.4,0,0.8-0.2,1.2-0.2c0.8,0,1.2,0.2,1.7,0.6
		c0.4,0.4,0.6,1,0.6,1.9l0.4,5.8l-2.3,1l-0.8-6c0-0.4-0.2-0.8-0.6-1.2c-0.4-0.4-0.6-0.6-1.2-0.6c-0.4,0-0.6,0-0.8,0.2
		c-0.6,0.2-0.8,0.6-0.8,1.2c0,0.2,0,0.6,0.2,0.8c0.4,1,0.6,1.9,0.8,2.5c0.2,0.4,0.4,0.8,0.8,0.8V53l-1,1h-0.4
		c-0.4-0.2-0.8-0.4-1.2-1c-0.4-0.6-0.6-1-0.8-1.7v-0.2c0-0.2,0-0.2,0-0.4s0-0.4,0-0.4C385.2,49.9,385.2,49.5,385.4,49.3z"/>
	<path d="M419.6,46.6c0.6,0.2,1,0.4,1.2,0.6c0.2,0.4,0.4,0.6,0.4,0.8s0,0.4,0,0.6v0.2c0,0.2-0.2,0.4-0.4,0.6l-3.5,2.9
		c-0.2,0-0.2,0.2-0.4,0.2c-0.2,0-0.4,0.2-0.6,0.2c-0.4,0-0.8,0.2-1,0.2c-0.4,0-0.8,0-1-0.2c-0.2-0.2-0.6-0.4-1-0.8
		c-0.4-0.4-0.6-0.6-0.8-1l-1.2-2.7c-0.2-0.2-0.4-0.4-0.8-0.4c-0.2,0-0.4,0-0.6,0.2c-0.4,0.2-0.6,0.4-0.8,0.8
		c-0.2,0.2-0.2,0.6-0.2,1.2c0,0.4,0,0.6,0.2,1c0.2,0.6,0.4,1.2,1,1.9c0.6,0.6,1.2,1.2,2.1,1.7c0.8,0.4,1.5,0.6,1.9,1
		c0.6,0.4,1,0.6,1.7,1c0.4,0.4,1,0.8,1.5,1.2c0.6,0.4,1,1,1.5,1.5c0.8,1,1.5,2.1,2.1,3.3c0.4,1,0.6,1.9,0.6,2.5l-0.6,0.8
		c0-0.2,0-0.4,0-0.8c0-0.2,0-0.4,0-0.6c0-0.2,0-0.4-0.2-0.8c-0.2-0.4-0.4-1-1-1.7c-0.6-0.6-1.2-1.2-1.9-1.9c-0.6-0.6-1.5-1-2.1-1.5
		c-2.3-1.2-3.5-1.9-3.7-1.9c-0.8-0.6-1.5-1.2-1.9-1.9c-0.4-0.8-0.8-1.5-1-2.3c-0.4-1-0.6-1.9-0.6-2.5c0-0.8,0.2-1.5,0.6-1.9l2.3-2.3
		c0.2-0.2,0.6-0.4,1.2-0.4c0.2,0,0.6,0.2,0.8,0.4c0.2,0.2,0.4,0.4,0.6,0.8l0.8,1.7l1.2-1.2l-0.8-0.2l2.3-1.5L419.6,46.6z
		 M414.2,50.1c0.2,0.4,0.6,0.8,1.2,1.2c0.4,0.2,1,0.4,1.5,0.4c0.2,0,0.4,0,0.6,0c0.4,0,0.6-0.2,1-0.6c0.4-0.4,0.6-1,0.6-1.2
		c0-0.2-0.2-0.6-0.4-0.8c-0.2-0.2-0.4-0.4-0.6-0.4l-2.7-0.8l-1,1C414.4,48.9,414.2,49.3,414.2,50.1z"/>
	<path d="M424.8,49.1h2.7c-0.4,0.2-0.6,0.4-0.8,0.6c-0.6,0.6-0.8,1-1,1.2c0,0.2,0,0.2,0,0.4c0,0.2,0,0.4,0.2,0.6
		c0.4,0.4,0.6,0.6,1,0.8c0.2,0,0.6,0.2,0.8,0.2c0.2,0,0.6,0,0.8-0.2c0.6-0.2,1-0.4,1-0.8c0-0.2,0.2-0.6,0.2-0.8c0-0.6-0.2-1-0.6-1.2
		l-0.4-0.4c-0.4-0.4-0.6-0.8-0.6-1.5c0-0.6,0.2-1,0.2-1l2.5-1.5h0.2c0,0.2-0.2,0.2-0.2,0.4s-0.2,0.4-0.2,0.4c0,0.2,0,0.4-0.2,0.4
		c0,0.2,0,0.4,0,0.6c0,0.2,0,0.2,0,0.4c0,0,0,0.2,0.2,0.2l0.8,0.6c0.4,0.4,0.6,0.8,0.6,1.7c0,0.2,0,0.4,0,0.6
		c-0.2,0.4-0.4,0.8-1,1.2s-1.2,0.8-2.3,1.5c-1,0.6-2.1,0.8-3.1,0.8c-0.6,0-1.5-0.2-2.1-0.4s-1-0.6-1.2-0.8c0-0.2,0-0.4,0-0.6
		c0,0,0,0,0-0.2s0-0.4,0-0.6c0.2-0.4,0.4-0.8,1-1.5C423.9,49.7,424.4,49.3,424.8,49.1z"/>
	<path d="M439.1,53.4c0.2-0.4,0.4-1,0.4-1.7c0-0.6-0.2-1.5-0.4-2.9c0-0.4-0.2-0.8-0.6-1.2c-0.4-0.4-0.6-0.6-1.2-0.6
		c-0.4,0-0.6,0-0.8,0.2c-0.6,0.2-0.8,0.6-0.8,1.2c0,0.2,0,0.6,0.2,0.8c0.4,1,0.6,1.9,0.8,2.5c0.2,0.4,0.4,0.8,0.8,0.8v0.2l-1,1H436
		c-0.4-0.2-0.8-0.4-1.2-1c-0.4-0.6-0.6-1-0.8-1.7v-0.2c0-0.2,0-0.2,0-0.4s0-0.4,0-0.4c0-0.4,0-0.8,0.2-1l3.1-3.1l0.2-0.2
		c0.2,0,0.2,0,0.4,0s0.2,0,0.4,0c0.4,0,0.8-0.2,1.2-0.2c0.8,0,1.2,0.2,1.7,0.6c0.4,0.6,0.6,1.2,0.6,1.9l-1,4.4
		c0.2-0.2,0.6-0.2,0.6-0.2c0.2,0,0.4,0,0.4,0.2s0.2,0.2,0.2,0.4v1.5l-8.3,12.2l-0.4-0.4l0.2-0.4l6-8.9c0-0.2,0.2-0.4,0.2-0.6
		s0.2-0.4,0.2-0.6c0-0.2,0-0.4,0-0.6C439.9,54.2,439.7,53.8,439.1,53.4z"/>
	<path d="M449,50.7L449,50.7c0,0,0-0.2,0-0.6c0-0.6,0-1,0-1.5l2.1-2.1c0.4-0.4,0.8-0.8,1-0.8c0.4,0,0.8-0.2,1.2-0.2
		c0.8,0,1.2,0.2,1.7,0.6c0.4,0.4,0.6,1,0.6,1.9l0.4,5.8l-2.3,1l-0.8-6c0-0.4-0.2-0.8-0.4-1.2c-0.2-0.4-0.4-0.6-0.8-0.6
		c-0.2,0-0.2,0-0.4,0.2l-1,1.2c0,0,0.2,0.4,0.4,1.2c0.2,0.8,0.4,1.2,0.4,1.2c0,0.4-0.2,0.8-0.4,1l-2.5,2.1c-0.4,0-0.8,0-1.2-0.2
		l-3.5-2.1c-0.4-0.2-0.6-0.6-0.6-1.5c0-0.4,0.2-0.6,0.4-1c0-0.2,0.4-0.4,0.8-0.8l2.7-2.7l1.9,0.8v0.8l-2.9,2.9
		c-0.2,0.2-0.4,0.4-0.4,0.6c-0.2,0.2-0.2,0.6-0.2,0.8c0,0.4,0.2,0.6,0.4,0.8s0.8,0.4,1.5,0.4s1-0.4,1.2-0.8
		C448.8,51.8,449,51.3,449,50.7z"/>
	<path d="M459.8,49.1h2.7c-0.4,0.2-0.6,0.4-0.8,0.6c-0.6,0.6-0.8,1-1,1.2c0,0.2,0,0.2,0,0.4c0,0.2,0,0.4,0.2,0.6
		c0.4,0.4,0.6,0.6,1,0.8c0.2,0,0.6,0.2,0.8,0.2c0.2,0,0.6,0,0.8-0.2c0.6-0.2,1-0.4,1-0.8c0-0.2,0.2-0.6,0.2-0.8c0-0.6-0.2-1-0.6-1.2
		l-0.4-0.4c-0.4-0.4-0.6-0.8-0.6-1.5c0-0.6,0.2-1,0.2-1l2.5-1.5h0.2c0,0.2-0.2,0.2-0.2,0.4s-0.2,0.4-0.2,0.4c0,0.2,0,0.4-0.2,0.4
		c0,0.2,0,0.4,0,0.6c0,0.2,0,0.2,0,0.4c0,0,0,0.2,0.2,0.2l0.8,0.6c0.4,0.4,0.6,0.8,0.6,1.7c0,0.2,0,0.4,0,0.6
		c-0.2,0.4-0.4,0.8-1,1.2s-1.2,0.8-2.3,1.5c-1,0.6-2.1,0.8-3.1,0.8c-0.6,0-1.5-0.2-2.1-0.4s-1-0.6-1.2-0.8c0-0.2,0-0.4,0-0.6
		c0,0,0,0,0-0.2s0-0.4,0-0.6c0.2-0.4,0.4-0.8,1-1.5C458.7,49.7,459.4,49.3,459.8,49.1z"/>
	<path d="M476.8,46.6c0.4-0.4,0.6-0.6,1-0.8c0.4,0,0.8-0.2,1.2-0.2c0.8,0,1.2,0.2,1.7,0.6c0.4,0.4,0.6,1,0.6,1.9l0.4,5.8l-2.3,1
		l-0.8-6c0-0.4-0.2-0.8-0.4-1.2c-0.2-0.4-0.4-0.6-0.8-0.6c-0.2,0-0.2,0-0.4,0.2l-3.3,4.4l-1-2.9c-0.2-0.4-0.4-0.8-0.4-1
		c-0.2-0.2-0.4-0.2-0.6-0.2c-0.2,0-0.4,0.2-0.6,0.4c-0.2,0.2-0.2,0.4-0.2,0.8c0,0.2,0,0.6,0.2,0.8c0.4,1,0.6,1.9,0.8,2.5
		c0.2,0.4,0.4,0.8,0.8,0.8V53l-1,1h-0.4c-0.4-0.2-0.8-0.4-1.2-1c-0.4-0.6-0.6-1-0.8-1.7v-0.2c0-0.2,0-0.2,0-0.4s0-0.4,0-0.4
		c0-0.4,0-0.8,0.2-1l3.1-3.1c0.4-0.4,0.8-0.4,1.5-0.4c0.6,0,1,0.4,1.2,1l0.4,1.9L476.8,46.6z M496.9,31.4c-1,0.6-2.1,1-2.5,1.2
		c-0.8,0.2-1.9,0.4-3.1,0.4s-2.7-0.2-4.4-0.8c-1.7-0.4-3.3-1-5.2-1.5c-1.7-0.4-3.1-0.8-4.1-0.8c-0.6,0-1,0-1.7,0.2s-1,0.4-1.5,0.6
		c-0.4,0.2-0.8,0.6-1,0.8c-0.6,0.8-1,1.9-1.2,3.1c-0.2,1.2-0.4,2.7-0.4,4.1c0,0.8,0,1.5,0,2.1c0,0.6,0.2,1.2,0.2,1.7
		c0.2,0.4,0.2,0.8,0.4,1.2l-3.1,2.7c0.2-1.7,0.2-2.7,0.2-3.3c0.2-1,0.2-2.1,0.4-2.9c0.2-0.8,0.2-1.7,0.2-2.1c0-0.4,0.2-1.2,0.4-1.9
		c0.4-1.7,0.8-2.9,1.2-3.7c0.6-1,1.2-1.9,2.1-2.5c0.8-0.6,2.1-1.2,3.1-1.9s2.3-0.8,3.5-0.8c0.8,0,2.1,0.2,3.7,0.8s3.1,1.2,4.8,1.9
		c1.7,0.6,3.1,0.8,4.1,0.8c0.6,0,1.2,0,1.9-0.2c0.4,0,0.8-0.2,1.5-0.4c0.4-0.2,0.8-0.4,1-0.8c0,0,0.2,0,0.2,0.2V30L496.9,31.4z"/>
	<path d="M483.2,49.3l3.1-3.1l0.2-0.2c0.2,0,0.2,0,0.4,0s0.2,0,0.4,0c0.4,0,0.8-0.2,1.2-0.2c0.8,0,1.2,0.2,1.7,0.6
		c0.4,0.4,0.6,1,0.6,1.9l0.4,5.8l-2.3,1l-0.8-6c0-0.4-0.2-0.8-0.6-1.2c-0.4-0.4-0.6-0.6-1.2-0.6c-0.4,0-0.6,0-0.8,0.2
		c-0.6,0.2-0.8,0.6-0.8,1.2c0,0.2,0,0.6,0.2,0.8c0.4,1,0.6,1.9,0.8,2.5c0.2,0.4,0.4,0.8,0.8,0.8V53l-1,1h-0.4
		c-0.4-0.2-0.8-0.4-1.2-1c-0.4-0.6-0.6-1-0.8-1.7v-0.2c0-0.2,0-0.2,0-0.4s0-0.4,0-0.4C482.8,49.9,483,49.5,483.2,49.3z"/>
</g>
</svg>
