<?xml version="1.0" encoding="utf-8"?>
<!-- Generator: Adobe Illustrator 23.0.6, SVG Export Plug-In . SVG Version: 6.00 Build 0)  -->
<svg version="1.1" id="Layer_1" xmlns="http://www.w3.org/2000/svg" xmlns:xlink="http://www.w3.org/1999/xlink" x="0px" y="0px"
	 viewBox="0 0 137.9 36.8" style="enable-background:new 0 0 137.9 36.8;" xml:space="preserve">
<style type="text/css">
	.st0{fill:#FFFFFF;}
</style>
<g>
	<path class="st0" d="M56.2,31.2c0,0.3,0.1,0.5,0.6,0.5c0.3,0,0.5-0.1,0.7-0.2c0,0,0.1-0.1,0.1-0.1c0-0.2-0.1-0.4-0.3-0.7
		c-0.2-0.2-0.5-0.4-0.7-0.5c-0.1,0-0.1-0.1-0.1-0.1c0-0.1,0.1-0.3,0.2-0.4l0,0c0.3,0.2,0.6,0.4,0.8,0.7c0.2,0.3,0.3,0.5,0.3,0.8
		c0,0.2-0.1,0.4-0.1,0.6c-0.3,0.2-0.6,0.3-1,0.3c-0.4,0-0.7-0.2-0.7-0.7c0-0.1,0-0.1,0-0.3H56.2z"/>
	<path class="st0" d="M61.7,31.3c-0.4,0-0.7-0.1-0.8-0.4c0-0.1-0.1-0.2-0.1-0.2c0-0.3,0.1-0.5,0.3-0.7c0.1-0.1,0.3-0.2,0.4-0.2
		c0.3,0,0.5,0.2,0.7,0.7c0.1,0.2,0.1,0.5,0.1,0.8c0,0.2,0,0.4-0.1,0.5c-0.3,0.2-0.5,0.2-0.7,0.3c-0.4,0.1-0.9,0.2-1.3,0.2
		c-0.5,0-0.9-0.1-1.2-0.3c-0.3-0.2-0.5-0.5-0.5-0.9c0-0.3,0.1-0.6,0.2-0.8l0.1,0.1c-0.1,0.2-0.1,0.4-0.1,0.5c0,0.3,0.2,0.6,0.5,0.8
		c0.3,0.2,0.7,0.2,1.1,0.2c0.4,0,0.8-0.1,1.2-0.2c0.2,0,0.3-0.1,0.5-0.2c0.1,0,0.2-0.1,0.2-0.2c0,0,0-0.1,0-0.1
		C61.9,31.3,61.8,31.3,61.7,31.3z M61.2,28.7c0.1,0.1,0.3,0.2,0.4,0.4c-0.1,0.1-0.2,0.2-0.3,0.3c-0.1-0.1-0.3-0.2-0.4-0.4
		C61,28.9,61.1,28.8,61.2,28.7z M61.4,30.2c-0.2,0-0.4,0.2-0.4,0.3c0,0.3,0.4,0.4,1,0.4C61.9,30.6,61.7,30.2,61.4,30.2z"/>
	<path class="st0" d="M64.6,32.3c-1,0-1.7-0.4-1.7-1.2c0-0.3,0.1-0.6,0.2-0.8l0.1,0.1c-0.1,0.2-0.1,0.4-0.1,0.5c0,0.7,0.7,1,1.6,1
		c0.4,0,0.8-0.1,1.2-0.1c0.2,0,0.3-0.1,0.5-0.1c0,0,0,0,0,0c0-0.2-0.2-0.5-0.3-0.9c0.1-0.1,0.2-0.3,0.3-0.4h0
		c0.2,0.3,0.3,0.7,0.3,1.1c0,0.3-0.1,0.4-0.2,0.6C66.2,32.1,65.3,32.3,64.6,32.3z M64.5,30c-0.1-0.1-0.3-0.2-0.4-0.4
		c0.1-0.1,0.2-0.2,0.3-0.3c0.1,0.1,0.3,0.2,0.4,0.4C64.7,29.8,64.6,29.9,64.5,30z M65.2,29.9c-0.1-0.1-0.3-0.2-0.4-0.4
		c0.1-0.1,0.2-0.2,0.3-0.3c0.1,0.1,0.3,0.2,0.4,0.4C65.3,29.8,65.3,29.9,65.2,29.9z"/>
	<path class="st0" d="M68.4,30.4l0.2,0.5c0.1,0.2,0.2,0.4,0.2,0.7v0.4c0,0.3-0.2,0.6-0.4,1c-0.2,0.2-0.4,0.3-0.6,0.3
		c-0.3,0-0.5-0.1-0.9-0.3l0-0.1c0.1,0,0.2,0.1,0.4,0.1c0.5,0,1-0.4,1.2-0.9c0-0.1,0-0.1,0-0.2c0-0.1,0-0.1,0-0.2
		c-0.1-0.3-0.3-0.5-0.4-0.8C68.2,30.6,68.3,30.5,68.4,30.4L68.4,30.4z"/>
	<path class="st0" d="M71.7,31.6c-0.4,0-0.6,0.2-0.6,0.3c0,0.4,0.3,1,0.4,1.7c0,0.1,0,0.2,0,0.3c0,0.2,0,0.3-0.1,0.5l-0.1,0
		c0-0.4-0.3-1.1-0.5-1.8c0-0.1-0.1-0.3-0.1-0.4c0-0.2,0-0.3,0.1-0.5c0.1-0.2,0.2-0.4,0.3-0.4c0-0.2-0.1-0.3-0.1-0.4
		c0-0.1,0.1-0.3,0.2-0.4c0.1-0.1,0.2-0.1,0.3-0.1c0.2,0,0.3,0,0.4,0.2c0.2,0.2,0.4,0.4,0.5,0.7c0,0.1,0,0.2,0,0.2
		c0,0.1-0.1,0.3-0.1,0.4C72.4,31.6,72.1,31.6,71.7,31.6z M72.4,31.2c-0.2-0.3-0.4-0.5-0.7-0.5c-0.1,0-0.1,0-0.2,0l0,0.2
		c0,0.1-0.1,0.3-0.1,0.3c0.1,0,0.3-0.1,0.5-0.1C72,31.1,72.2,31.2,72.4,31.2L72.4,31.2z"/>
	<path class="st0" d="M76.7,31.3c-0.4,0-0.7-0.1-0.8-0.4c0-0.1-0.1-0.2-0.1-0.2c0-0.3,0.1-0.5,0.3-0.7c0.1-0.1,0.3-0.2,0.4-0.2
		c0.3,0,0.5,0.2,0.7,0.7c0.1,0.2,0.1,0.5,0.1,0.8c0,0.2,0,0.4-0.1,0.5c-0.3,0.2-0.5,0.2-0.7,0.3c-0.4,0.1-0.9,0.2-1.3,0.2
		c-0.5,0-0.9-0.1-1.2-0.3c-0.3-0.2-0.5-0.5-0.5-0.9c0-0.3,0.1-0.6,0.2-0.8l0.1,0.1c-0.1,0.2-0.1,0.4-0.1,0.5c0,0.3,0.2,0.6,0.5,0.8
		c0.3,0.2,0.7,0.2,1.1,0.2c0.4,0,0.8-0.1,1.2-0.2c0.2,0,0.3-0.1,0.5-0.2c0.1,0,0.2-0.1,0.2-0.2c0,0,0-0.1,0-0.1
		C77,31.3,76.8,31.3,76.7,31.3z M76.2,28.7c0.1,0.1,0.3,0.2,0.4,0.4c-0.1,0.1-0.2,0.2-0.3,0.3c-0.1-0.1-0.3-0.2-0.4-0.4
		C76.1,28.9,76.1,28.8,76.2,28.7z M76.4,30.2c-0.2,0-0.4,0.2-0.4,0.3c0,0.3,0.4,0.4,1,0.4C77,30.6,76.7,30.2,76.4,30.2z"/>
	<path class="st0" d="M80.1,32.6c-0.2,0.4-0.7,0.7-1.1,0.7c-0.7,0-1-0.5-1-1.1c0-0.4,0.1-0.7,0.3-1l0.1,0.1
		c-0.1,0.2-0.2,0.4-0.2,0.6c0,0.6,0.4,0.9,0.8,0.9c0.4,0,0.8-0.3,1-0.6c0-0.4-0.2-0.8-0.4-1.1c0.1-0.1,0.2-0.2,0.3-0.4l0,0
		c0.1,0.2,0.2,0.5,0.3,0.8h0c0.2-0.3,0.4-0.6,0.7-0.9c0.2-0.2,0.5-0.4,0.8-0.4c0.3,0,0.5,0.2,0.6,0.4c0.1,0.1,0.1,0.3,0.1,0.4
		c0,0.1,0,0.2-0.1,0.3c-0.1,0.3-0.3,0.5-0.7,0.6c-0.2,0.1-0.5,0.1-0.9,0.1c-0.1,0-0.3,0-0.6-0.1C80.2,32.3,80.1,32.5,80.1,32.6z
		 M81,31.7c0.3,0,0.7-0.1,0.9-0.2c0.2-0.1,0.3-0.2,0.3-0.2c0-0.3-0.3-0.5-0.6-0.5c-0.4,0-0.9,0.4-1.2,0.9
		C80.5,31.7,80.7,31.7,81,31.7z"/>
	<path class="st0" d="M85.2,28.6c0,0.2,0.1,0.5,0.3,0.8c-0.1,0.1-0.1,0.1-0.2,0.2c0,0.4,0,1,0,1.4c0,0.2,0,0.5-0.2,1
		c-0.1,0.2-0.2,0.3-0.4,0.4c-0.2,0.1-0.5,0.2-0.7,0.2c-0.3,0-0.5-0.1-0.7-0.3c-0.2-0.2-0.2-0.4-0.2-0.8c0-0.3,0.1-0.6,0.2-0.9l0.1,0
		c-0.1,0.2-0.1,0.4-0.1,0.6c0,0.2,0.1,0.4,0.2,0.5c0.1,0.2,0.4,0.3,0.6,0.3c0.2,0,0.4-0.1,0.6-0.2c0.2-0.1,0.3-0.2,0.4-0.3
		c0-0.1,0-0.1,0-0.2c0-0.5,0-1.2-0.1-1.9c0-0.1,0-0.3,0-0.5c0-0.1,0-0.2,0.1-0.3C85,28.8,85.1,28.7,85.2,28.6L85.2,28.6z"/>
	<path class="st0" d="M88.6,31.8c-0.4,0-0.8-0.2-0.8-0.6c0-0.2,0.1-0.4,0.2-0.6c0.2-0.2,0.3-0.3,0.5-0.3c0.2,0,0.4,0.1,0.5,0.4
		c0.1,0.2,0.2,0.6,0.2,0.9c0,0.3-0.1,0.6-0.3,0.9c-0.3,0.5-0.6,0.7-0.9,0.7c-0.3,0-0.6-0.1-1-0.3l0.1-0.1c0.2,0.1,0.3,0.1,0.5,0.1
		c0.3,0,0.7-0.2,1-0.5c0.2-0.2,0.3-0.4,0.3-0.6C88.9,31.8,88.8,31.8,88.6,31.8z M88.5,30.7c-0.2,0-0.4,0.2-0.4,0.3
		c0,0.2,0.3,0.4,0.6,0.4c0.1,0,0.3,0,0.4,0C89,31,88.8,30.7,88.5,30.7z"/>
	<path class="st0" d="M92.1,28.6c0,0.2,0.1,0.5,0.3,0.8c-0.1,0.1-0.1,0.1-0.2,0.2c0,0.4,0,1,0,1.4c0,0.2,0,0.5-0.2,1
		c-0.1,0.2-0.2,0.3-0.4,0.4c-0.2,0.1-0.5,0.2-0.7,0.2c-0.3,0-0.5-0.1-0.7-0.3c-0.2-0.2-0.2-0.4-0.2-0.8c0-0.3,0.1-0.6,0.2-0.9l0.1,0
		c-0.1,0.2-0.1,0.4-0.1,0.6c0,0.2,0.1,0.4,0.2,0.5c0.1,0.2,0.4,0.3,0.6,0.3c0.2,0,0.4-0.1,0.6-0.2c0.2-0.1,0.3-0.2,0.4-0.3
		c0-0.1,0-0.1,0-0.2c0-0.5,0-1.2-0.1-1.9c0-0.1,0-0.3,0-0.5c0-0.1,0-0.2,0.1-0.3C91.9,28.8,92,28.7,92.1,28.6L92.1,28.6z"/>
	<path class="st0" d="M93,32.2c0-0.2,0-0.5,0-0.7v-0.3c0-0.6-0.1-1.5-0.1-2.1c0.1-0.1,0.2-0.3,0.3-0.4l0,0c0.1,0.8,0.1,1.6,0.1,2.4
		c0,0.2,0,0.4,0,0.6C93.3,31.9,93.2,32,93,32.2L93,32.2z"/>
	<path class="st0" d="M96.7,30.8c-0.1-0.3-0.2-0.4-0.3-0.4c-0.2,0-0.4,0.1-0.5,0.2c-0.2,0.2-0.3,0.3-0.3,0.4c0,0.3,0.9,0.3,1.1,0.5
		c0.1,0.1,0.2,0.2,0.2,0.4c0,0.2-0.1,0.5-0.3,0.6c-0.3,0.3-0.9,0.6-1.3,0.6c-0.8,0-1.2-0.5-1.2-1.3c0-0.3,0.1-0.6,0.2-0.9l0.1,0
		c-0.1,0.2-0.1,0.4-0.1,0.6c0,0.7,0.4,1,1,1c0.2,0,0.6-0.1,0.9-0.3c0.2-0.1,0.4-0.3,0.4-0.3c0-0.1-0.3-0.2-0.5-0.2
		c-0.3,0-0.5-0.1-0.6-0.2c-0.1-0.1-0.1-0.2-0.1-0.3c0-0.3,0.1-0.6,0.4-0.9c0.2-0.2,0.6-0.5,0.9-0.5c0.1,0,0.2,0.1,0.3,0.2
		c0.1,0.1,0.1,0.2,0.1,0.3C96.8,30.5,96.8,30.7,96.7,30.8L96.7,30.8z M95,34.2c-0.1-0.1-0.3-0.2-0.4-0.4c0.1-0.1,0.2-0.2,0.3-0.3
		c0.1,0.1,0.3,0.2,0.4,0.4C95.2,34,95.1,34.1,95,34.2z M95.7,34.2c-0.1-0.1-0.3-0.2-0.4-0.4c0.1-0.1,0.2-0.2,0.3-0.3
		c0.1,0.1,0.3,0.2,0.4,0.4C95.9,34,95.8,34.1,95.7,34.2z"/>
	<path class="st0" d="M99.2,32.3c-1,0-1.7-0.4-1.7-1.2c0-0.3,0.1-0.6,0.2-0.8l0.1,0.1c-0.1,0.2-0.1,0.4-0.1,0.5c0,0.7,0.7,1,1.6,1
		c0.4,0,0.8-0.1,1.2-0.1c0.2,0,0.3-0.1,0.5-0.1c0,0,0,0,0,0c0-0.2-0.2-0.5-0.3-0.9c0.1-0.1,0.2-0.3,0.3-0.4h0
		c0.2,0.3,0.3,0.7,0.3,1.1c0,0.3-0.1,0.4-0.2,0.6C100.7,32.1,99.9,32.3,99.2,32.3z M99,30c-0.1-0.1-0.3-0.2-0.4-0.4
		c0.1-0.1,0.2-0.2,0.3-0.3c0.1,0.1,0.3,0.2,0.4,0.4C99.2,29.8,99.1,29.9,99,30z M99.7,29.9c-0.1-0.1-0.3-0.2-0.4-0.4
		c0.1-0.1,0.2-0.2,0.3-0.3c0.1,0.1,0.3,0.2,0.4,0.4C99.9,29.8,99.8,29.9,99.7,29.9z"/>
	<path class="st0" d="M106,28.6c0,0.2,0.1,0.4,0.3,0.8c-0.1,0.1-0.2,0.1-0.2,0.2c0,0.5,0,1,0,1.4c0,0.2-0.1,0.6-0.3,0.8
		c-0.4,0.3-0.9,0.4-1.3,0.4c-0.4,0-0.7-0.1-0.9-0.3c-0.2-0.2-0.2-0.4-0.2-0.6c0-0.3,0.1-0.5,0.2-0.8l0.1,0c0,0.1-0.1,0.3-0.1,0.4
		c0,0.3,0.1,0.5,0.3,0.7c0.2,0.1,0.4,0.2,0.6,0.2c0.4,0,0.7-0.1,1.2-0.3c0.1,0,0.1-0.1,0.1-0.5c0-0.4,0-0.9-0.1-1.4
		c0-0.2,0-0.4,0-0.5c0-0.2,0-0.2,0.1-0.3C105.8,28.7,105.9,28.7,106,28.6L106,28.6z M105,29.7L105,29.7c-0.2,0.1-0.4,0.2-0.4,0.3
		h0.3c0.2,0,0.3,0.1,0.3,0.3c0,0.3-0.3,0.5-0.6,0.5c-0.1,0-0.2,0-0.2,0l-0.2-0.1v0c0.4,0,0.9-0.1,0.9-0.3c0,0-0.1,0-0.3,0
		c-0.2,0-0.3,0-0.3,0v-0.1c0-0.1,0.1-0.3,0.2-0.5c0.1-0.2,0.3-0.3,0.4-0.3c0.1,0,0.1,0,0.1,0.1C105,29.5,105,29.6,105,29.7L105,29.7
		z"/>
	<path class="st0" d="M107.9,31.8c-0.4,0-0.8-0.2-0.8-0.6c0-0.2,0.1-0.4,0.2-0.6c0.2-0.2,0.3-0.3,0.5-0.3c0.2,0,0.4,0.1,0.5,0.4
		c0.1,0.2,0.2,0.6,0.2,0.9c0,0.3-0.1,0.6-0.3,0.9c-0.3,0.5-0.6,0.7-0.9,0.7c-0.3,0-0.6-0.1-1-0.3l0.1-0.1c0.2,0.1,0.3,0.1,0.5,0.1
		c0.3,0,0.7-0.2,1-0.5c0.2-0.2,0.3-0.4,0.3-0.6C108.2,31.8,108.1,31.8,107.9,31.8z M107.8,30.7c-0.2,0-0.4,0.2-0.4,0.3
		c0,0.2,0.3,0.4,0.6,0.4c0.1,0,0.3,0,0.4,0C108.3,31,108.1,30.7,107.8,30.7z"/>
	<path class="st0" d="M110.4,30.4l0.2,0.5c0.1,0.2,0.2,0.4,0.2,0.7v0.4c0,0.3-0.2,0.6-0.4,1c-0.2,0.2-0.4,0.3-0.6,0.3
		c-0.3,0-0.5-0.1-0.9-0.3l0-0.1c0.1,0,0.2,0.1,0.4,0.1c0.5,0,1-0.4,1.2-0.9c0-0.1,0-0.1,0-0.2c0-0.1,0-0.1,0-0.2
		c-0.1-0.3-0.3-0.5-0.4-0.8C110.2,30.6,110.3,30.5,110.4,30.4L110.4,30.4z"/>
	<path class="st0" d="M113,31c-0.4-0.1-0.6-0.2-1-0.2c-0.2,0-0.3,0.1-0.4,0.2l0.1,0.3l-0.1,0.3l0,0l-0.2-0.5c0-0.4,0.3-0.6,0.7-0.6
		c0.2,0,0.6,0.1,1.1,0.3c0.2,0.1,0.3,0.1,0.6,0.1l0.3,0l0,0l-0.2,0.3c-0.2,0-0.8,0.2-0.9,0.2c-0.8,0.3-1.3,0.7-1.3,1.1
		c0,0.7,0.8,1.1,1.7,1.1c0.3,0,0.6,0,0.9-0.1l0,0c-0.2,0.1-0.4,0.3-0.6,0.4c-0.2,0-0.4,0.1-0.7,0.1c-0.9,0-1.7-0.4-1.7-1.4
		C111.5,31.9,112.1,31.2,113,31L113,31z M113,32.1c0.1,0.1,0.3,0.2,0.4,0.4c-0.1,0.1-0.2,0.2-0.3,0.3c-0.1-0.1-0.3-0.2-0.4-0.4
		C112.8,32.4,112.9,32.3,113,32.1z"/>
	<path class="st0" d="M116.7,30.8c0.1,0.2,0.2,0.3,0.2,0.5c0,0.1,0.1,0.3,0.3,0.3c0.1,0,0.2,0,0.2-0.1c0.1-0.1,0.2-0.1,0.2-0.3
		l0.1-0.3l0.2-0.1l0,0c0,0.1,0,0.2,0,0.3c0,0.3,0.2,0.4,0.4,0.4c0.1,0,0.2-0.1,0.2-0.2c0-0.1,0-0.4-0.1-0.6c0.1-0.1,0.2-0.2,0.3-0.3
		l0,0c0,0.2,0.1,0.5,0.1,0.6c0,0.2-0.1,0.3-0.1,0.4c-0.1,0.2-0.3,0.4-0.5,0.4c-0.2,0-0.3-0.1-0.5-0.3h0c-0.1,0.2-0.3,0.3-0.6,0.3
		h-0.1c0,0.2-0.1,0.4-0.1,0.5c-0.2,0.4-0.7,0.7-1.2,0.7c-0.7,0-1-0.5-1-1.1c0-0.4,0.1-0.7,0.3-1l0.1,0.1c-0.1,0.2-0.2,0.4-0.2,0.6
		c0,0.6,0.4,0.8,0.8,0.8c0.4,0,0.9-0.3,1-0.7c0-0.4-0.2-0.6-0.4-0.9C116.5,31,116.5,30.9,116.7,30.8L116.7,30.8z"/>
	<path class="st0" d="M121,32.3c-1,0-1.7-0.4-1.7-1.2c0-0.3,0.1-0.6,0.2-0.8l0.1,0.1c-0.1,0.2-0.1,0.4-0.1,0.5c0,0.7,0.7,1,1.6,1
		c0.4,0,0.8-0.1,1.2-0.1c0.2,0,0.3-0.1,0.5-0.1c0,0,0,0,0,0c0-0.2-0.2-0.5-0.3-0.9c0.1-0.1,0.2-0.3,0.3-0.4h0
		c0.2,0.3,0.3,0.7,0.3,1.1c0,0.3-0.1,0.4-0.2,0.6C122.6,32.1,121.7,32.3,121,32.3z M120.9,30c-0.1-0.1-0.3-0.2-0.4-0.4
		c0.1-0.1,0.2-0.2,0.3-0.3c0.1,0.1,0.3,0.2,0.4,0.4C121,29.8,121,29.9,120.9,30z M121.5,29.9c-0.1-0.1-0.3-0.2-0.4-0.4
		c0.1-0.1,0.2-0.2,0.3-0.3c0.1,0.1,0.3,0.2,0.4,0.4C121.7,29.8,121.6,29.9,121.5,29.9z"/>
	<path class="st0" d="M123.7,32.2c0-0.2,0-0.5,0-0.7v-0.3c0-0.6-0.1-1.5-0.1-2.1c0.1-0.1,0.2-0.3,0.3-0.4l0,0
		c0.1,0.8,0.1,1.6,0.1,2.4c0,0.2,0,0.4,0,0.6C124.1,31.9,124,32,123.7,32.2L123.7,32.2z"/>
	<path class="st0" d="M126.8,30.2c0.2,0.5,0.4,0.9,0.4,1.4c0,0.3-0.1,0.7-0.2,0.9c-0.3,0.3-0.7,0.5-1.1,0.5c-0.6,0-1.1-0.4-1.1-1
		c0-0.4,0.1-0.7,0.3-1l0.1,0.1c-0.1,0.2-0.2,0.5-0.2,0.6c0,0.3,0.1,0.5,0.2,0.6c0.1,0.1,0.4,0.2,0.7,0.2c0.3,0,0.6-0.1,0.8-0.3
		c0.2-0.1,0.2-0.2,0.2-0.3c0-0.2-0.1-0.4-0.1-0.6c-0.1-0.3-0.2-0.5-0.3-0.7C126.6,30.4,126.7,30.3,126.8,30.2L126.8,30.2z M125.9,29
		c0.1,0.1,0.3,0.2,0.4,0.4c-0.1,0.1-0.2,0.2-0.3,0.3c-0.1-0.1-0.3-0.2-0.4-0.4C125.7,29.3,125.8,29.1,125.9,29z"/>
</g>
<g>
	<g id="XMLID_19_">
		<g>
			<path class="st0" d="M50.1,18.1L30.4,28.5c-1.1,1.5-2.9,2.4-4.8,2.4c-1.9,0-3.6-0.9-4.8-2.4L1.2,18.1c-0.5-0.3-0.8-1-0.5-1.5
				c0.3-0.5,1-0.8,1.5-0.5l20,10.5c0.2,0.1,0.3,0.2,0.4,0.4c0.7,1,1.8,1.6,3.1,1.6c1.3,0,2.4-0.6,3.1-1.6c0.1-0.2,0.2-0.3,0.4-0.4
				l20-10.5c0.5-0.3,1.2-0.1,1.5,0.5C50.9,17.1,50.7,17.8,50.1,18.1z M23.1,22.7c0.1,0.2,0.3,0.3,0.5,0.3c0.1,0,0.2,0,0.3-0.1
				c0.3-0.2,0.3-0.5,0.2-0.8L14.5,6.7c-0.2-0.3-0.5-0.3-0.8-0.2c-0.3,0.2-0.3,0.5-0.2,0.8L23.1,22.7z M6.1,13.5l15.4,10.8
				c0.1,0.1,0.2,0.1,0.3,0.1c0.2,0,0.4-0.1,0.5-0.2c0.2-0.3,0.1-0.6-0.1-0.8L6.8,12.6c-0.3-0.2-0.6-0.1-0.8,0.1
				C5.8,13,5.9,13.3,6.1,13.5z M29,24.2c0.1,0.2,0.3,0.2,0.5,0.2c0.1,0,0.2,0,0.3-0.1l15.4-10.8c0.3-0.2,0.3-0.5,0.1-0.8
				c-0.2-0.3-0.5-0.3-0.8-0.1L29.1,23.4C28.9,23.6,28.8,23.9,29,24.2z M27.5,22.9c0.1,0.1,0.2,0.1,0.3,0.1c0.2,0,0.4-0.1,0.5-0.3
				l9.5-15.5c0.2-0.3,0.1-0.6-0.2-0.8c-0.3-0.2-0.6-0.1-0.8,0.2l-9.5,15.5C27.1,22.4,27.2,22.8,27.5,22.9z M25.7,22.6
				c0.3,0,0.6-0.3,0.6-0.6V4.4c0-0.3-0.3-0.6-0.6-0.6c-0.3,0-0.6,0.3-0.6,0.6V22C25.1,22.3,25.3,22.6,25.7,22.6z"/>
		</g>
	</g>
</g>
<g>
	<g>
		<path class="st0" d="M58.3,14.5l-0.6,0.6c-0.2,0.2-0.4,0.3-0.6,0.3c-0.1,0-0.1,0-0.2,0c-0.2,0-0.4-0.1-0.5-0.3
			C56.1,15,56,14.7,56,14.4c0-0.2,0.1-0.5,0.2-0.8c0.1-0.2,0.2-0.3,0.2-0.4c0.1-0.1,0.2-0.3,0.3-0.4c0.1-0.1,0.2-0.2,0.3-0.3
			c0.1-0.1,0.2-0.2,0.2-0.2c0.2-0.2,0.3-0.3,0.3-0.4c0.1-0.1,0.1-0.2,0.2-0.4c0.1-0.2,0.1-0.4,0.1-0.6c0-0.2,0-0.5-0.1-0.8
			c0-0.2-0.1-0.3-0.2-0.4c-0.1-0.1-0.2-0.2-0.4-0.2c-0.1,0-0.2,0-0.3,0.1c-0.2,0.1-0.3,0.2-0.3,0.4c0,0.1,0,0.2,0,0.3
			c0.1,0.4,0.2,0.6,0.2,0.8c0.1,0.1,0.2,0.2,0.3,0.3l0,0l-0.3,0.3l-0.1,0c-0.1,0-0.2-0.2-0.4-0.3s-0.2-0.3-0.3-0.5c0,0,0,0,0-0.1
			c0,0,0-0.1,0-0.1s0-0.1,0-0.2c0-0.1,0-0.2,0.1-0.3l1-1c0,0,0.1,0,0.1-0.1c0,0,0.1,0,0.1,0c0,0,0.1,0,0.1,0c0.1,0,0.2,0,0.4,0
			c0.2,0,0.4,0.1,0.5,0.2c0.1,0.2,0.2,0.4,0.2,0.6l-0.3,1.3L58,11.9c0.2,0.1,0.4,0.2,0.5,0.2c0.1,0.1,0.2,0.2,0.3,0.4
			c0.1,0.2,0.1,0.3,0.1,0.5c0,0.2-0.1,0.5-0.2,0.8C58.7,14,58.5,14.3,58.3,14.5z M57.8,14.8l0.2-0.3c0.1-0.1,0.2-0.3,0.3-0.5
			c0.1-0.2,0.1-0.4,0.1-0.7c0-0.3-0.1-0.5-0.3-0.7c-0.1-0.1-0.3-0.2-0.4-0.3c-0.1,0.1-0.3,0.2-0.4,0.3c-0.2,0.2-0.4,0.4-0.5,0.5
			c-0.2,0.3-0.3,0.6-0.3,0.9c0,0.2,0.1,0.5,0.2,0.7c0,0,0.1,0.1,0.2,0.1c0.1,0,0.2,0,0.3,0C57.5,15,57.6,14.9,57.8,14.8z"/>
		<path class="st0" d="M60.5,9.6l0.4-0.4C61,9,61.2,9,61.4,9c0.1,0,0.2,0,0.3,0.1c0.1,0.1,0.1,0.2,0.2,0.3L62,10l0.5-0.6
			c0.1-0.1,0.2-0.2,0.3-0.2c0,0,0,0,0.1,0c0,0,0.1,0,0.1,0c0,0,0.1,0,0.1,0c0,0,0.1,0,0.1,0c0.3,0.2,0.4,0.5,0.4,1.1
			c0,0.2,0,0.5-0.1,0.8c0,0.3-0.1,0.6-0.2,0.9c-0.1,0.3-0.1,0.5-0.2,0.8c-0.1,0.2-0.1,0.4-0.2,0.7c-0.1,0.2-0.2,0.5-0.4,0.7
			c-0.2,0.2-0.3,0.4-0.5,0.6c-0.3,0.4-0.7,0.6-1.2,0.7c-0.2,0.1-0.4,0.1-0.6,0.1c-0.2,0-0.5-0.1-0.7-0.2c-0.1-0.1-0.3-0.2-0.4-0.3
			l0.2-0.9c0.2,0.2,0.3,0.4,0.5,0.4c0.3,0.2,0.5,0.3,0.8,0.3c0.1,0,0.3,0,0.4-0.1c0.2-0.1,0.4-0.2,0.7-0.5c0.3-0.3,0.5-0.5,0.6-0.8
			c0.1-0.2,0.2-0.5,0.4-0.9c0.1-0.4,0.2-0.8,0.2-1.3c0,0,0-0.1,0-0.1c0-0.1,0-0.2,0-0.2c0-0.1,0-0.2,0-0.2c0-0.1,0-0.2,0-0.3
			c0-0.3,0-0.5,0-0.6c-0.1-0.2-0.2-0.2-0.3-0.2c-0.1,0-0.1,0-0.2,0.1l-1.1,1.4L61.2,10C61.1,9.9,61,9.8,61,9.7c0,0-0.1-0.1-0.2-0.1
			c0,0-0.1,0-0.1,0c0,0,0,0-0.1,0.1c0,0,0,0.1,0,0.1L60,10.6c0-0.2,0-0.3-0.1-0.5c-0.1-0.2-0.2-0.3-0.3-0.4
			c-0.1-0.1-0.2-0.1-0.3-0.1l-0.2,0l0.4-0.4c0,0,0,0,0,0c0,0,0,0,0,0c0,0,0,0,0,0c0.1-0.1,0.2-0.1,0.3-0.1c0.1,0,0.2,0,0.3,0.1
			c0.1,0,0.1,0.1,0.2,0.2C60.5,9.5,60.5,9.5,60.5,9.6z"/>
		<path class="st0" d="M66.4,9.3c0.1-0.1,0.2-0.2,0.3-0.2c0.1,0,0.2,0,0.4,0c0.2,0,0.4,0.1,0.5,0.2c0.1,0.1,0.2,0.3,0.2,0.6l0.2,1.8
			L67.3,12L67,10.1c0-0.1-0.1-0.2-0.2-0.4c-0.1-0.2-0.1-0.2-0.2-0.2c0,0-0.1,0-0.1,0.1l-1.1,1.4L65.1,10C65,9.9,65,9.8,64.9,9.7
			c-0.1,0-0.1-0.1-0.2-0.1c-0.1,0-0.1,0.1-0.2,0.1c-0.1,0.1-0.1,0.1-0.1,0.2c0,0.1,0,0.2,0,0.3c0.1,0.4,0.2,0.6,0.2,0.8
			c0.1,0.1,0.2,0.2,0.3,0.3l0,0l-0.3,0.3l-0.1,0c-0.1,0-0.2-0.2-0.4-0.3c-0.1-0.2-0.2-0.3-0.3-0.5c0,0,0,0,0-0.1c0,0,0-0.1,0-0.1
			s0-0.1,0-0.2c0-0.1,0-0.2,0.1-0.3l1-1c0.1-0.1,0.3-0.1,0.5-0.1c0.2,0,0.4,0.1,0.4,0.3l0.2,0.6L66.4,9.3z M72.8,4.6
			C72.4,4.8,72.1,4.9,72,5c-0.3,0.1-0.6,0.1-1,0.1c-0.4,0-0.8-0.1-1.4-0.2c-0.5-0.2-1.1-0.3-1.6-0.5c-0.5-0.2-1-0.2-1.3-0.2
			c-0.2,0-0.3,0-0.5,0.1c-0.2,0-0.3,0.1-0.5,0.2c-0.1,0.1-0.2,0.2-0.3,0.3c-0.2,0.2-0.3,0.6-0.4,1c-0.1,0.4-0.1,0.9-0.1,1.3
			c0,0.2,0,0.4,0,0.6c0,0.2,0.1,0.4,0.1,0.5c0,0.2,0.1,0.3,0.1,0.4l-1,0.8c0-0.5,0.1-0.9,0.1-1c0-0.4,0.1-0.7,0.1-0.9
			c0-0.3,0.1-0.5,0.1-0.7c0-0.2,0.1-0.4,0.1-0.6c0.1-0.5,0.2-0.9,0.4-1.2c0.2-0.3,0.4-0.6,0.7-0.8c0.3-0.2,0.6-0.4,1-0.6
			c0.3-0.2,0.7-0.2,1.1-0.2c0.3,0,0.7,0.1,1.1,0.3c0.5,0.2,1,0.4,1.5,0.6c0.5,0.2,1,0.3,1.3,0.3c0.2,0,0.4,0,0.6,0
			c0.1,0,0.3-0.1,0.4-0.1C72.9,4.3,73,4.2,73,4.1c0,0,0,0,0.1,0.1c0,0,0,0.1,0,0.1L72.8,4.6z"/>
		<path class="st0" d="M68.9,12.5c-0.1,0.2-0.1,0.3-0.1,0.3c0,0.1,0.1,0.2,0.2,0.2c0.1,0,0.2,0.1,0.3,0.1c0.1,0,0.3-0.1,0.4-0.2
			c0.1-0.1,0.2-0.2,0.2-0.3c0,0,0,0,0,0c0-0.1,0-0.2-0.1-0.3c-0.1-0.1-0.1-0.1-0.2-0.2l-0.2-0.1c-0.1,0-0.1-0.1-0.2-0.2
			C69,11.9,69,11.8,69,11.8l0.8-1l-0.8-1c0,0,0,0-0.1,0c-0.1,0-0.1,0-0.2,0c0.2-0.1,0.3-0.2,0.3-0.3c0.2-0.2,0.4-0.3,0.5-0.3l0.1,0
			l0.7,1c0.2-0.3,0.4-0.5,0.5-0.6c0.2-0.2,0.4-0.4,0.6-0.4c0.1,0,0.3,0,0.5,0.1c0.1,0,0.1,0.1,0.2,0.1l-0.6,0.8
			c-0.1-0.1-0.1-0.2-0.2-0.2c-0.1-0.1-0.3-0.2-0.4-0.2c-0.1,0-0.2,0-0.3,0.1c0,0,0,0-0.1,0.1s-0.1,0.1-0.1,0.1
			c0,0.1-0.1,0.1-0.1,0.1l1.4,2c0,0,0,0,0,0.1c0,0,0,0.1,0,0.1c0,0.1,0,0.1,0,0.1c0,0.1,0,0.1-0.1,0.1L71.3,13l-1.4-2.1l-0.4,0.5
			c0,0.1,0.1,0.1,0.1,0.2c0,0,0.1,0.1,0.1,0.1l0.2,0.1c0.1,0,0.2,0.1,0.3,0.2c0.1,0.1,0.1,0.2,0.1,0.2c0,0.1,0,0.2-0.1,0.4
			c-0.1,0.2-0.2,0.3-0.4,0.6c-0.3,0.4-0.7,0.6-1.2,0.7c0,0-0.1,0-0.1,0c-0.1,0-0.2,0-0.3-0.1c-0.1-0.1-0.1-0.2-0.1-0.3
			c0-0.3,0.1-0.6,0.2-0.9L68.9,12.5z"/>
		<path class="st0" d="M72.2,10.2l1-1c0,0,0.1,0,0.1-0.1c0,0,0.1,0,0.1,0c0,0,0.1,0,0.1,0c0.1,0,0.2,0,0.4,0c0.2,0,0.4,0.1,0.5,0.2
			c0.1,0.1,0.2,0.3,0.2,0.6l0.2,1.8L74.1,12l-0.3-1.9c0-0.2-0.1-0.3-0.2-0.4c-0.1-0.1-0.2-0.2-0.4-0.2c-0.1,0-0.2,0-0.3,0.1
			c-0.2,0.1-0.3,0.2-0.3,0.4c0,0.1,0,0.2,0,0.3c0.1,0.4,0.2,0.6,0.2,0.8c0.1,0.1,0.2,0.2,0.3,0.3l0,0L73,11.7l-0.1,0
			c-0.1,0-0.2-0.2-0.4-0.3c-0.1-0.2-0.2-0.3-0.3-0.5c0,0,0,0,0-0.1c0,0,0-0.1,0-0.1c0,0,0-0.1,0-0.2C72.2,10.4,72.2,10.3,72.2,10.2z
			"/>
		<path class="st0" d="M76.6,11.3c0.2,0,0.3-0.1,0.4-0.3c0-0.1,0-0.2,0-0.3c0-0.2-0.1-0.3-0.2-0.4l-0.1-0.1
			c-0.1-0.1-0.2-0.3-0.2-0.4c0-0.2,0-0.3,0.1-0.3L77.4,9l0.1,0c0,0,0,0.1-0.1,0.1c0,0,0,0.1-0.1,0.2c0,0.1,0,0.1,0,0.1
			c0,0.1,0,0.2,0,0.2c0,0,0,0.1,0,0.1c0,0,0,0,0,0.1l0.2,0.2c0.1,0.1,0.2,0.3,0.2,0.5c0,0.1,0,0.1,0,0.2c0,0.1-0.2,0.2-0.3,0.4
			c-0.2,0.2-0.4,0.3-0.7,0.4c-0.2,0.1-0.4,0.2-0.6,0.2l-0.8-0.6c-0.1-0.1-0.1-0.2-0.1-0.3c0,0,0,0,0,0V6c0-0.1,0-0.1,0-0.1
			c0,0,0-0.1-0.1-0.1c0.1,0,0.1,0,0.2-0.1c0.1,0,0.1-0.1,0.2-0.1c0.3-0.1,0.5-0.2,0.5-0.3c0,0,0,0.1,0,0.1c0,0,0,0.1-0.1,0.1
			c0,0,0,0.1,0,0.1v4.9c0,0.2,0.1,0.3,0.2,0.4C76.3,11.2,76.4,11.3,76.6,11.3z"/>
		<path class="st0" d="M82.2,11.9c0.1,0.3,0.2,0.6,0.2,1c0,0.3,0,0.7-0.1,1.1c-0.1,0.5-0.3,0.9-0.7,1.2c-0.2,0.2-0.5,0.3-0.8,0.3
			c-0.1,0-0.2,0-0.3,0c-0.7-0.2-1.3-0.8-1.7-1.8c-0.1-0.3-0.2-0.6-0.3-0.8c-0.1-0.3-0.1-0.5-0.2-0.8c0-0.3-0.1-0.6-0.1-0.8
			c0-0.2,0-0.4,0-0.7l0.2-1.4L79,9.8l-0.2,2.4c0,0.6,0.1,1,0.3,1.4c0.2,0.5,0.5,0.7,0.9,0.8c0.1,0,0.2,0,0.3,0
			c0.2,0,0.5-0.1,0.7-0.3c0.3-0.2,0.5-0.6,0.6-1.2c0-0.2,0.1-0.4,0.1-0.5c0-0.2,0-0.4-0.1-0.6c-0.1-0.2-0.2-0.4-0.3-0.5
			c-0.1-0.2-0.3-0.3-0.6-0.4c-0.3-0.1-0.4-0.2-0.6-0.3c-0.1-0.1-0.3-0.3-0.4-0.5c0,0,0-0.1,0-0.1c0-0.1,0.1-0.2,0.2-0.3L80.5,9
			c0,0,0.1,0,0.2,0C80.8,9,81,9,81.2,9c0.2,0,0.2,0.1,0.2,0.2c0,0.1,0,0.2,0,0.2c-0.2,0.2-0.3,0.4-0.4,0.5c-0.3,0.3-0.5,0.5-0.5,0.5
			l0-0.1l0.4-0.4c0,0,0.1-0.1,0.1-0.2c0-0.1-0.1-0.2-0.2-0.2c-0.1,0-0.2,0-0.3,0c0,0-0.1,0-0.1,0c0,0,0,0,0,0c0,0.1,0,0.1-0.1,0.1
			c0,0.1-0.1,0.2-0.1,0.3c0,0.1,0,0.3,0,0.4c0,0.1,0.1,0.2,0.2,0.3c0.1,0,0.2,0.1,0.4,0.2c0.2,0.1,0.4,0.1,0.6,0.2
			c0.2,0.1,0.3,0.2,0.5,0.4C81.9,11.4,82.1,11.6,82.2,11.9z"/>
		<path class="st0" d="M83,10.1h0.8c-0.1,0.1-0.2,0.2-0.2,0.2c-0.2,0.2-0.3,0.3-0.3,0.4c0,0,0,0.1,0,0.1c0,0.1,0,0.1,0.1,0.2
			c0.1,0.1,0.2,0.2,0.3,0.3c0.1,0,0.2,0,0.3,0c0.1,0,0.2,0,0.3,0c0.2,0,0.3-0.1,0.4-0.3c0-0.1,0-0.2,0-0.3c0-0.2-0.1-0.3-0.2-0.4
			l-0.1-0.1c-0.1-0.1-0.2-0.3-0.2-0.4c0-0.2,0.1-0.3,0.1-0.3L85,9l0.1,0c0,0,0,0.1,0,0.1c0,0,0,0.1-0.1,0.2c0,0.1,0,0.1,0,0.1
			c0,0.1,0,0.2,0,0.2c0,0,0,0.1,0,0.1c0,0,0,0,0,0.1l0.2,0.2c0.1,0.1,0.2,0.3,0.2,0.5c0,0.1,0,0.1,0,0.2c0,0.1-0.1,0.2-0.3,0.4
			c-0.2,0.1-0.4,0.3-0.7,0.4c-0.3,0.2-0.7,0.3-1,0.3c-0.2,0-0.5,0-0.7-0.1c-0.2-0.1-0.4-0.2-0.4-0.3c0-0.1,0-0.1,0-0.2c0,0,0,0,0,0
			c0-0.1,0-0.1,0-0.2c0-0.1,0.1-0.3,0.3-0.5C82.8,10.3,82.9,10.2,83,10.1z"/>
		<path class="st0" d="M88.3,6.6c-0.1-0.1-0.2-0.2-0.3-0.2c-0.1-0.1-0.3-0.1-0.5-0.2c-0.2,0-0.3-0.1-0.5-0.1c-0.2,0-0.3,0-0.4,0v3.3
			l0.6-0.3l0.9,0.8c0.1,0.1,0.2,0.2,0.3,0.3c0.1,0.1,0.1,0.2,0.1,0.4c0,0.2-0.1,0.3-0.2,0.4l-1.1,0.6c-0.1,0.1-0.3,0.1-0.4,0.1
			L86,11.1c-0.1-0.1-0.1-0.2-0.1-0.3c0,0,0,0,0,0V6c0-0.1,0.1-0.3,0.2-0.4s0.3-0.2,0.5-0.2c0.2,0,0.3-0.1,0.4-0.1c0.3,0,0.6,0,0.7,0
			c0.2,0,0.4,0.1,0.6,0.2c0,0,0.1,0,0.1,0c0,0,0,0.1,0,0.1c0,0,0,0,0,0.1L88.3,6.6z M86.6,9.6v1.1c0,0.2,0.1,0.3,0.2,0.4
			c0.1,0.1,0.2,0.2,0.4,0.2c0.2,0,0.3,0,0.4-0.1c0.1-0.1,0.1-0.2,0.1-0.3c0-0.1,0-0.2-0.1-0.3c0,0-0.1-0.1-0.2-0.2L86.6,9.6z"/>
		<path class="st0" d="M88.9,10.2l1-1c0,0,0.1,0,0.1-0.1c0,0,0.1,0,0.1,0c0,0,0.1,0,0.1,0c0.1,0,0.2,0,0.4,0c0.2,0,0.4,0.1,0.5,0.2
			c0.1,0.1,0.2,0.3,0.2,0.6l0.2,1.8L90.7,12l-0.3-1.9c0-0.2-0.1-0.3-0.2-0.4c-0.1-0.1-0.2-0.2-0.4-0.2c-0.1,0-0.2,0-0.3,0.1
			c-0.2,0.1-0.3,0.2-0.3,0.4c0,0.1,0,0.2,0,0.3c0.1,0.4,0.2,0.6,0.2,0.8c0.1,0.1,0.2,0.2,0.3,0.3l0,0l-0.3,0.3l-0.1,0
			c-0.1,0-0.2-0.2-0.4-0.3c-0.1-0.2-0.2-0.3-0.3-0.5c0,0,0,0,0-0.1c0,0,0-0.1,0-0.1c0,0,0-0.1,0-0.2C88.8,10.4,88.8,10.3,88.9,10.2z
			"/>
		<path class="st0" d="M93.2,11.3c0.2,0,0.3-0.1,0.4-0.3c0-0.1,0-0.2,0-0.3c0-0.2-0.1-0.3-0.2-0.4l-0.1-0.1
			c-0.1-0.1-0.2-0.3-0.2-0.4c0-0.2,0-0.3,0.1-0.3L94,9l0.1,0c0,0,0,0.1-0.1,0.1c0,0,0,0.1-0.1,0.2c0,0.1,0,0.1,0,0.1
			c0,0.1,0,0.2,0,0.2s0,0.1,0,0.1c0,0,0,0,0,0.1l0.2,0.2c0.1,0.1,0.2,0.3,0.2,0.5c0,0.1,0,0.1,0,0.2c0,0.1-0.2,0.2-0.3,0.4
			c-0.2,0.2-0.4,0.3-0.7,0.4c-0.2,0.1-0.4,0.2-0.6,0.2L92,11.1c-0.1-0.1-0.1-0.2-0.1-0.3c0,0,0,0,0,0V6c0-0.1,0-0.1,0-0.1
			c0,0,0-0.1-0.1-0.1c0.1,0,0.1,0,0.2-0.1c0.1,0,0.1-0.1,0.2-0.1c0.3-0.1,0.5-0.2,0.5-0.3c0,0,0,0.1,0,0.1c0,0,0,0.1-0.1,0.1
			c0,0,0,0.1,0,0.1v4.9c0,0.2,0.1,0.3,0.2,0.4C92.9,11.2,93.1,11.3,93.2,11.3z"/>
		<path class="st0" d="M100.5,11.5c0.1-0.2,0.1-0.3,0.1-0.5c0-0.2-0.1-0.5-0.2-0.9c0-0.2-0.1-0.3-0.2-0.4c-0.1-0.1-0.2-0.2-0.4-0.2
			c-0.1,0-0.2,0-0.3,0.1c-0.2,0.1-0.3,0.2-0.3,0.4c0,0.1,0,0.2,0,0.3c0.1,0.4,0.2,0.6,0.2,0.8c0.1,0.1,0.2,0.2,0.3,0.3l0,0l-0.3,0.3
			l-0.1,0c-0.1,0-0.2-0.2-0.4-0.3c-0.1-0.2-0.2-0.3-0.3-0.5c0,0,0,0,0-0.1c0,0,0-0.1,0-0.1c0,0,0-0.1,0-0.2c0-0.1,0-0.2,0.1-0.3l1-1
			c0,0,0.1,0,0.1-0.1c0,0,0.1,0,0.1,0c0,0,0.1,0,0.1,0c0.1,0,0.2,0,0.4,0c0.2,0,0.4,0.1,0.5,0.2c0.1,0.2,0.2,0.4,0.2,0.6l-0.3,1.3
			c0.1,0,0.2-0.1,0.2-0.1c0.1,0,0.1,0,0.2,0.1c0,0,0.1,0.1,0.1,0.1v0.4l-2.6,3.8l-0.1-0.1l0-0.1l1.9-2.8c0-0.1,0.1-0.1,0.1-0.2
			c0-0.1,0-0.1,0.1-0.2c0-0.1,0-0.1,0-0.2C100.8,11.8,100.7,11.6,100.5,11.5z"/>
		<path class="st0" d="M101.8,10.2l1-1c0,0,0.1,0,0.1-0.1c0,0,0.1,0,0.1,0c0,0,0.1,0,0.1,0c0.1,0,0.2,0,0.4,0c0.2,0,0.4,0.1,0.5,0.2
			c0.1,0.1,0.2,0.3,0.2,0.6l0.2,1.8l-0.7,0.3l-0.3-1.9c0-0.2-0.1-0.3-0.2-0.4c-0.1-0.1-0.2-0.2-0.4-0.2c-0.1,0-0.2,0-0.3,0.1
			c-0.2,0.1-0.3,0.2-0.3,0.4c0,0.1,0,0.2,0,0.3c0.1,0.4,0.2,0.6,0.2,0.8c0.1,0.1,0.2,0.2,0.3,0.3l0,0l-0.3,0.3l-0.1,0
			c-0.1,0-0.2-0.2-0.4-0.3c-0.1-0.2-0.2-0.3-0.3-0.5c0,0,0,0,0-0.1c0,0,0-0.1,0-0.1c0,0,0-0.1,0-0.2
			C101.7,10.4,101.7,10.3,101.8,10.2z"/>
		<path class="st0" d="M107.7,13.1c-0.1,0-0.2-0.1-0.5-0.1s-0.4-0.1-0.5-0.2c-0.1,0-0.2-0.1-0.3-0.1c-0.3-0.2-0.6-0.4-0.8-0.6
			c-0.1-0.1-0.2-0.2-0.2-0.2c0-0.1-0.1-0.1-0.2-0.2c-0.1-0.1-0.1-0.2-0.2-0.4c-0.1-0.3-0.2-0.6-0.2-0.8c0-0.2,0.1-0.4,0.2-0.6
			l0.7-0.7c0.1-0.1,0.2-0.1,0.4-0.1c0.2,0,0.3,0.1,0.4,0.4l0.2,0.5l0.8-0.8c0.1-0.1,0.3-0.1,0.5-0.1c0.2,0,0.3,0.1,0.4,0.3l0.3,0.7
			l0.8-0.8c0.1-0.1,0.3-0.1,0.5-0.1c0.2,0,0.4,0.1,0.5,0.2c0.1,0.1,0.2,0.3,0.2,0.6l0.2,1.8l-0.7,0.3l-0.3-1.9
			c0-0.1-0.1-0.2-0.2-0.4c0-0.1-0.1-0.2-0.2-0.2c-0.1,0-0.1,0-0.2,0.1l-1.1,1.1l-0.3-0.7c-0.1-0.2-0.1-0.3-0.2-0.3
			c0-0.1-0.1-0.2-0.2-0.2c-0.1,0-0.1,0-0.2,0.1l-1.1,1.1l-0.4-0.8c0-0.1-0.1-0.1-0.3-0.1c-0.1,0-0.2,0-0.2,0
			c-0.1,0.1-0.2,0.2-0.3,0.2c-0.1,0.1-0.1,0.2-0.1,0.4c0,0.1,0,0.2,0,0.3c0,0.2,0.1,0.4,0.3,0.6c0.2,0.2,0.4,0.4,0.6,0.5
			c0.1,0,0.2,0.1,0.3,0.1c0.1,0,0.3,0.1,0.5,0.1c0.2,0,0.4,0.1,0.6,0.2c0.1,0,0.3,0.1,0.6,0.2c0.3,0.1,0.5,0.1,0.6,0.2
			c0.1,0,0.3,0.1,0.4,0.1c0.2,0.1,0.4,0.2,0.6,0.3c0.2,0.1,0.3,0.2,0.4,0.3c0.1,0.1,0.2,0.3,0.3,0.5c0.1,0.2,0.2,0.4,0.3,0.6
			c0.1,0.3,0.2,0.6,0.2,0.8l-0.2,0.2c0-0.2,0-0.3,0-0.3c0,0,0-0.1,0-0.1c0-0.1,0-0.1-0.1-0.2c-0.1-0.4-0.4-0.7-0.9-0.9
			c-0.1-0.1-0.4-0.2-0.8-0.3C108.5,13.4,108.1,13.2,107.7,13.1z"/>
		<path class="st0" d="M112,10.1h0.8c-0.1,0.1-0.2,0.2-0.2,0.2c-0.2,0.2-0.3,0.3-0.3,0.4c0,0,0,0.1,0,0.1c0,0.1,0,0.1,0.1,0.2
			c0.1,0.1,0.2,0.2,0.3,0.3c0.1,0,0.2,0,0.3,0c0.1,0,0.2,0,0.3,0c0.2,0,0.3-0.1,0.4-0.3c0-0.1,0-0.2,0-0.3c0-0.2-0.1-0.3-0.2-0.4
			l-0.1-0.1c-0.1-0.1-0.2-0.3-0.2-0.4c0-0.2,0.1-0.3,0.1-0.3l0.8-0.5l0.1,0c0,0,0,0.1,0,0.1c0,0,0,0.1-0.1,0.2c0,0.1,0,0.1,0,0.1
			c0,0.1,0,0.2,0,0.2c0,0,0,0.1,0,0.1c0,0,0,0,0,0.1l0.2,0.2c0.1,0.1,0.2,0.3,0.2,0.5c0,0.1,0,0.1,0,0.2c0,0.1-0.1,0.2-0.3,0.4
			c-0.2,0.1-0.4,0.3-0.7,0.4c-0.3,0.2-0.7,0.3-1,0.3c-0.2,0-0.5,0-0.7-0.1c-0.2-0.1-0.4-0.2-0.4-0.3c0-0.1,0-0.1,0-0.2c0,0,0,0,0,0
			c0-0.1,0-0.1,0-0.2c0-0.1,0.1-0.3,0.3-0.5C111.7,10.3,111.8,10.2,112,10.1z"/>
		<path class="st0" d="M114.8,10.2l1-1c0,0,0.1,0,0.1-0.1c0,0,0.1,0,0.1,0c0,0,0.1,0,0.1,0c0.1,0,0.2,0,0.4,0c0.2,0,0.4,0.1,0.5,0.2
			c0.1,0.1,0.2,0.3,0.2,0.6l0.2,1.8l-0.7,0.3l-0.3-1.9c0-0.2-0.1-0.3-0.2-0.4c-0.1-0.1-0.2-0.2-0.4-0.2c-0.1,0-0.2,0-0.3,0.1
			c-0.2,0.1-0.3,0.2-0.3,0.4c0,0.1,0,0.2,0,0.3c0.1,0.4,0.2,0.6,0.2,0.8c0.1,0.1,0.2,0.2,0.3,0.3l0,0l-0.3,0.3l-0.1,0
			c-0.1,0-0.2-0.2-0.4-0.3c-0.1-0.2-0.2-0.3-0.3-0.5c0,0,0,0,0-0.1c0,0,0-0.1,0-0.1c0,0,0-0.1,0-0.2
			C114.7,10.4,114.8,10.3,114.8,10.2z"/>
		<path class="st0" d="M120.6,14c0,0.2-0.1,0.4-0.2,0.7c-0.1,0.3-0.2,0.5-0.4,0.8c-0.1,0.2-0.2,0.4-0.3,0.5
			c-0.3,0.3-0.7,0.6-0.9,0.7c-0.5,0.3-1.1,0.4-1.7,0.4c-0.3,0-0.5,0-0.7-0.1c-0.2,0-0.4-0.1-0.6-0.2c0,0-0.1,0-0.1,0
			c0,0,0-0.1,0-0.1c0,0,0,0,0-0.1l0.4-0.9l0.1,0.1c0.2,0.1,0.3,0.2,0.4,0.3c0.4,0.2,0.7,0.3,1.1,0.3c0.4,0,0.7,0,1-0.1
			c0.3-0.1,0.6-0.2,0.9-0.4c0.3-0.2,0.4-0.4,0.4-0.7v-4.6v-0.1c0-0.2-0.1-0.4-0.3-0.6c-0.2-0.3-0.4-0.4-0.6-0.4
			c-0.1,0-0.2,0.1-0.4,0.2c-0.1,0.1-0.2,0.2-0.2,0.3c0,0.3,0.1,0.5,0.4,0.6c0.1,0,0.2,0.1,0.4,0.1c-0.1,0.1-0.1,0.2-0.2,0.2
			c-0.2,0.1-0.3,0.2-0.5,0.2c-0.2,0-0.4,0-0.6-0.1c-0.2-0.1-0.3-0.3-0.3-0.6c0-0.1,0-0.1,0-0.2c0,0,0.1-0.1,0.1-0.1l1.6-1.2h0.1
			l1,0.7l0,0.1V14z"/>
		<path class="st0" d="M122.9,10.7L122.9,10.7c0,0,0-0.1,0-0.2c0-0.2,0-0.3,0-0.5l0.6-0.7c0.2-0.1,0.3-0.2,0.3-0.2
			c0.1,0,0.2,0,0.4,0c0.2,0,0.4,0.1,0.5,0.2c0.1,0.1,0.2,0.3,0.2,0.6l0.2,1.8l-0.7,0.3l-0.3-1.9c0-0.1-0.1-0.2-0.2-0.4
			c-0.1-0.2-0.1-0.2-0.2-0.2c0,0-0.1,0-0.1,0.1l-0.3,0.4c0,0,0.1,0.1,0.1,0.4c0.1,0.2,0.1,0.4,0.1,0.4c0,0.1,0,0.3-0.1,0.3l-0.8,0.6
			c-0.1,0-0.3,0-0.4-0.1l-1.1-0.6c-0.1-0.1-0.2-0.2-0.2-0.4c0-0.1,0-0.2,0.1-0.4c0,0,0.1-0.1,0.3-0.3l0.9-0.8l0.6,0.3v0.3l-0.9,0.9
			c-0.1,0.1-0.1,0.1-0.2,0.2c-0.1,0.1-0.1,0.2-0.1,0.3c0,0.1,0,0.2,0.1,0.3c0.1,0.1,0.2,0.1,0.4,0.1c0.2,0,0.3-0.1,0.4-0.2
			C122.9,11,122.9,10.8,122.9,10.7z"/>
		<path class="st0" d="M125.6,10.2l1-1c0,0,0.1,0,0.1-0.1c0,0,0.1,0,0.1,0c0,0,0.1,0,0.1,0c0.1,0,0.2,0,0.4,0c0.2,0,0.4,0.1,0.5,0.2
			c0.1,0.1,0.2,0.3,0.2,0.6l0.2,1.8l-0.7,0.3l-0.3-1.9c0-0.2-0.1-0.3-0.2-0.4c-0.1-0.1-0.2-0.2-0.4-0.2c-0.1,0-0.2,0-0.3,0.1
			c-0.2,0.1-0.3,0.2-0.3,0.4c0,0.1,0,0.2,0,0.3c0.1,0.4,0.2,0.6,0.2,0.8c0.1,0.1,0.2,0.2,0.3,0.3l0,0l-0.3,0.3l-0.1,0
			c-0.1,0-0.2-0.2-0.4-0.3c-0.1-0.2-0.2-0.3-0.3-0.5c0,0,0,0,0-0.1c0,0,0-0.1,0-0.1c0,0,0-0.1,0-0.2
			C125.5,10.4,125.6,10.3,125.6,10.2z"/>
		<path class="st0" d="M130,11.3c0.2,0,0.3-0.1,0.4-0.3c0-0.1,0-0.2,0-0.3c0-0.2-0.1-0.3-0.2-0.4l-0.1-0.1c-0.1-0.1-0.2-0.3-0.2-0.4
			c0-0.2,0-0.3,0.1-0.3l0.8-0.4l0.1,0c0,0,0,0.1-0.1,0.1c0,0,0,0.1-0.1,0.2c0,0.1,0,0.1,0,0.1c0,0.1,0,0.2,0,0.2c0,0,0,0.1,0,0.1
			c0,0,0,0,0,0.1l0.2,0.2c0.1,0.1,0.2,0.3,0.2,0.5c0,0.1,0,0.1,0,0.2c0,0.1-0.2,0.2-0.3,0.4c-0.2,0.2-0.4,0.3-0.7,0.4
			c-0.2,0.1-0.4,0.2-0.6,0.2l-0.8-0.6c-0.1-0.1-0.1-0.2-0.1-0.3c0,0,0,0,0,0V6c0-0.1,0-0.1,0-0.1c0,0,0-0.1-0.1-0.1
			c0.1,0,0.1,0,0.2-0.1c0.1,0,0.1-0.1,0.2-0.1c0.3-0.1,0.5-0.2,0.5-0.3c0,0,0,0.1,0,0.1c0,0,0,0.1-0.1,0.1c0,0,0,0.1,0,0.1v4.9
			c0,0.2,0.1,0.3,0.2,0.4C129.6,11.2,129.8,11.3,130,11.3z"/>
	</g>
	<g>
		<path class="st0" d="M59.8,20.3c0.2,0,0.3,0.1,0.4,0.2c0.1,0.1,0.1,0.2,0.1,0.3c0,0.1,0,0.1,0,0.2c0,0,0,0.1,0,0.1
			c0,0.1-0.1,0.1-0.1,0.2L59,22.2c0,0-0.1,0.1-0.1,0.1s-0.1,0-0.2,0c-0.1,0-0.3,0-0.4,0c-0.1,0-0.2,0-0.3-0.1
			c-0.1,0-0.2-0.1-0.3-0.2c-0.1-0.1-0.2-0.2-0.3-0.3l-0.4-0.8c0-0.1-0.1-0.1-0.3-0.1c-0.1,0-0.2,0-0.2,0c-0.1,0.1-0.2,0.2-0.3,0.2
			c-0.1,0.1-0.1,0.2-0.1,0.4c0,0.1,0,0.2,0,0.3c0,0.2,0.1,0.4,0.3,0.6c0.2,0.2,0.4,0.4,0.6,0.5c0.2,0.1,0.4,0.2,0.6,0.3
			c0.2,0.1,0.3,0.2,0.5,0.3c0.2,0.1,0.3,0.2,0.5,0.4c0.2,0.2,0.3,0.3,0.5,0.5c0.3,0.3,0.5,0.6,0.6,1c0.1,0.3,0.2,0.6,0.2,0.8
			L60,26.5c0-0.1,0-0.2,0-0.3c0-0.1,0-0.2,0-0.2c0,0,0-0.1-0.1-0.2c0-0.1-0.1-0.3-0.3-0.5c-0.2-0.2-0.4-0.4-0.6-0.6
			c-0.2-0.2-0.5-0.3-0.7-0.4c-0.7-0.4-1.1-0.6-1.1-0.6c-0.2-0.2-0.4-0.4-0.6-0.6c-0.2-0.2-0.3-0.5-0.4-0.7C56.1,22,56,21.7,56,21.5
			c0-0.2,0.1-0.4,0.2-0.6l0.7-0.7c0.1-0.1,0.2-0.1,0.4-0.1c0.1,0,0.2,0,0.2,0.1c0.1,0.1,0.1,0.2,0.2,0.3L58,21l0.4-0.4l-0.3-0.1
			l0.7-0.5L59.8,20.3z M58.1,21.4c0,0.2,0.2,0.3,0.4,0.4c0.2,0.1,0.3,0.1,0.5,0.1c0,0,0.1,0,0.2,0c0.1,0,0.2-0.1,0.3-0.2
			c0.1-0.2,0.2-0.3,0.2-0.4c0-0.1,0-0.2-0.1-0.3c-0.1-0.1-0.1-0.1-0.2-0.1l-0.8-0.3L58.2,21C58.1,21.1,58.1,21.2,58.1,21.4z"/>
		<path class="st0" d="M60.7,21.2l1-1c0,0,0.1,0,0.1-0.1c0,0,0.1,0,0.1,0c0,0,0.1,0,0.1,0c0.1,0,0.2,0,0.4,0c0.2,0,0.4,0.1,0.5,0.2
			c0.1,0.1,0.2,0.3,0.2,0.6l0.2,1.8L62.6,23l-0.3-1.9c0-0.2-0.1-0.3-0.2-0.4c-0.1-0.1-0.2-0.2-0.4-0.2c-0.1,0-0.2,0-0.3,0.1
			c-0.2,0.1-0.3,0.2-0.3,0.4c0,0.1,0,0.2,0,0.3c0.1,0.4,0.2,0.6,0.2,0.8c0.1,0.1,0.2,0.2,0.3,0.3l0,0l-0.3,0.3l-0.1,0
			c-0.1,0-0.2-0.2-0.4-0.3s-0.2-0.3-0.3-0.5c0,0,0,0,0-0.1c0,0,0-0.1,0-0.1s0-0.1,0-0.2C60.6,21.4,60.7,21.3,60.7,21.2z"/>
		<path class="st0" d="M67.6,20.3c0.2,0,0.3,0.1,0.4,0.2c0.1,0.1,0.1,0.2,0.1,0.3c0,0.1,0,0.1,0,0.2c0,0,0,0.1,0,0.1
			c0,0.1-0.1,0.1-0.1,0.2l-1.1,0.9c0,0-0.1,0.1-0.1,0.1c-0.1,0-0.1,0-0.2,0c-0.1,0-0.3,0-0.4,0c-0.1,0-0.2,0-0.3-0.1
			c-0.1,0-0.2-0.1-0.3-0.2c-0.1-0.1-0.2-0.2-0.3-0.3l-0.4-0.8c0-0.1-0.1-0.1-0.3-0.1c-0.1,0-0.2,0-0.2,0c-0.1,0.1-0.2,0.2-0.3,0.2
			C64,21.1,64,21.3,64,21.5c0,0.1,0,0.2,0,0.3c0,0.2,0.1,0.4,0.3,0.6c0.2,0.2,0.4,0.4,0.6,0.5c0.2,0.1,0.4,0.2,0.6,0.3
			c0.2,0.1,0.3,0.2,0.5,0.3c0.2,0.1,0.3,0.2,0.5,0.4c0.2,0.2,0.3,0.3,0.5,0.5c0.3,0.3,0.5,0.6,0.6,1c0.1,0.3,0.2,0.6,0.2,0.8
			l-0.2,0.2c0-0.1,0-0.2,0-0.3c0-0.1,0-0.2,0-0.2s0-0.1-0.1-0.2c0-0.1-0.1-0.3-0.3-0.5c-0.2-0.2-0.4-0.4-0.6-0.6
			c-0.2-0.2-0.5-0.3-0.7-0.4c-0.7-0.4-1.1-0.6-1.1-0.6c-0.2-0.2-0.4-0.4-0.6-0.6c-0.2-0.2-0.3-0.5-0.4-0.7c-0.1-0.3-0.2-0.6-0.2-0.8
			c0-0.2,0.1-0.4,0.2-0.6l0.7-0.7c0.1-0.1,0.2-0.1,0.4-0.1c0.1,0,0.2,0,0.2,0.1c0.1,0.1,0.1,0.2,0.2,0.3l0.3,0.5l0.4-0.4l-0.3-0.1
			l0.7-0.5L67.6,20.3z M65.9,21.4c0,0.2,0.2,0.3,0.4,0.4c0.2,0.1,0.3,0.1,0.5,0.1c0,0,0.1,0,0.2,0c0.1,0,0.2-0.1,0.3-0.2
			c0.1-0.2,0.2-0.3,0.2-0.4c0-0.1,0-0.2-0.1-0.3c-0.1-0.1-0.1-0.1-0.2-0.1l-0.8-0.3L66,21C65.9,21.1,65.9,21.2,65.9,21.4z"/>
		<path class="st0" d="M68.5,21.2l1-1c0,0,0.1,0,0.1-0.1c0,0,0.1,0,0.1,0c0,0,0.1,0,0.1,0c0.1,0,0.2,0,0.4,0c0.2,0,0.4,0.1,0.5,0.2
			c0.1,0.1,0.2,0.3,0.2,0.6l0.2,1.8L70.4,23l-0.3-1.9c0-0.2-0.1-0.3-0.2-0.4c-0.1-0.1-0.2-0.2-0.4-0.2c-0.1,0-0.2,0-0.3,0.1
			C69.1,20.7,69,20.9,69,21c0,0.1,0,0.2,0,0.3c0.1,0.4,0.2,0.6,0.2,0.8c0.1,0.1,0.2,0.2,0.3,0.3l0,0l-0.3,0.3l-0.1,0
			c-0.1,0-0.2-0.2-0.4-0.3c-0.1-0.2-0.2-0.3-0.3-0.5c0,0,0,0,0-0.1c0,0,0-0.1,0-0.1c0,0,0-0.1,0-0.2C68.4,21.4,68.4,21.3,68.5,21.2z
			"/>
		<path class="st0" d="M79.3,20.3c0.2,0,0.3,0.1,0.4,0.2c0.1,0.1,0.1,0.2,0.1,0.3c0,0.1,0,0.1,0,0.2c0,0,0,0.1,0,0.1
			c0,0.1-0.1,0.1-0.1,0.2l-1.1,0.9c0,0-0.1,0.1-0.1,0.1c-0.1,0-0.1,0-0.2,0c-0.1,0-0.3,0-0.4,0c-0.1,0-0.2,0-0.3-0.1
			c-0.1,0-0.2-0.1-0.3-0.2c-0.1-0.1-0.2-0.2-0.3-0.3l-0.4-0.8c0-0.1-0.1-0.1-0.3-0.1c-0.1,0-0.2,0-0.2,0C76,20.9,75.9,21,75.8,21
			c-0.1,0.1-0.1,0.2-0.1,0.4c0,0.1,0,0.2,0,0.3c0,0.2,0.1,0.4,0.3,0.6c0.2,0.2,0.4,0.4,0.6,0.5c0.2,0.1,0.4,0.2,0.6,0.3
			c0.2,0.1,0.3,0.2,0.5,0.3c0.2,0.1,0.3,0.2,0.5,0.4c0.2,0.2,0.3,0.3,0.5,0.5c0.3,0.3,0.5,0.6,0.6,1c0.1,0.3,0.2,0.6,0.2,0.8
			l-0.2,0.2c0-0.1,0-0.2,0-0.3c0-0.1,0-0.2,0-0.2c0,0,0-0.1-0.1-0.2c0-0.1-0.1-0.3-0.3-0.5c-0.2-0.2-0.4-0.4-0.6-0.6
			c-0.2-0.2-0.5-0.3-0.7-0.4c-0.7-0.4-1.1-0.6-1.1-0.6c-0.2-0.2-0.4-0.4-0.6-0.6c-0.2-0.2-0.3-0.5-0.4-0.7c-0.1-0.3-0.2-0.6-0.2-0.8
			c0-0.2,0.1-0.4,0.2-0.6l0.7-0.7c0.1-0.1,0.2-0.1,0.4-0.1c0.1,0,0.2,0,0.2,0.1c0.1,0.1,0.1,0.2,0.2,0.3l0.3,0.5l0.4-0.4l-0.3-0.1
			l0.7-0.5L79.3,20.3z M77.6,21.4c0,0.2,0.2,0.3,0.4,0.4c0.2,0.1,0.3,0.1,0.5,0.1c0,0,0.1,0,0.2,0c0.1,0,0.2-0.1,0.3-0.2
			c0.1-0.2,0.2-0.3,0.2-0.4c0-0.1,0-0.2-0.1-0.3C79,21,78.9,21,78.9,20.9L78,20.7L77.7,21C77.6,21.1,77.6,21.2,77.6,21.4z"/>
		<path class="st0" d="M80.9,21.1h0.8c-0.1,0.1-0.2,0.2-0.2,0.2c-0.2,0.2-0.3,0.3-0.3,0.4c0,0,0,0.1,0,0.1c0,0.1,0,0.1,0.1,0.2
			c0.1,0.1,0.2,0.2,0.3,0.3c0.1,0,0.2,0,0.3,0c0.1,0,0.2,0,0.3,0c0.2,0,0.3-0.1,0.4-0.3c0-0.1,0-0.2,0-0.3c0-0.2-0.1-0.3-0.2-0.4
			l-0.1-0.1c-0.1-0.1-0.2-0.3-0.2-0.4c0-0.2,0.1-0.3,0.1-0.3l0.8-0.5l0.1,0c0,0,0,0.1,0,0.1c0,0,0,0.1-0.1,0.2c0,0.1,0,0.1,0,0.1
			c0,0.1,0,0.2,0,0.2c0,0,0,0.1,0,0.1c0,0,0,0,0,0.1l0.2,0.2c0.1,0.1,0.2,0.3,0.2,0.5c0,0.1,0,0.1,0,0.2c0,0.1-0.1,0.2-0.3,0.4
			s-0.4,0.3-0.7,0.4c-0.3,0.2-0.7,0.3-1,0.3c-0.2,0-0.5,0-0.7-0.1c-0.2-0.1-0.4-0.2-0.4-0.3c0-0.1,0-0.1,0-0.2c0,0,0,0,0,0
			c0-0.1,0-0.1,0-0.2c0-0.1,0.1-0.3,0.3-0.5C80.6,21.3,80.8,21.2,80.9,21.1z"/>
		<path class="st0" d="M85.4,22.5c0.1-0.2,0.1-0.3,0.1-0.5c0-0.2-0.1-0.5-0.2-0.9c0-0.2-0.1-0.3-0.2-0.4c-0.1-0.1-0.2-0.2-0.4-0.2
			c-0.1,0-0.2,0-0.3,0.1c-0.2,0.1-0.3,0.2-0.3,0.4c0,0.1,0,0.2,0,0.3c0.1,0.4,0.2,0.6,0.2,0.8c0.1,0.1,0.2,0.2,0.3,0.3l0,0l-0.3,0.3
			l-0.1,0c-0.1,0-0.2-0.2-0.4-0.3c-0.1-0.2-0.2-0.3-0.3-0.5c0,0,0,0,0-0.1c0,0,0-0.1,0-0.1c0,0,0-0.1,0-0.2c0-0.1,0-0.2,0.1-0.3l1-1
			c0,0,0.1,0,0.1-0.1c0,0,0.1,0,0.1,0c0,0,0.1,0,0.1,0c0.1,0,0.2,0,0.4,0c0.2,0,0.4,0.1,0.5,0.2c0.1,0.2,0.2,0.4,0.2,0.6l-0.3,1.3
			c0.1,0,0.2-0.1,0.2-0.1c0.1,0,0.1,0,0.2,0.1c0,0,0.1,0.1,0.1,0.1v0.4l-2.6,3.8l-0.1-0.1l0-0.1l1.9-2.8c0-0.1,0.1-0.1,0.1-0.2
			c0-0.1,0-0.1,0.1-0.2c0-0.1,0-0.1,0-0.2C85.7,22.8,85.6,22.6,85.4,22.5z"/>
		<path class="st0" d="M88.5,21.7L88.5,21.7c0,0,0-0.1,0-0.2c0-0.2,0-0.3,0-0.5l0.6-0.7c0.2-0.1,0.3-0.2,0.3-0.2c0.1,0,0.2,0,0.4,0
			c0.2,0,0.4,0.1,0.5,0.2c0.1,0.1,0.2,0.3,0.2,0.6l0.2,1.8L90.1,23l-0.3-1.9c0-0.1-0.1-0.2-0.2-0.4c-0.1-0.2-0.1-0.2-0.2-0.2
			c0,0-0.1,0-0.1,0.1L89,21c0,0,0.1,0.1,0.1,0.4c0.1,0.2,0.1,0.4,0.1,0.4c0,0.1,0,0.3-0.1,0.3l-0.8,0.6c-0.1,0-0.3,0-0.4-0.1
			L86.9,22c-0.1-0.1-0.2-0.2-0.2-0.4c0-0.1,0-0.2,0.1-0.4c0,0,0.1-0.1,0.3-0.3l0.9-0.8l0.6,0.3v0.3l-0.9,0.9
			c-0.1,0.1-0.1,0.1-0.2,0.2c-0.1,0.1-0.1,0.2-0.1,0.3c0,0.1,0,0.2,0.1,0.3c0.1,0.1,0.2,0.1,0.4,0.1c0.2,0,0.3-0.1,0.4-0.2
			C88.5,22,88.5,21.8,88.5,21.7z"/>
		<path class="st0" d="M91.9,21.1h0.8c-0.1,0.1-0.2,0.2-0.2,0.2c-0.2,0.2-0.3,0.3-0.3,0.4c0,0,0,0.1,0,0.1c0,0.1,0,0.1,0.1,0.2
			c0.1,0.1,0.2,0.2,0.3,0.3c0.1,0,0.2,0,0.3,0c0.1,0,0.2,0,0.3,0c0.2,0,0.3-0.1,0.4-0.3c0-0.1,0-0.2,0-0.3c0-0.2-0.1-0.3-0.2-0.4
			l-0.1-0.1c-0.1-0.1-0.2-0.3-0.2-0.4c0-0.2,0.1-0.3,0.1-0.3l0.8-0.5l0.1,0c0,0,0,0.1,0,0.1c0,0,0,0.1-0.1,0.2c0,0.1,0,0.1,0,0.1
			c0,0.1,0,0.2,0,0.2c0,0,0,0.1,0,0.1c0,0,0,0,0,0.1l0.2,0.2c0.1,0.1,0.2,0.3,0.2,0.5c0,0.1,0,0.1,0,0.2c0,0.1-0.1,0.2-0.3,0.4
			c-0.2,0.1-0.4,0.3-0.7,0.4c-0.3,0.2-0.7,0.3-1,0.3c-0.2,0-0.5,0-0.7-0.1c-0.2-0.1-0.4-0.2-0.4-0.3c0-0.1,0-0.1,0-0.2c0,0,0,0,0,0
			c0-0.1,0-0.1,0-0.2c0-0.1,0.1-0.3,0.3-0.5C91.6,21.3,91.8,21.2,91.9,21.1z"/>
		<path class="st0" d="M97.3,20.3c0.1-0.1,0.2-0.2,0.3-0.2c0.1,0,0.2,0,0.4,0c0.2,0,0.4,0.1,0.5,0.2c0.1,0.1,0.2,0.3,0.2,0.6
			l0.2,1.8L98.2,23l-0.3-1.9c0-0.1-0.1-0.2-0.2-0.4c-0.1-0.2-0.1-0.2-0.2-0.2c0,0-0.1,0-0.1,0.1l-1.1,1.4L95.9,21
			c-0.1-0.2-0.1-0.3-0.2-0.3c-0.1,0-0.1-0.1-0.2-0.1c-0.1,0-0.1,0.1-0.2,0.1c-0.1,0.1-0.1,0.1-0.1,0.2c0,0.1,0,0.2,0,0.3
			c0.1,0.4,0.2,0.6,0.2,0.8c0.1,0.1,0.2,0.2,0.3,0.3l0,0l-0.3,0.3l-0.1,0c-0.1,0-0.2-0.2-0.4-0.3c-0.1-0.2-0.2-0.3-0.3-0.5
			c0,0,0,0,0-0.1c0,0,0-0.1,0-0.1c0,0,0-0.1,0-0.2c0-0.1,0-0.2,0.1-0.3l1-1c0.1-0.1,0.3-0.1,0.5-0.1c0.2,0,0.4,0.1,0.4,0.3l0.2,0.6
			L97.3,20.3z M103.6,15.6c-0.4,0.2-0.6,0.4-0.8,0.4c-0.3,0.1-0.6,0.1-1,0.1c-0.4,0-0.8-0.1-1.4-0.2c-0.5-0.2-1.1-0.3-1.6-0.5
			c-0.5-0.2-1-0.2-1.3-0.2c-0.2,0-0.3,0-0.5,0.1c-0.2,0-0.3,0.1-0.5,0.2c-0.1,0.1-0.2,0.2-0.3,0.3c-0.2,0.2-0.3,0.6-0.4,1
			c-0.1,0.4-0.1,0.9-0.1,1.3c0,0.2,0,0.4,0,0.6c0,0.2,0.1,0.4,0.1,0.5c0,0.2,0.1,0.3,0.1,0.4l-1,0.8c0-0.5,0.1-0.9,0.1-1
			c0-0.4,0.1-0.7,0.1-0.9c0-0.3,0.1-0.5,0.1-0.7c0-0.2,0.1-0.4,0.1-0.6c0.1-0.5,0.2-0.9,0.4-1.2c0.2-0.3,0.4-0.6,0.7-0.8
			c0.3-0.2,0.6-0.4,1-0.6c0.3-0.2,0.7-0.2,1.1-0.2c0.3,0,0.7,0.1,1.1,0.3c0.5,0.2,1,0.4,1.5,0.6c0.5,0.2,1,0.3,1.3,0.3
			c0.2,0,0.4,0,0.6,0c0.1,0,0.3-0.1,0.4-0.1c0.2-0.1,0.3-0.1,0.3-0.2c0,0,0,0,0.1,0.1c0,0,0,0.1,0,0.1L103.6,15.6z"/>
		<path class="st0" d="M99.3,21.2l1-1c0,0,0.1,0,0.1-0.1c0,0,0.1,0,0.1,0c0,0,0.1,0,0.1,0c0.1,0,0.2,0,0.4,0c0.2,0,0.4,0.1,0.5,0.2
			c0.1,0.1,0.2,0.3,0.2,0.6l0.2,1.8l-0.7,0.3l-0.3-1.9c0-0.2-0.1-0.3-0.2-0.4c-0.1-0.1-0.2-0.2-0.4-0.2c-0.1,0-0.2,0-0.3,0.1
			c-0.2,0.1-0.3,0.2-0.3,0.4c0,0.1,0,0.2,0,0.3c0.1,0.4,0.2,0.6,0.2,0.8c0.1,0.1,0.2,0.2,0.3,0.3l0,0l-0.3,0.3l-0.1,0
			c-0.1,0-0.2-0.2-0.4-0.3c-0.1-0.2-0.2-0.3-0.3-0.5c0,0,0,0,0-0.1c0,0,0-0.1,0-0.1c0,0,0-0.1,0-0.2C99.2,21.4,99.2,21.3,99.3,21.2z
			"/>
	</g>
</g>
</svg>
